<svg width="20" height="20" viewBox="0 0 20 20" fill="none" xmlns="http://www.w3.org/2000/svg">
<circle cx="10" cy="10" r="9" fill="white" stroke="#222222" stroke-width="2"/>
<g clip-path="url(#clip0)">
<path d="M15.5554 18.75H4.44434V17.3611C4.44434 16.4402 4.81016 15.5571 5.46133 14.9059C6.11249 14.2547 6.99567 13.8889 7.91656 13.8889H12.0832C13.0041 13.8889 13.8873 14.2547 14.5385 14.9059C15.1896 15.5571 15.5554 16.4402 15.5554 17.3611V18.75ZM9.99989 12.5C9.45272 12.5 8.9109 12.3922 8.40538 12.1828C7.89985 11.9734 7.44052 11.6665 7.05361 11.2796C6.6667 10.8927 6.35979 10.4334 6.15039 9.92785C5.941 9.42233 5.83322 8.88051 5.83322 8.33334C5.83322 7.78616 5.941 7.24435 6.15039 6.73882C6.35979 6.2333 6.6667 5.77397 7.05361 5.38706C7.44052 5.00015 7.89985 4.69323 8.40538 4.48384C8.9109 4.27445 9.45272 4.16667 9.99989 4.16667C11.105 4.16667 12.1648 4.60566 12.9462 5.38706C13.7276 6.16846 14.1666 7.22827 14.1666 8.33334C14.1666 9.43841 13.7276 10.4982 12.9462 11.2796C12.1648 12.061 11.105 12.5 9.99989 12.5Z" fill="#222222"/>
</g>
<defs>
<clipPath id="clip0">
<rect width="16.6667" height="16.6667" fill="white" transform="translate(1.6665 1.66667)"/>
</clipPath>
</defs>
</svg>
