<svg width="5398" height="3394" viewBox="0 0 5398 3394" fill="none" xmlns="http://www.w3.org/2000/svg">
<rect width="5398" height="3394" fill="white"/>
<rect width="5398" height="3394" fill="white"/>
<path d="M1789.92 2523.8C1816.92 2523.8 1839.22 2530.9 1856.82 2545.1C1874.62 2559.3 1886.12 2578.5 1891.32 2602.7H1837.02C1833.02 2592.9 1826.82 2585.2 1818.42 2579.6C1810.22 2574 1800.42 2571.2 1789.02 2571.2C1774.02 2571.2 1761.92 2576.7 1752.72 2587.7C1743.52 2598.7 1738.92 2613.4 1738.92 2631.8C1738.92 2650.2 1743.52 2664.9 1752.72 2675.9C1761.92 2686.7 1774.02 2692.1 1789.02 2692.1C1800.42 2692.1 1810.22 2689.3 1818.42 2683.7C1826.82 2678.1 1833.02 2670.5 1837.02 2660.9H1891.32C1886.12 2684.9 1874.62 2704.1 1856.82 2718.5C1839.22 2732.7 1816.92 2739.8 1789.92 2739.8C1769.32 2739.8 1751.22 2735.3 1735.62 2726.3C1720.02 2717.1 1707.92 2704.3 1699.32 2687.9C1690.92 2671.5 1686.72 2652.8 1686.72 2631.8C1686.72 2610.8 1690.92 2592.1 1699.32 2575.7C1707.92 2559.3 1720.02 2546.6 1735.62 2537.6C1751.22 2528.4 1769.32 2523.8 1789.92 2523.8ZM2004.37 2568.5C2020.97 2568.5 2035.77 2572 2048.77 2579C2061.97 2585.8 2072.27 2595.7 2079.67 2608.7C2087.27 2621.7 2091.07 2636.9 2091.07 2654.3C2091.07 2671.7 2087.27 2686.9 2079.67 2699.9C2072.27 2712.9 2061.97 2722.9 2048.77 2729.9C2035.77 2736.7 2020.97 2740.1 2004.37 2740.1C1987.77 2740.1 1972.87 2736.7 1959.67 2729.9C1946.47 2722.9 1936.07 2712.9 1928.47 2699.9C1921.07 2686.9 1917.37 2671.7 1917.37 2654.3C1917.37 2636.9 1921.07 2621.7 1928.47 2608.7C1936.07 2595.7 1946.47 2585.8 1959.67 2579C1972.87 2572 1987.77 2568.5 2004.37 2568.5ZM2004.37 2612.9C1994.57 2612.9 1986.27 2616.5 1979.47 2623.7C1972.87 2630.7 1969.57 2640.9 1969.57 2654.3C1969.57 2667.7 1972.87 2677.9 1979.47 2684.9C1986.27 2691.9 1994.57 2695.4 2004.37 2695.4C2014.17 2695.4 2022.37 2691.9 2028.97 2684.9C2035.57 2677.9 2038.87 2667.7 2038.87 2654.3C2038.87 2640.9 2035.57 2630.7 2028.97 2623.7C2022.37 2616.5 2014.17 2612.9 2004.37 2612.9ZM2340.57 2568.8C2361.17 2568.8 2377.37 2575.2 2389.17 2588C2400.97 2600.6 2406.87 2618.2 2406.87 2640.8V2738H2355.87V2646.8C2355.87 2636.2 2352.97 2628 2347.17 2622.2C2341.57 2616.2 2333.87 2613.2 2324.07 2613.2C2313.87 2613.2 2305.77 2616.4 2299.77 2622.8C2293.97 2629 2291.07 2637.8 2291.07 2649.2V2738H2239.77V2646.8C2239.77 2636.2 2236.97 2628 2231.37 2622.2C2225.77 2616.2 2218.07 2613.2 2208.27 2613.2C2198.07 2613.2 2189.97 2616.3 2183.97 2622.5C2177.97 2628.7 2174.97 2637.6 2174.97 2649.2V2738H2123.67V2570.6H2174.97V2599.1C2179.37 2589.7 2186.07 2582.3 2195.07 2576.9C2204.27 2571.5 2214.97 2568.8 2227.17 2568.8C2239.97 2568.8 2251.27 2571.8 2261.07 2577.8C2270.87 2583.6 2278.27 2592 2283.27 2603C2289.07 2592.6 2296.97 2584.3 2306.97 2578.1C2317.17 2571.9 2328.37 2568.8 2340.57 2568.8ZM2551.36 2568.5C2565.16 2568.5 2577.46 2572 2588.26 2579C2599.26 2585.8 2607.86 2595.7 2614.06 2608.7C2620.46 2621.5 2623.66 2636.7 2623.66 2654.3C2623.66 2671.7 2620.46 2686.9 2614.06 2699.9C2607.86 2712.9 2599.26 2722.9 2588.26 2729.9C2577.46 2736.7 2565.16 2740.1 2551.36 2740.1C2538.56 2740.1 2527.56 2737.2 2518.36 2731.4C2509.16 2725.6 2502.46 2717.7 2498.26 2707.7V2817.8H2446.96V2570.6H2498.26V2600.9C2502.46 2590.9 2509.16 2583 2518.36 2577.2C2527.56 2571.4 2538.56 2568.5 2551.36 2568.5ZM2534.86 2613.5C2524.06 2613.5 2515.16 2617.2 2508.16 2624.6C2501.36 2631.8 2497.96 2641.7 2497.96 2654.3C2497.96 2666.7 2501.36 2676.6 2508.16 2684C2515.16 2691.4 2524.06 2695.1 2534.86 2695.1C2545.86 2695.1 2554.66 2691.5 2561.26 2684.3C2568.06 2677.1 2571.46 2667.1 2571.46 2654.3C2571.46 2641.5 2568.06 2631.5 2561.26 2624.3C2554.66 2617.1 2545.86 2613.5 2534.86 2613.5ZM2707.58 2602.1C2713.98 2591.9 2722.18 2583.8 2732.18 2577.8C2742.38 2571.8 2753.38 2568.8 2765.18 2568.8V2623.7H2750.48C2736.88 2623.7 2726.28 2626.6 2718.68 2632.4C2711.28 2638.2 2707.58 2648 2707.58 2661.8V2738H2656.28V2570.6H2707.58V2602.1ZM2951.65 2649.8C2951.65 2654 2951.15 2658.6 2950.15 2663.6H2834.05C2834.65 2676.2 2837.85 2685.3 2843.65 2690.9C2849.45 2696.3 2856.85 2699 2865.85 2699C2873.45 2699 2879.75 2697.1 2884.75 2693.3C2889.75 2689.5 2893.05 2684.6 2894.65 2678.6H2948.95C2946.75 2690.4 2941.95 2701 2934.55 2710.4C2927.15 2719.6 2917.75 2726.9 2906.35 2732.3C2894.95 2737.5 2882.25 2740.1 2868.25 2740.1C2851.85 2740.1 2837.25 2736.7 2824.45 2729.9C2811.85 2722.9 2801.95 2712.9 2794.75 2699.9C2787.55 2686.9 2783.95 2671.7 2783.95 2654.3C2783.95 2636.7 2787.45 2621.5 2794.45 2608.7C2801.65 2595.7 2811.65 2585.8 2824.45 2579C2837.25 2572 2851.85 2568.5 2868.25 2568.5C2884.85 2568.5 2899.45 2571.9 2912.05 2578.7C2924.65 2585.5 2934.35 2595.1 2941.15 2607.5C2948.15 2619.7 2951.65 2633.8 2951.65 2649.8ZM2899.75 2642C2899.95 2631 2896.95 2622.8 2890.75 2617.4C2884.75 2611.8 2877.25 2609 2868.25 2609C2858.85 2609 2851.05 2611.8 2844.85 2617.4C2838.65 2623 2835.15 2631.2 2834.35 2642H2899.75ZM3122.69 2525.9V2566.7H3035.69V2613.2H3102.89V2652.2H3035.69V2738H2984.39V2525.9H3122.69ZM3218.64 2568.5C3231.44 2568.5 3242.44 2571.4 3251.64 2577.2C3260.84 2583 3267.64 2590.9 3272.04 2600.9V2570.6H3323.04V2738H3272.04V2707.7C3267.64 2717.7 3260.84 2725.6 3251.64 2731.4C3242.44 2737.2 3231.44 2740.1 3218.64 2740.1C3204.84 2740.1 3192.44 2736.7 3181.44 2729.9C3170.64 2722.9 3162.04 2712.9 3155.64 2699.9C3149.44 2686.9 3146.34 2671.7 3146.34 2654.3C3146.34 2636.7 3149.44 2621.5 3155.64 2608.7C3162.04 2595.7 3170.64 2585.8 3181.44 2579C3192.44 2572 3204.84 2568.5 3218.64 2568.5ZM3235.14 2613.5C3224.14 2613.5 3215.24 2617.1 3208.44 2624.3C3201.84 2631.5 3198.54 2641.5 3198.54 2654.3C3198.54 2667.1 3201.84 2677.1 3208.44 2684.3C3215.24 2691.5 3224.14 2695.1 3235.14 2695.1C3245.94 2695.1 3254.74 2691.4 3261.54 2684C3268.54 2676.6 3272.04 2666.7 3272.04 2654.3C3272.04 2641.7 3268.54 2631.8 3261.54 2624.6C3254.74 2617.2 3245.94 2613.5 3235.14 2613.5ZM3439.96 2568.5C3461.56 2568.5 3479.66 2574.5 3494.26 2586.5C3508.86 2598.3 3518.06 2614.6 3521.86 2635.4H3467.56C3465.96 2628.2 3462.66 2622.6 3457.66 2618.6C3452.66 2614.6 3446.36 2612.6 3438.76 2612.6C3429.76 2612.6 3422.36 2616.2 3416.56 2623.4C3410.76 2630.4 3407.86 2640.7 3407.86 2654.3C3407.86 2667.9 3410.76 2678.3 3416.56 2685.5C3422.36 2692.5 3429.76 2696 3438.76 2696C3446.36 2696 3452.66 2694 3457.66 2690C3462.66 2686 3465.96 2680.4 3467.56 2673.2H3521.86C3518.06 2694 3508.86 2710.4 3494.26 2722.4C3479.66 2734.2 3461.56 2740.1 3439.96 2740.1C3423.56 2740.1 3408.96 2736.7 3396.16 2729.9C3383.56 2722.9 3373.66 2712.9 3366.46 2699.9C3359.26 2686.9 3355.66 2671.7 3355.66 2654.3C3355.66 2636.7 3359.16 2621.5 3366.16 2608.7C3373.36 2595.7 3383.36 2585.8 3396.16 2579C3408.96 2572 3423.56 2568.5 3439.96 2568.5ZM3713.64 2649.8C3713.64 2654 3713.14 2658.6 3712.14 2663.6H3596.04C3596.64 2676.2 3599.84 2685.3 3605.64 2690.9C3611.44 2696.3 3618.84 2699 3627.84 2699C3635.44 2699 3641.74 2697.1 3646.74 2693.3C3651.74 2689.5 3655.04 2684.6 3656.64 2678.6H3710.94C3708.74 2690.4 3703.94 2701 3696.54 2710.4C3689.14 2719.6 3679.74 2726.9 3668.34 2732.3C3656.94 2737.5 3644.24 2740.1 3630.24 2740.1C3613.84 2740.1 3599.24 2736.7 3586.44 2729.9C3573.84 2722.9 3563.94 2712.9 3556.74 2699.9C3549.54 2686.9 3545.94 2671.7 3545.94 2654.3C3545.94 2636.7 3549.44 2621.5 3556.44 2608.7C3563.64 2595.7 3573.64 2585.8 3586.44 2579C3599.24 2572 3613.84 2568.5 3630.24 2568.5C3646.84 2568.5 3661.44 2571.9 3674.04 2578.7C3686.64 2585.5 3696.34 2595.1 3703.14 2607.5C3710.14 2619.7 3713.64 2633.8 3713.64 2649.8ZM3661.74 2642C3661.94 2631 3658.94 2622.8 3652.74 2617.4C3646.74 2611.8 3639.24 2609 3630.24 2609C3620.84 2609 3613.04 2611.8 3606.84 2617.4C3600.64 2623 3597.14 2631.2 3596.34 2642H3661.74Z" fill="url(#paint0_linear)"/>
<path opacity="0.1" d="M3115.61 962.479C3337.98 1266.6 3029.97 1353.34 2885.05 1235.86C2628.14 1578.41 2642.41 906.484 2316.88 1294.05C2108.21 1152.27 2174.5 1172.06 2316.88 962.479C2459.27 752.901 2966.29 758.265 3115.61 962.479Z" fill="#40BFEF"/>
<path fill-rule="evenodd" clip-rule="evenodd" d="M2699.5 2037.34C2473.29 2037.34 2348.12 1876.01 2255.63 1718.17C2254.78 1716.72 2229.68 1670.28 2219.4 1646.17C2188.18 1570.75 2172.5 1491.37 2172.5 1409.81V1166.14C2172.5 952.048 2311.1 873.525 2409.06 856.265C2430.73 804.158 2496.87 725.306 2698.18 720.036C2854.04 715.425 3005.62 770.496 3103.77 866.147C3184.08 944.34 3226.5 1047.7 3226.5 1165.15V1408.82C3226.5 1490.05 3210.82 1569.56 3179.86 1645.18C3168 1672.65 3142.44 1718.17 3139.54 1723.31C3040.8 1886.95 2919.72 2037.34 2699.5 2037.34ZM2700.82 818.783C2705.23 818.717 2709.78 818.651 2714.19 818.651C2837.51 818.651 2959.31 863.38 3034.87 936.962C3096.46 996.908 3127.69 1073.72 3127.69 1165.15V1249.03C3127.69 1249.03 3050.09 1248.22 3032.7 1249.01C3025.19 1249.41 3017.94 1249.74 3000.35 1249.74C2952.07 1249.74 2877.82 1154.55 2842.85 1090.19C2832.7 1071.61 2811.55 1061.33 2790.94 1065.16C2770.05 1068.78 2753.78 1085.38 2750.62 1106.33C2749.96 1110.41 2739.62 1182.28 2764.85 1263.64C2612.61 1216.34 2547.4 1052.31 2544.3 1044.34C2535.8 1022.07 2512.68 1008.83 2489.16 1013.31C2465.78 1017.66 2448.71 1038.08 2448.71 1061.93C2448.71 1186.23 2303.99 1253.49 2302.67 1254.08L2271.31 1268.79V1166.14C2271.31 963.115 2431.06 951.916 2448.98 951.323C2474.08 950.796 2495.02 928.926 2497.26 903.893C2499.77 876.291 2545.48 822.933 2700.82 818.783ZM2310.57 1607.9C2284.49 1544.99 2271.31 1478.32 2271.31 1409.75V1376.39L2342.92 1344.14C2349.11 1341.43 2457.48 1291.83 2513.87 1190.25C2574.21 1274.18 2681.58 1374.97 2849.7 1374.97C2868.21 1374.97 2885.2 1364.62 2893.63 1348.15C2899.96 1335.97 2900.68 1321.87 2896.34 1309.29C2927.89 1332.54 2963.13 1348.48 3000.35 1348.48C3020.12 1348.48 3028.53 1348.1 3037.04 1347.71L3037.37 1347.69C3052.26 1346.9 3127.69 1348.15 3127.69 1348.15V1408.76C3127.69 1477.14 3114.51 1544 3088.76 1606.85C3078.87 1629.84 3054.17 1673.44 3054.17 1673.44C2955.49 1837.08 2861.68 1938.53 2699.5 1938.53C2533.43 1938.53 2436 1830.42 2341.67 1669.56C2341.67 1669.56 2319.4 1628.65 2310.57 1607.9Z" fill="#40BFEF"/>
<path d="M2699.56 1803.77C2634.32 1803.77 2573.17 1777.63 2527.15 1730.18C2509.33 1711.75 2509.83 1682.42 2528.27 1664.53C2546.77 1646.65 2576.1 1647.21 2593.92 1665.58C2650.43 1724.11 2748.56 1724.18 2805.34 1665.59C2823.29 1647.2 2852.62 1646.78 2870.99 1664.53C2889.43 1682.35 2889.93 1711.74 2872.11 1730.18C2825.89 1777.63 2764.74 1803.77 2699.56 1803.77Z" fill="#40BFEF" stroke="white" stroke-width="6"/>
<path d="M2001.64 677.725H1998.64V680.725V828.946C1998.64 852.87 1979.24 872.265 1955.32 872.265C1931.4 872.265 1912 852.87 1912 828.946V634.406C1912 610.483 1931.4 591.088 1955.32 591.088H2149.84C2173.77 591.088 2193.16 610.483 2193.16 634.406C2193.16 658.329 2173.77 677.725 2149.84 677.725H2001.64ZM3397.36 2079.45H3400.36V2076.45V1928.23C3400.36 1904.31 3419.76 1884.91 3443.68 1884.91C3467.6 1884.91 3487 1904.31 3487 1928.23V2122.77C3487 2146.69 3467.6 2166.09 3443.68 2166.09H3249.16C3225.23 2166.09 3205.84 2146.69 3205.84 2122.77C3205.84 2098.85 3225.23 2079.45 3249.16 2079.45H3397.36ZM1998.64 2076.45V2079.45H2001.64H2149.84C2173.77 2079.45 2193.16 2098.85 2193.16 2122.77C2193.16 2146.69 2173.77 2166.09 2149.84 2166.09H1955.32C1931.4 2166.09 1912 2146.69 1912 2122.77V1928.23C1912 1904.31 1931.4 1884.91 1955.32 1884.91C1979.24 1884.91 1998.64 1904.31 1998.64 1928.23V2076.45ZM3400.36 680.725V677.725H3397.36H3249.16C3225.23 677.725 3205.84 658.329 3205.84 634.406C3205.84 610.483 3225.23 591.088 3249.16 591.088H3443.68C3467.6 591.088 3487 610.483 3487 634.406V828.946C3487 852.87 3467.6 872.265 3443.68 872.265C3419.76 872.265 3400.36 852.87 3400.36 828.946V680.725Z" fill="#0082CA" stroke="white" stroke-width="6"/>
<defs>
<linearGradient id="paint0_linear" x1="1675" y1="2632.69" x2="4082.33" y2="2632.69" gradientUnits="userSpaceOnUse">
<stop stop-color="#0082CA"/>
<stop offset="1" stop-color="#40BFEF"/>
</linearGradient>
</defs>
</svg>
