<svg width="204" height="32" viewBox="0 0 204 32" fill="none" xmlns="http://www.w3.org/2000/svg">
<path opacity="0.1" d="M24.4226 7.79347C28.9234 13.8946 22.6892 15.6347 19.7559 13.2779C14.5559 20.1501 14.8448 6.67013 8.25603 14.4452C4.03237 11.601 5.37409 11.9979 8.25606 7.79347C11.138 3.58901 21.4004 3.69663 24.4226 7.79347Z" fill="#40BFEF"/>
<path fill-rule="evenodd" clip-rule="evenodd" d="M15.9997 29.3569C11.421 29.3569 8.88768 26.1204 7.01567 22.9539C6.99834 22.9249 6.49034 21.9932 6.28234 21.5095C5.65034 19.9963 5.33301 18.4038 5.33301 16.7677V11.8793C5.33301 7.58423 8.13834 6.00893 10.121 5.66268C10.5597 4.61733 11.8983 3.03542 15.973 2.9297C19.1277 2.83719 22.1957 3.94201 24.1823 5.86091C25.8077 7.4296 26.6663 9.50313 26.6663 11.8595V16.7479C26.6663 18.3774 26.349 19.9725 25.7223 21.4897C25.4823 22.0407 24.965 22.9539 24.9063 23.057C22.9077 26.3398 20.457 29.3569 15.9997 29.3569ZM16.0263 4.91071C16.1157 4.90939 16.2077 4.90807 16.297 4.90807C18.793 4.90807 21.2583 5.80541 22.7877 7.28159C24.0343 8.48421 24.6663 10.0251 24.6663 11.8595V13.5422C24.6663 13.5422 23.0957 13.526 22.7437 13.5418C22.5917 13.5497 22.445 13.5563 22.089 13.5563C21.1117 13.5563 19.609 11.6467 18.901 10.3555C18.6957 9.98285 18.2677 9.77669 17.8504 9.85334C17.4277 9.92603 17.0984 10.2591 17.0344 10.6793C17.021 10.7613 16.8117 12.2031 17.3224 13.8352C14.241 12.8863 12.921 9.59564 12.8584 9.43573C12.6864 8.98904 12.2184 8.72341 11.7424 8.81328C11.269 8.9005 10.9237 9.31018 10.9237 9.78859C10.9237 12.2824 7.99436 13.6317 7.9677 13.6436L7.33301 13.9387V11.8793C7.33301 7.80625 10.5663 7.58158 10.929 7.56969C11.437 7.55912 11.861 7.12036 11.9063 6.61817C11.957 6.06443 12.8823 4.99397 16.0263 4.91071ZM8.12767 20.7417C7.59967 19.4796 7.33301 18.1421 7.33301 16.7664V16.0972L8.78236 15.4501C8.9077 15.396 11.101 14.4008 12.2424 12.363C13.4637 14.0466 15.637 16.0686 19.0397 16.0686C19.4144 16.0686 19.7584 15.8611 19.929 15.5308C20.057 15.2863 20.0717 15.0035 19.9837 14.751C20.6224 15.2175 21.3357 15.5374 22.089 15.5374C22.4891 15.5374 22.6593 15.5296 22.8316 15.5218L22.8384 15.5215C23.1397 15.5056 24.6663 15.5308 24.6663 15.5308V16.7466C24.6663 18.1184 24.3997 19.4597 23.8783 20.7205C23.6783 21.1817 23.1783 22.0566 23.1783 22.0566C21.181 25.3394 19.2823 27.3746 15.9997 27.3746C12.6383 27.3746 10.6663 25.2059 8.75701 21.9786C8.75701 21.9786 8.30634 21.1579 8.12767 20.7417Z" fill="#40BFEF"/>
<path d="M16.0015 24.6378C14.6897 24.6378 13.4604 24.1169 12.5351 23.1713C12.1876 22.8148 12.1971 22.2481 12.557 21.9021C12.9185 21.5558 13.4917 21.5666 13.8398 21.9224C14.9966 23.1098 17.0036 23.111 18.1656 21.9226C18.5165 21.5666 19.0899 21.5584 19.4487 21.9022C19.8085 22.2467 19.8181 22.8147 19.4706 23.1712C18.5413 24.117 17.3119 24.6378 16.0015 24.6378Z" fill="#40BFEF" stroke="white" stroke-width="0.187223"/>
<path d="M1.875 2.04742H1.78139V2.14103V5.1146C1.78139 5.5753 1.40433 5.95021 0.9375 5.95021C0.470666 5.95021 0.0936116 5.5753 0.0936116 5.1146V1.21181C0.0936116 0.751117 0.470666 0.376204 0.9375 0.376204H4.87475C5.34158 0.376204 5.71864 0.751117 5.71864 1.21181C5.71864 1.67251 5.34158 2.04742 4.87475 2.04742H1.875ZM30.125 30.2352H30.2186V30.1415V27.168C30.2186 26.7073 30.5957 26.3324 31.0625 26.3324C31.5293 26.3324 31.9064 26.7073 31.9064 27.168V31.0708C31.9064 31.5315 31.5293 31.9064 31.0625 31.9064H27.1252C26.6584 31.9064 26.2814 31.5315 26.2814 31.0708C26.2814 30.6101 26.6584 30.2352 27.1252 30.2352H30.125ZM1.78139 30.1415V30.2352H1.875H4.87475C5.34159 30.2352 5.71864 30.6101 5.71864 31.0708C5.71864 31.5315 5.34158 31.9064 4.87475 31.9064H0.9375C0.470666 31.9064 0.0936116 31.5315 0.0936116 31.0708V27.168C0.0936116 26.7073 0.470666 26.3324 0.9375 26.3324C1.40433 26.3324 1.78139 26.7073 1.78139 27.168V30.1415ZM30.2186 2.14103V2.04742H30.125H27.1252C26.6584 2.04742 26.2814 1.67251 26.2814 1.21181C26.2814 0.751117 26.6584 0.376204 27.1252 0.376204H31.0625C31.5293 0.376204 31.9064 0.751117 31.9064 1.21181V5.1146C31.9064 5.5753 31.5293 5.95021 31.0625 5.95021C30.5957 5.95021 30.2186 5.5753 30.2186 5.1146V2.14103Z" fill="#0082CA" stroke="white" stroke-width="0.187223"/>
<path d="M41.1086 15.552C41.1086 13.888 41.4686 12.408 42.1886 11.112C42.9086 9.8 43.9086 8.784 45.1886 8.064C46.4846 7.328 47.9486 6.96 49.5806 6.96C51.5806 6.96 53.2926 7.488 54.7166 8.544C56.1406 9.6 57.0926 11.04 57.5726 12.864H53.0606C52.7246 12.16 52.2446 11.624 51.6206 11.256C51.0126 10.888 50.3166 10.704 49.5326 10.704C48.2686 10.704 47.2446 11.144 46.4606 12.024C45.6766 12.904 45.2846 14.08 45.2846 15.552C45.2846 17.024 45.6766 18.2 46.4606 19.08C47.2446 19.96 48.2686 20.4 49.5326 20.4C50.3166 20.4 51.0126 20.216 51.6206 19.848C52.2446 19.48 52.7246 18.944 53.0606 18.24H57.5726C57.0926 20.064 56.1406 21.504 54.7166 22.56C53.2926 23.6 51.5806 24.12 49.5806 24.12C47.9486 24.12 46.4846 23.76 45.1886 23.04C43.9086 22.304 42.9086 21.288 42.1886 19.992C41.4686 18.696 41.1086 17.216 41.1086 15.552ZM66.6618 24.192C65.3498 24.192 64.1658 23.912 63.1098 23.352C62.0698 22.792 61.2458 21.992 60.6378 20.952C60.0458 19.912 59.7498 18.696 59.7498 17.304C59.7498 15.928 60.0538 14.72 60.6618 13.68C61.2698 12.624 62.1018 11.816 63.1578 11.256C64.2138 10.696 65.3978 10.416 66.7098 10.416C68.0218 10.416 69.2058 10.696 70.2618 11.256C71.3178 11.816 72.1498 12.624 72.7578 13.68C73.3658 14.72 73.6698 15.928 73.6698 17.304C73.6698 18.68 73.3578 19.896 72.7338 20.952C72.1258 21.992 71.2858 22.792 70.2138 23.352C69.1578 23.912 67.9738 24.192 66.6618 24.192ZM66.6618 20.64C67.4458 20.64 68.1098 20.352 68.6538 19.776C69.2138 19.2 69.4938 18.376 69.4938 17.304C69.4938 16.232 69.2218 15.408 68.6778 14.832C68.1498 14.256 67.4938 13.968 66.7098 13.968C65.9098 13.968 65.2458 14.256 64.7178 14.832C64.1898 15.392 63.9258 16.216 63.9258 17.304C63.9258 18.376 64.1818 19.2 64.6938 19.776C65.2218 20.352 65.8778 20.64 66.6618 20.64ZM93.4151 10.464C95.0791 10.464 96.3991 10.968 97.3751 11.976C98.3671 12.984 98.8631 14.384 98.8631 16.176V24H94.7831V16.728C94.7831 15.864 94.5511 15.2 94.0871 14.736C93.6391 14.256 93.0151 14.016 92.2151 14.016C91.4151 14.016 90.7831 14.256 90.3191 14.736C89.8711 15.2 89.6471 15.864 89.6471 16.728V24H85.5671V16.728C85.5671 15.864 85.3351 15.2 84.8711 14.736C84.4231 14.256 83.7991 14.016 82.9991 14.016C82.1991 14.016 81.5671 14.256 81.1031 14.736C80.6551 15.2 80.4311 15.864 80.4311 16.728V24H76.3271V10.608H80.4311V12.288C80.8471 11.728 81.3911 11.288 82.0631 10.968C82.7351 10.632 83.4951 10.464 84.3431 10.464C85.3511 10.464 86.2471 10.68 87.0311 11.112C87.8311 11.544 88.4551 12.16 88.9031 12.96C89.3671 12.224 89.9991 11.624 90.7991 11.16C91.5991 10.696 92.4711 10.464 93.4151 10.464ZM106.317 12.504C106.717 11.88 107.269 11.376 107.973 10.992C108.677 10.608 109.501 10.416 110.445 10.416C111.549 10.416 112.549 10.696 113.445 11.256C114.341 11.816 115.045 12.616 115.557 13.656C116.085 14.696 116.349 15.904 116.349 17.28C116.349 18.656 116.085 19.872 115.557 20.928C115.045 21.968 114.341 22.776 113.445 23.352C112.549 23.912 111.549 24.192 110.445 24.192C109.517 24.192 108.693 24 107.973 23.616C107.269 23.232 106.717 22.736 106.317 22.128V30.384H102.213V10.608H106.317V12.504ZM112.173 17.28C112.173 16.256 111.885 15.456 111.309 14.88C110.749 14.288 110.053 13.992 109.221 13.992C108.405 13.992 107.709 14.288 107.133 14.88C106.573 15.472 106.293 16.28 106.293 17.304C106.293 18.328 106.573 19.136 107.133 19.728C107.709 20.32 108.405 20.616 109.221 20.616C110.037 20.616 110.733 20.32 111.309 19.728C111.885 19.12 112.173 18.304 112.173 17.28ZM123.086 12.84C123.566 12.104 124.166 11.528 124.886 11.112C125.606 10.68 126.406 10.464 127.286 10.464V14.808H126.158C125.134 14.808 124.366 15.032 123.854 15.48C123.342 15.912 123.086 16.68 123.086 17.784V24H118.982V10.608H123.086V12.84ZM142.352 17.088C142.352 17.472 142.328 17.872 142.28 18.288H132.992C133.056 19.12 133.32 19.76 133.784 20.208C134.264 20.64 134.848 20.856 135.536 20.856C136.56 20.856 137.272 20.424 137.672 19.56H142.04C141.816 20.44 141.408 21.232 140.816 21.936C140.24 22.64 139.512 23.192 138.632 23.592C137.752 23.992 136.768 24.192 135.68 24.192C134.368 24.192 133.2 23.912 132.176 23.352C131.152 22.792 130.352 21.992 129.776 20.952C129.2 19.912 128.912 18.696 128.912 17.304C128.912 15.912 129.192 14.696 129.752 13.656C130.328 12.616 131.128 11.816 132.152 11.256C133.176 10.696 134.352 10.416 135.68 10.416C136.976 10.416 138.128 10.688 139.136 11.232C140.144 11.776 140.928 12.552 141.488 13.56C142.064 14.568 142.352 15.744 142.352 17.088ZM138.152 16.008C138.152 15.304 137.912 14.744 137.432 14.328C136.952 13.912 136.352 13.704 135.632 13.704C134.944 13.704 134.36 13.904 133.88 14.304C133.416 14.704 133.128 15.272 133.016 16.008H138.152ZM155.965 7.152V10.44H149.101V13.992H154.237V17.184H149.101V24H144.997V7.152H155.965ZM157.786 17.28C157.786 15.904 158.042 14.696 158.554 13.656C159.082 12.616 159.794 11.816 160.69 11.256C161.586 10.696 162.586 10.416 163.69 10.416C164.634 10.416 165.458 10.608 166.162 10.992C166.882 11.376 167.434 11.88 167.818 12.504V10.608H171.922V24H167.818V22.104C167.418 22.728 166.858 23.232 166.138 23.616C165.434 24 164.61 24.192 163.666 24.192C162.578 24.192 161.586 23.912 160.69 23.352C159.794 22.776 159.082 21.968 158.554 20.928C158.042 19.872 157.786 18.656 157.786 17.28ZM167.818 17.304C167.818 16.28 167.53 15.472 166.954 14.88C166.394 14.288 165.706 13.992 164.89 13.992C164.074 13.992 163.378 14.288 162.802 14.88C162.242 15.456 161.962 16.256 161.962 17.28C161.962 18.304 162.242 19.12 162.802 19.728C163.378 20.32 164.074 20.616 164.89 20.616C165.706 20.616 166.394 20.32 166.954 19.728C167.53 19.136 167.818 18.328 167.818 17.304ZM174.555 17.304C174.555 15.912 174.835 14.696 175.395 13.656C175.971 12.616 176.763 11.816 177.771 11.256C178.795 10.696 179.963 10.416 181.275 10.416C182.955 10.416 184.355 10.856 185.475 11.736C186.611 12.616 187.355 13.856 187.707 15.456H183.339C182.971 14.432 182.259 13.92 181.203 13.92C180.451 13.92 179.851 14.216 179.403 14.808C178.955 15.384 178.731 16.216 178.731 17.304C178.731 18.392 178.955 19.232 179.403 19.824C179.851 20.4 180.451 20.688 181.203 20.688C182.259 20.688 182.971 20.176 183.339 19.152H187.707C187.355 20.72 186.611 21.952 185.475 22.848C184.339 23.744 182.939 24.192 181.275 24.192C179.963 24.192 178.795 23.912 177.771 23.352C176.763 22.792 175.971 21.992 175.395 20.952C174.835 19.912 174.555 18.696 174.555 17.304ZM203.006 17.088C203.006 17.472 202.982 17.872 202.934 18.288H193.646C193.71 19.12 193.974 19.76 194.438 20.208C194.918 20.64 195.502 20.856 196.19 20.856C197.214 20.856 197.926 20.424 198.326 19.56H202.694C202.47 20.44 202.062 21.232 201.47 21.936C200.894 22.64 200.166 23.192 199.286 23.592C198.406 23.992 197.422 24.192 196.334 24.192C195.022 24.192 193.854 23.912 192.83 23.352C191.806 22.792 191.006 21.992 190.43 20.952C189.854 19.912 189.566 18.696 189.566 17.304C189.566 15.912 189.846 14.696 190.406 13.656C190.982 12.616 191.782 11.816 192.806 11.256C193.83 10.696 195.006 10.416 196.334 10.416C197.63 10.416 198.782 10.688 199.79 11.232C200.798 11.776 201.582 12.552 202.142 13.56C202.718 14.568 203.006 15.744 203.006 17.088ZM198.806 16.008C198.806 15.304 198.566 14.744 198.086 14.328C197.606 13.912 197.006 13.704 196.286 13.704C195.598 13.704 195.014 13.904 194.534 14.304C194.07 14.704 193.782 15.272 193.67 16.008H198.806Z" fill="url(#paint0_linear)"/>
<defs>
<linearGradient id="paint0_linear" x1="40" y1="16.0153" x2="232.774" y2="16.0153" gradientUnits="userSpaceOnUse">
<stop stop-color="#0082CA"/>
<stop offset="1" stop-color="#40BFEF"/>
</linearGradient>
</defs>
</svg>
