<svg width="5398" height="3394" viewBox="0 0 5398 3394" fill="none" xmlns="http://www.w3.org/2000/svg">
<rect width="5398" height="3394" fill="white"/>
<rect width="5398" height="3394" fill="white"/>
<path d="M2566.16 1578.95C2595.41 1578.95 2619.57 1586.64 2638.64 1602.02C2657.92 1617.41 2670.38 1638.21 2676.01 1664.42H2617.19C2612.86 1653.81 2606.14 1645.47 2597.04 1639.4C2588.16 1633.33 2577.54 1630.3 2565.19 1630.3C2548.94 1630.3 2535.83 1636.26 2525.86 1648.17C2515.9 1660.09 2510.91 1676.02 2510.91 1695.95C2510.91 1715.88 2515.9 1731.81 2525.86 1743.72C2535.83 1755.42 2548.94 1761.27 2565.19 1761.27C2577.54 1761.27 2588.16 1758.24 2597.04 1752.17C2606.14 1746.11 2612.86 1737.87 2617.19 1727.48H2676.01C2670.38 1753.47 2657.92 1774.27 2638.64 1789.87C2619.57 1805.26 2595.41 1812.95 2566.16 1812.95C2543.85 1812.95 2524.24 1808.07 2507.34 1798.32C2490.44 1788.36 2477.33 1774.49 2468.01 1756.72C2458.91 1738.96 2454.36 1718.7 2454.36 1695.95C2454.36 1673.2 2458.91 1652.94 2468.01 1635.17C2477.33 1617.41 2490.44 1603.65 2507.34 1593.9C2524.24 1583.93 2543.85 1578.95 2566.16 1578.95ZM2798.49 1627.38C2816.47 1627.38 2832.5 1631.17 2846.59 1638.75C2860.89 1646.12 2872.04 1656.84 2880.06 1670.92C2888.29 1685.01 2892.41 1701.47 2892.41 1720.32C2892.41 1739.17 2888.29 1755.64 2880.06 1769.72C2872.04 1783.81 2860.89 1794.64 2846.59 1802.22C2832.5 1809.59 2816.47 1813.28 2798.49 1813.28C2780.5 1813.28 2764.36 1809.59 2750.06 1802.22C2735.76 1794.64 2724.49 1783.81 2716.26 1769.72C2708.24 1755.64 2704.24 1739.17 2704.24 1720.32C2704.24 1701.47 2708.24 1685.01 2716.26 1670.92C2724.49 1656.84 2735.76 1646.12 2750.06 1638.75C2764.36 1631.17 2780.5 1627.38 2798.49 1627.38ZM2798.49 1675.47C2787.87 1675.47 2778.88 1679.37 2771.51 1687.17C2764.36 1694.76 2760.79 1705.81 2760.79 1720.32C2760.79 1734.84 2764.36 1745.89 2771.51 1753.47C2778.88 1761.06 2787.87 1764.85 2798.49 1764.85C2809.1 1764.85 2817.99 1761.06 2825.14 1753.47C2832.29 1745.89 2835.86 1734.84 2835.86 1720.32C2835.86 1705.81 2832.29 1694.76 2825.14 1687.17C2817.99 1679.37 2809.1 1675.47 2798.49 1675.47ZM3162.7 1627.7C3185.02 1627.7 3202.57 1634.63 3215.35 1648.5C3228.14 1662.15 3234.53 1681.22 3234.53 1705.7V1811H3179.28V1712.2C3179.28 1700.72 3176.14 1691.83 3169.85 1685.55C3163.79 1679.05 3155.45 1675.8 3144.83 1675.8C3133.78 1675.8 3125 1679.27 3118.5 1686.2C3112.22 1692.92 3109.08 1702.45 3109.08 1714.8V1811H3053.5V1712.2C3053.5 1700.72 3050.47 1691.83 3044.4 1685.55C3038.34 1679.05 3030 1675.8 3019.38 1675.8C3008.33 1675.8 2999.55 1679.16 2993.05 1685.87C2986.55 1692.59 2983.3 1702.23 2983.3 1714.8V1811H2927.73V1629.65H2983.3V1660.52C2988.07 1650.34 2995.33 1642.32 3005.08 1636.47C3015.05 1630.62 3026.64 1627.7 3039.85 1627.7C3053.72 1627.7 3065.96 1630.95 3076.58 1637.45C3087.2 1643.73 3095.21 1652.83 3100.63 1664.75C3106.91 1653.48 3115.47 1644.49 3126.3 1637.77C3137.35 1631.06 3149.49 1627.7 3162.7 1627.7ZM3391.05 1627.38C3406 1627.38 3419.33 1631.17 3431.03 1638.75C3442.95 1646.12 3452.26 1656.84 3458.98 1670.92C3465.91 1684.79 3469.38 1701.26 3469.38 1720.32C3469.38 1739.17 3465.91 1755.64 3458.98 1769.72C3452.26 1783.81 3442.95 1794.64 3431.03 1802.22C3419.33 1809.59 3406 1813.28 3391.05 1813.28C3377.19 1813.28 3365.27 1810.13 3355.3 1803.85C3345.34 1797.57 3338.08 1789.01 3333.53 1778.17V1897.45H3277.95V1629.65H3333.53V1662.47C3338.08 1651.64 3345.34 1643.08 3355.3 1636.8C3365.27 1630.52 3377.19 1627.38 3391.05 1627.38ZM3373.18 1676.12C3361.48 1676.12 3351.84 1680.13 3344.25 1688.15C3336.89 1695.95 3333.2 1706.67 3333.2 1720.32C3333.2 1733.76 3336.89 1744.48 3344.25 1752.5C3351.84 1760.52 3361.48 1764.52 3373.18 1764.52C3385.1 1764.52 3394.63 1760.62 3401.78 1752.82C3409.15 1745.02 3412.83 1734.19 3412.83 1720.32C3412.83 1706.46 3409.15 1695.62 3401.78 1687.82C3394.63 1680.02 3385.1 1676.12 3373.18 1676.12ZM3560.29 1663.77C3567.23 1652.72 3576.11 1643.95 3586.94 1637.45C3597.99 1630.95 3609.91 1627.7 3622.69 1627.7V1687.17H3606.77C3592.03 1687.17 3580.55 1690.32 3572.32 1696.6C3564.3 1702.88 3560.29 1713.5 3560.29 1728.45V1811H3504.72V1629.65H3560.29V1663.77ZM3824.7 1715.45C3824.7 1720 3824.16 1724.98 3823.08 1730.4H3697.3C3697.95 1744.05 3701.42 1753.91 3707.7 1759.97C3713.99 1765.82 3722 1768.75 3731.75 1768.75C3739.99 1768.75 3746.81 1766.69 3752.23 1762.57C3757.64 1758.46 3761.22 1753.15 3762.95 1746.65H3821.78C3819.39 1759.43 3814.19 1770.92 3806.18 1781.1C3798.16 1791.07 3787.98 1798.97 3775.63 1804.82C3763.28 1810.46 3749.52 1813.28 3734.35 1813.28C3716.59 1813.28 3700.77 1809.59 3686.9 1802.22C3673.25 1794.64 3662.53 1783.81 3654.73 1769.72C3646.93 1755.64 3643.03 1739.17 3643.03 1720.32C3643.03 1701.26 3646.82 1684.79 3654.4 1670.92C3662.2 1656.84 3673.04 1646.12 3686.9 1638.75C3700.77 1631.17 3716.59 1627.38 3734.35 1627.38C3752.34 1627.38 3768.15 1631.06 3781.8 1638.42C3795.45 1645.79 3805.96 1656.19 3813.33 1669.62C3820.91 1682.84 3824.7 1698.12 3824.7 1715.45ZM3768.48 1707C3768.69 1695.08 3765.44 1686.2 3758.73 1680.35C3752.23 1674.28 3744.1 1671.25 3734.35 1671.25C3724.17 1671.25 3715.72 1674.28 3709 1680.35C3702.29 1686.42 3698.49 1695.3 3697.63 1707H3768.48ZM4010 1581.22V1625.42H3915.75V1675.8H3988.55V1718.05H3915.75V1811H3860.17V1581.22H4010ZM4113.94 1627.38C4127.81 1627.38 4139.73 1630.52 4149.69 1636.8C4159.66 1643.08 4167.03 1651.64 4171.79 1662.47V1629.65H4227.04V1811H4171.79V1778.17C4167.03 1789.01 4159.66 1797.57 4149.69 1803.85C4139.73 1810.13 4127.81 1813.28 4113.94 1813.28C4098.99 1813.28 4085.56 1809.59 4073.64 1802.22C4061.94 1794.64 4052.63 1783.81 4045.69 1769.72C4038.98 1755.64 4035.62 1739.17 4035.62 1720.32C4035.62 1701.26 4038.98 1684.79 4045.69 1670.92C4052.63 1656.84 4061.94 1646.12 4073.64 1638.75C4085.56 1631.17 4098.99 1627.38 4113.94 1627.38ZM4131.82 1676.12C4119.9 1676.12 4110.26 1680.02 4102.89 1687.82C4095.74 1695.62 4092.17 1706.46 4092.17 1720.32C4092.17 1734.19 4095.74 1745.02 4102.89 1752.82C4110.26 1760.62 4119.9 1764.52 4131.82 1764.52C4143.52 1764.52 4153.05 1760.52 4160.42 1752.5C4168 1744.48 4171.79 1733.76 4171.79 1720.32C4171.79 1706.67 4168 1695.95 4160.42 1688.15C4153.05 1680.13 4143.52 1676.12 4131.82 1676.12ZM4353.71 1627.38C4377.11 1627.38 4396.72 1633.88 4412.53 1646.88C4428.35 1659.66 4438.32 1677.32 4442.43 1699.85H4383.61C4381.87 1692.05 4378.3 1685.98 4372.88 1681.65C4367.47 1677.32 4360.64 1675.15 4352.41 1675.15C4342.66 1675.15 4334.64 1679.05 4328.36 1686.85C4322.07 1694.43 4318.93 1705.59 4318.93 1720.32C4318.93 1735.06 4322.07 1746.32 4328.36 1754.12C4334.64 1761.71 4342.66 1765.5 4352.41 1765.5C4360.64 1765.5 4367.47 1763.33 4372.88 1759C4378.3 1754.67 4381.87 1748.6 4383.61 1740.8H4442.43C4438.32 1763.33 4428.35 1781.1 4412.53 1794.1C4396.72 1806.88 4377.11 1813.28 4353.71 1813.28C4335.94 1813.28 4320.12 1809.59 4306.26 1802.22C4292.61 1794.64 4281.88 1783.81 4274.08 1769.72C4266.28 1755.64 4262.38 1739.17 4262.38 1720.32C4262.38 1701.26 4266.17 1684.79 4273.76 1670.92C4281.56 1656.84 4292.39 1646.12 4306.26 1638.75C4320.12 1631.17 4335.94 1627.38 4353.71 1627.38ZM4650.19 1715.45C4650.19 1720 4649.65 1724.98 4648.57 1730.4H4522.79C4523.44 1744.05 4526.91 1753.91 4533.19 1759.97C4539.47 1765.82 4547.49 1768.75 4557.24 1768.75C4565.47 1768.75 4572.3 1766.69 4577.72 1762.57C4583.13 1758.46 4586.71 1753.15 4588.44 1746.65H4647.27C4644.88 1759.43 4639.68 1770.92 4631.67 1781.1C4623.65 1791.07 4613.47 1798.97 4601.12 1804.82C4588.77 1810.46 4575.01 1813.28 4559.84 1813.28C4542.07 1813.28 4526.26 1809.59 4512.39 1802.22C4498.74 1794.64 4488.02 1783.81 4480.22 1769.72C4472.42 1755.64 4468.52 1739.17 4468.52 1720.32C4468.52 1701.26 4472.31 1684.79 4479.89 1670.92C4487.69 1656.84 4498.52 1646.12 4512.39 1638.75C4526.26 1631.17 4542.07 1627.38 4559.84 1627.38C4577.82 1627.38 4593.64 1631.06 4607.29 1638.42C4620.94 1645.79 4631.45 1656.19 4638.82 1669.62C4646.4 1682.84 4650.19 1698.12 4650.19 1715.45ZM4593.97 1707C4594.18 1695.08 4590.93 1686.2 4584.22 1680.35C4577.72 1674.28 4569.59 1671.25 4559.84 1671.25C4549.66 1671.25 4541.21 1674.28 4534.49 1680.35C4527.77 1686.42 4523.98 1695.3 4523.12 1707H4593.97Z" fill="url(#paint0_linear)"/>
<path opacity="0.1" d="M1972.61 1287.48C2194.98 1591.6 1886.97 1678.34 1742.05 1560.86C1485.14 1903.41 1499.41 1231.48 1173.88 1619.05C965.208 1477.27 1031.5 1497.05 1173.88 1287.48C1316.27 1077.9 1823.29 1083.26 1972.61 1287.48Z" fill="#40BFEF"/>
<path fill-rule="evenodd" clip-rule="evenodd" d="M1556.5 2362.34C1330.29 2362.34 1205.12 2201.01 1112.63 2043.17C1111.78 2041.72 1086.68 1995.28 1076.4 1971.17C1045.18 1895.74 1029.5 1816.37 1029.5 1734.81V1491.14C1029.5 1277.05 1168.1 1198.52 1266.06 1181.26C1287.73 1129.16 1353.87 1050.3 1555.18 1045.03C1711.04 1040.42 1862.62 1095.5 1960.77 1191.15C2041.08 1269.34 2083.5 1372.7 2083.5 1490.15V1733.82C2083.5 1815.05 2067.82 1894.56 2036.86 1970.18C2025 1997.65 1999.44 2043.17 1996.54 2048.31C1897.8 2211.94 1776.72 2362.34 1556.5 2362.34ZM1557.82 1143.78C1562.23 1143.72 1566.78 1143.65 1571.19 1143.65C1694.51 1143.65 1816.31 1188.38 1891.87 1261.96C1953.46 1321.91 1984.69 1398.72 1984.69 1490.15V1574.03C1984.69 1574.03 1907.09 1573.22 1889.7 1574.01C1882.19 1574.41 1874.94 1574.74 1857.35 1574.74C1809.07 1574.74 1734.82 1479.55 1699.85 1415.19C1689.7 1396.61 1668.55 1386.33 1647.94 1390.15C1627.05 1393.78 1610.78 1410.38 1607.62 1431.33C1606.96 1435.41 1596.62 1507.28 1621.85 1588.64C1469.61 1541.34 1404.4 1377.31 1401.3 1369.34C1392.8 1347.07 1369.68 1333.83 1346.16 1338.31C1322.78 1342.66 1305.71 1363.08 1305.71 1386.93C1305.71 1511.23 1160.99 1578.49 1159.67 1579.08L1128.31 1593.79V1491.14C1128.31 1288.11 1288.06 1276.91 1305.98 1276.32C1331.08 1275.8 1352.02 1253.92 1354.26 1228.89C1356.77 1201.29 1402.48 1147.93 1557.82 1143.78ZM1167.57 1932.9C1141.49 1869.99 1128.31 1803.32 1128.31 1734.75V1701.39L1199.92 1669.13C1206.11 1666.43 1314.48 1616.83 1370.87 1515.25C1431.21 1599.18 1538.58 1699.96 1706.7 1699.96C1725.21 1699.96 1742.2 1689.62 1750.63 1673.15C1756.96 1660.97 1757.68 1646.87 1753.34 1634.29C1784.89 1657.54 1820.13 1673.48 1857.35 1673.48C1877.12 1673.48 1885.53 1673.1 1894.04 1672.71L1894.37 1672.69C1909.26 1671.9 1984.69 1673.15 1984.69 1673.15V1733.76C1984.69 1802.14 1971.51 1869 1945.76 1931.84C1935.87 1954.83 1911.17 1998.44 1911.17 1998.44C1812.49 2162.08 1718.68 2263.52 1556.5 2263.52C1390.43 2263.52 1293 2155.42 1198.67 1994.56C1198.67 1994.56 1176.4 1953.65 1167.57 1932.9Z" fill="#40BFEF"/>
<path d="M1556.56 2128.77C1491.32 2128.77 1430.17 2102.63 1384.15 2055.18C1366.33 2036.75 1366.83 2007.42 1385.27 1989.53C1403.77 1971.65 1433.1 1972.21 1450.92 1990.58C1507.43 2049.11 1605.56 2049.18 1662.34 1990.59C1680.29 1972.2 1709.62 1971.78 1727.99 1989.53C1746.43 2007.35 1746.93 2036.74 1729.11 2055.18C1682.89 2102.63 1621.74 2128.77 1556.56 2128.77Z" fill="#40BFEF" stroke="white" stroke-width="6"/>
<path d="M858.637 1002.72H855.637V1005.72V1153.95C855.637 1177.87 836.242 1197.26 812.318 1197.26C788.395 1197.26 769 1177.87 769 1153.95V959.405C769 935.482 788.395 916.087 812.318 916.087H1006.84C1030.77 916.087 1050.16 935.482 1050.16 959.405C1050.16 983.329 1030.77 1002.72 1006.84 1002.72H858.637ZM2254.36 2404.45H2257.36V2401.45V2253.23C2257.36 2229.31 2276.76 2209.91 2300.68 2209.91C2324.6 2209.91 2344 2229.31 2344 2253.23V2447.77C2344 2471.69 2324.6 2491.09 2300.68 2491.09H2106.16C2082.23 2491.09 2062.84 2471.69 2062.84 2447.77C2062.84 2423.85 2082.23 2404.45 2106.16 2404.45H2254.36ZM855.637 2401.45V2404.45H858.637H1006.84C1030.77 2404.45 1050.16 2423.85 1050.16 2447.77C1050.16 2471.69 1030.77 2491.09 1006.84 2491.09H812.318C788.395 2491.09 769 2471.69 769 2447.77V2253.23C769 2229.31 788.395 2209.91 812.318 2209.91C836.242 2209.91 855.637 2229.31 855.637 2253.23V2401.45ZM2257.36 1005.72V1002.72H2254.36H2106.16C2082.23 1002.72 2062.84 983.328 2062.84 959.405C2062.84 935.482 2082.23 916.087 2106.16 916.087H2300.68C2324.6 916.087 2344 935.482 2344 959.405V1153.95C2344 1177.87 2324.6 1197.26 2300.68 1197.26C2276.76 1197.26 2257.36 1177.87 2257.36 1153.95V1005.72Z" fill="#0082CA" stroke="white" stroke-width="6"/>
<defs>
<linearGradient id="paint0_linear" x1="2442" y1="1697.21" x2="5049.16" y2="1697.21" gradientUnits="userSpaceOnUse">
<stop stop-color="#0082CA"/>
<stop offset="1" stop-color="#40BFEF"/>
</linearGradient>
</defs>
</svg>
