<svg width="274" height="48" viewBox="0 0 274 48" fill="none" xmlns="http://www.w3.org/2000/svg">
<path opacity="0.1" d="M36.6339 11.6901C43.3851 20.8419 34.0339 23.452 29.6339 19.9168C21.8339 30.225 22.2672 10.0051 12.3841 21.6678C6.04856 17.4014 8.06113 17.9968 12.3841 11.6901C16.707 5.38343 32.1005 5.54485 36.6339 11.6901Z" fill="#40BFEF"/>
<path fill-rule="evenodd" clip-rule="evenodd" d="M24 44.0351C17.132 44.0351 13.332 39.1804 10.524 34.4307C10.498 34.3871 9.736 32.9895 9.424 32.264C8.476 29.9942 8 27.6055 8 25.1514V17.8187C8 11.3761 12.208 9.01315 15.182 8.49378C15.84 6.92575 17.848 4.55289 23.96 4.3943C28.692 4.25554 33.294 5.91278 36.274 8.79113C38.712 11.1442 40 14.2544 40 17.789V25.1216C40 27.5658 39.524 29.9585 38.584 32.2342C38.224 33.0609 37.448 34.4307 37.36 34.5853C34.362 39.5094 30.686 44.0351 24 44.0351ZM24.04 7.36583C24.174 7.36385 24.312 7.36186 24.446 7.36186C28.19 7.36186 31.888 8.70787 34.182 10.9221C36.052 12.7261 37 15.0375 37 17.789V20.3131C37 20.3131 34.644 20.2887 34.116 20.3125C33.888 20.3244 33.668 20.3343 33.134 20.3343C31.668 20.3343 29.414 17.4698 28.352 15.5331C28.044 14.974 27.402 14.6648 26.776 14.7798C26.142 14.8888 25.648 15.3883 25.552 16.0187C25.532 16.1416 25.218 18.3044 25.984 20.7526C21.362 19.3292 19.382 14.3932 19.288 14.1533C19.03 13.4833 18.328 13.0849 17.614 13.2197C16.904 13.3505 16.386 13.965 16.386 14.6826C16.386 18.4233 11.992 20.4473 11.952 20.4651L11 20.9078V17.8187C11 11.7091 15.85 11.3721 16.394 11.3543C17.156 11.3384 17.792 10.6803 17.86 9.92701C17.936 9.09641 19.324 7.49072 24.04 7.36583ZM12.192 31.1122C11.4 29.2191 11 27.213 11 25.1494V24.1456L13.174 23.175C13.362 23.0937 16.652 21.601 18.364 18.5442C20.196 21.0697 23.456 24.1027 28.56 24.1027C29.122 24.1027 29.638 23.7915 29.894 23.2959C30.086 22.9292 30.108 22.5049 29.976 22.1263C30.934 22.8261 32.004 23.3058 33.134 23.3058C33.7342 23.3058 33.9894 23.2942 34.2479 23.2825L34.258 23.282C34.71 23.2582 37 23.2959 37 23.2959V25.1196C37 27.1773 36.6 29.1894 35.818 31.0805C35.518 31.7724 34.768 33.0847 34.768 33.0847C31.772 38.0088 28.924 41.0616 24 41.0616C18.958 41.0616 16 37.8086 13.136 32.9677C13.136 32.9677 12.46 31.7367 12.192 31.1122Z" fill="#40BFEF"/>
<path d="M24.0022 36.9569C22.0345 36.9569 20.1906 36.1755 18.8027 34.7571C18.2814 34.2224 18.2956 33.3723 18.8355 32.8533C19.3777 32.3339 20.2375 32.3501 20.7598 32.8838C22.4949 34.6649 25.5055 34.6667 27.2485 32.884C27.7748 32.35 28.6348 32.3378 29.1731 32.8534C29.7127 33.3703 29.7272 34.2222 29.2058 34.7571C27.8118 36.1756 25.9678 36.9569 24.0022 36.9569Z" fill="#40BFEF" stroke="white" stroke-width="0.280835"/>
<path d="M2.8125 3.07107H2.67208V3.21149V7.67184C2.67208 8.36288 2.1065 8.92525 1.40625 8.92525C0.705998 8.92525 0.140417 8.36288 0.140417 7.67184V1.81766C0.140417 1.12661 0.705998 0.564246 1.40625 0.564246H7.31213C8.01238 0.564246 8.57796 1.12661 8.57796 1.81766C8.57796 2.5087 8.01238 3.07107 7.31213 3.07107H2.8125ZM45.1875 45.3527H45.3279V45.2122V40.752C45.3279 40.0609 45.8935 39.4986 46.5937 39.4986C47.294 39.4986 47.8596 40.0609 47.8596 40.752V46.6061C47.8596 47.2971 47.294 47.8595 46.5937 47.8595H40.6879C39.9876 47.8595 39.422 47.2971 39.422 46.6061C39.422 45.915 39.9876 45.3527 40.6879 45.3527H45.1875ZM2.67208 45.2122V45.3527H2.8125H7.31213C8.01238 45.3527 8.57796 45.915 8.57796 46.6061C8.57796 47.2971 8.01238 47.8595 7.31213 47.8595H1.40625C0.705999 47.8595 0.140417 47.2971 0.140417 46.6061V40.752C0.140417 40.0609 0.705998 39.4986 1.40625 39.4986C2.1065 39.4986 2.67208 40.0609 2.67208 40.752V45.2122ZM45.3279 3.21149V3.07107H45.1875H40.6879C39.9876 3.07107 39.422 2.5087 39.422 1.81766C39.422 1.12661 39.9876 0.564246 40.6879 0.564246H46.5937C47.294 0.564246 47.8596 1.12661 47.8596 1.81766V7.67184C47.8596 8.36288 47.294 8.92525 46.5937 8.92525C45.8935 8.92525 45.3279 8.36288 45.3279 7.67184V3.21149Z" fill="#0082CA" stroke="white" stroke-width="0.280835"/>
<path d="M57.1448 23.736C57.1448 21.5173 57.6248 19.544 58.5848 17.816C59.5448 16.0667 60.8781 14.712 62.5848 13.752C64.3128 12.7707 66.2648 12.28 68.4408 12.28C71.1074 12.28 73.3901 12.984 75.2888 14.392C77.1874 15.8 78.4568 17.72 79.0968 20.152H73.0808C72.6328 19.2133 71.9928 18.4987 71.1608 18.008C70.3501 17.5173 69.4221 17.272 68.3768 17.272C66.6914 17.272 65.3261 17.8587 64.2808 19.032C63.2354 20.2053 62.7128 21.7733 62.7128 23.736C62.7128 25.6987 63.2354 27.2667 64.2808 28.44C65.3261 29.6133 66.6914 30.2 68.3768 30.2C69.4221 30.2 70.3501 29.9547 71.1608 29.464C71.9928 28.9733 72.6328 28.2587 73.0808 27.32H79.0968C78.4568 29.752 77.1874 31.672 75.2888 33.08C73.3901 34.4667 71.1074 35.16 68.4408 35.16C66.2648 35.16 64.3128 34.68 62.5848 33.72C60.8781 32.7387 59.5448 31.384 58.5848 29.656C57.6248 27.928 57.1448 25.9547 57.1448 23.736ZM91.2158 35.256C89.4664 35.256 87.8878 34.8827 86.4798 34.136C85.0931 33.3893 83.9944 32.3227 83.1838 30.936C82.3944 29.5493 81.9998 27.928 81.9998 26.072C81.9998 24.2373 82.4051 22.6267 83.2158 21.24C84.0264 19.832 85.1358 18.7547 86.5438 18.008C87.9518 17.2613 89.5304 16.888 91.2798 16.888C93.0291 16.888 94.6078 17.2613 96.0158 18.008C97.4238 18.7547 98.5331 19.832 99.3438 21.24C100.154 22.6267 100.56 24.2373 100.56 26.072C100.56 27.9067 100.144 29.528 99.3118 30.936C98.5011 32.3227 97.3811 33.3893 95.9518 34.136C94.5438 34.8827 92.9651 35.256 91.2158 35.256ZM91.2158 30.52C92.2611 30.52 93.1464 30.136 93.8718 29.368C94.6184 28.6 94.9918 27.5013 94.9918 26.072C94.9918 24.6427 94.6291 23.544 93.9038 22.776C93.1998 22.008 92.3251 21.624 91.2798 21.624C90.2131 21.624 89.3278 22.008 88.6238 22.776C87.9198 23.5227 87.5678 24.6213 87.5678 26.072C87.5678 27.5013 87.9091 28.6 88.5918 29.368C89.2958 30.136 90.1704 30.52 91.2158 30.52ZM126.887 16.952C129.105 16.952 130.865 17.624 132.167 18.968C133.489 20.312 134.151 22.1787 134.151 24.568V35H128.711V25.304C128.711 24.152 128.401 23.2667 127.783 22.648C127.185 22.008 126.353 21.688 125.287 21.688C124.22 21.688 123.377 22.008 122.759 22.648C122.161 23.2667 121.863 24.152 121.863 25.304V35H116.423V25.304C116.423 24.152 116.113 23.2667 115.495 22.648C114.897 22.008 114.065 21.688 112.999 21.688C111.932 21.688 111.089 22.008 110.471 22.648C109.873 23.2667 109.575 24.152 109.575 25.304V35H104.103V17.144H109.575V19.384C110.129 18.6373 110.855 18.0507 111.751 17.624C112.647 17.176 113.66 16.952 114.791 16.952C116.135 16.952 117.329 17.24 118.375 17.816C119.441 18.392 120.273 19.2133 120.871 20.28C121.489 19.2987 122.332 18.4987 123.399 17.88C124.465 17.2613 125.628 16.952 126.887 16.952ZM144.09 19.672C144.623 18.84 145.359 18.168 146.298 17.656C147.236 17.144 148.335 16.888 149.594 16.888C151.066 16.888 152.399 17.2613 153.594 18.008C154.788 18.7547 155.727 19.8213 156.41 21.208C157.114 22.5947 157.466 24.2053 157.466 26.04C157.466 27.8747 157.114 29.496 156.41 30.904C155.727 32.2907 154.788 33.368 153.594 34.136C152.399 34.8827 151.066 35.256 149.594 35.256C148.356 35.256 147.258 35 146.298 34.488C145.359 33.976 144.623 33.3147 144.09 32.504V43.512H138.618V17.144H144.09V19.672ZM151.898 26.04C151.898 24.6747 151.514 23.608 150.746 22.84C149.999 22.0507 149.071 21.656 147.962 21.656C146.874 21.656 145.946 22.0507 145.178 22.84C144.431 23.6293 144.058 24.7067 144.058 26.072C144.058 27.4373 144.431 28.5147 145.178 29.304C145.946 30.0933 146.874 30.488 147.962 30.488C149.05 30.488 149.978 30.0933 150.746 29.304C151.514 28.4933 151.898 27.4053 151.898 26.04ZM166.449 20.12C167.089 19.1387 167.889 18.3707 168.849 17.816C169.809 17.24 170.875 16.952 172.049 16.952V22.744H170.545C169.179 22.744 168.155 23.0427 167.473 23.64C166.79 24.216 166.449 25.24 166.449 26.712V35H160.977V17.144H166.449V20.12ZM192.136 25.784C192.136 26.296 192.104 26.8293 192.04 27.384H179.656C179.741 28.4933 180.093 29.3467 180.712 29.944C181.352 30.52 182.131 30.808 183.048 30.808C184.413 30.808 185.363 30.232 185.896 29.08H191.72C191.421 30.2533 190.877 31.3093 190.088 32.248C189.32 33.1867 188.349 33.9227 187.176 34.456C186.003 34.9893 184.691 35.256 183.24 35.256C181.491 35.256 179.933 34.8827 178.568 34.136C177.203 33.3893 176.136 32.3227 175.368 30.936C174.6 29.5493 174.216 27.928 174.216 26.072C174.216 24.216 174.589 22.5947 175.336 21.208C176.104 19.8213 177.171 18.7547 178.536 18.008C179.901 17.2613 181.469 16.888 183.24 16.888C184.968 16.888 186.504 17.2507 187.848 17.976C189.192 18.7013 190.237 19.736 190.984 21.08C191.752 22.424 192.136 23.992 192.136 25.784ZM186.536 24.344C186.536 23.4053 186.216 22.6587 185.576 22.104C184.936 21.5493 184.136 21.272 183.176 21.272C182.259 21.272 181.48 21.5387 180.84 22.072C180.221 22.6053 179.837 23.3627 179.688 24.344H186.536ZM210.287 12.536V16.92H201.135V21.656H207.983V25.912H201.135V35H195.663V12.536H210.287ZM212.715 26.04C212.715 24.2053 213.056 22.5947 213.739 21.208C214.443 19.8213 215.392 18.7547 216.587 18.008C217.781 17.2613 219.115 16.888 220.587 16.888C221.845 16.888 222.944 17.144 223.883 17.656C224.843 18.168 225.579 18.84 226.091 19.672V17.144H231.563V35H226.091V32.472C225.557 33.304 224.811 33.976 223.851 34.488C222.912 35 221.813 35.256 220.555 35.256C219.104 35.256 217.781 34.8827 216.587 34.136C215.392 33.368 214.443 32.2907 213.739 30.904C213.056 29.496 212.715 27.8747 212.715 26.04ZM226.091 26.072C226.091 24.7067 225.707 23.6293 224.939 22.84C224.192 22.0507 223.275 21.656 222.187 21.656C221.099 21.656 220.171 22.0507 219.403 22.84C218.656 23.608 218.283 24.6747 218.283 26.04C218.283 27.4053 218.656 28.4933 219.403 29.304C220.171 30.0933 221.099 30.488 222.187 30.488C223.275 30.488 224.192 30.0933 224.939 29.304C225.707 28.5147 226.091 27.4373 226.091 26.072ZM235.073 26.072C235.073 24.216 235.447 22.5947 236.193 21.208C236.961 19.8213 238.017 18.7547 239.361 18.008C240.727 17.2613 242.284 16.888 244.033 16.888C246.273 16.888 248.14 17.4747 249.633 18.648C251.148 19.8213 252.14 21.4747 252.609 23.608H246.785C246.295 22.2427 245.345 21.56 243.937 21.56C242.935 21.56 242.135 21.9547 241.537 22.744C240.94 23.512 240.641 24.6213 240.641 26.072C240.641 27.5227 240.94 28.6427 241.537 29.432C242.135 30.2 242.935 30.584 243.937 30.584C245.345 30.584 246.295 29.9013 246.785 28.536H252.609C252.14 30.6267 251.148 32.2693 249.633 33.464C248.119 34.6587 246.252 35.256 244.033 35.256C242.284 35.256 240.727 34.8827 239.361 34.136C238.017 33.3893 236.961 32.3227 236.193 30.936C235.447 29.5493 235.073 27.928 235.073 26.072ZM273.009 25.784C273.009 26.296 272.977 26.8293 272.913 27.384H260.529C260.614 28.4933 260.966 29.3467 261.585 29.944C262.225 30.52 263.003 30.808 263.921 30.808C265.286 30.808 266.235 30.232 266.769 29.08H272.593C272.294 30.2533 271.75 31.3093 270.961 32.248C270.193 33.1867 269.222 33.9227 268.049 34.456C266.875 34.9893 265.563 35.256 264.113 35.256C262.363 35.256 260.806 34.8827 259.441 34.136C258.075 33.3893 257.009 32.3227 256.241 30.936C255.473 29.5493 255.089 27.928 255.089 26.072C255.089 24.216 255.462 22.5947 256.209 21.208C256.977 19.8213 258.043 18.7547 259.409 18.008C260.774 17.2613 262.342 16.888 264.113 16.888C265.841 16.888 267.377 17.2507 268.721 17.976C270.065 18.7013 271.11 19.736 271.857 21.08C272.625 22.424 273.009 23.992 273.009 25.784ZM267.409 24.344C267.409 23.4053 267.089 22.6587 266.449 22.104C265.809 21.5493 265.009 21.272 264.049 21.272C263.131 21.272 262.353 21.5387 261.713 22.072C261.094 22.6053 260.71 23.3627 260.561 24.344H267.409Z" fill="url(#paint0_linear)"/>
<defs>
<linearGradient id="paint0_linear" x1="56" y1="24.0204" x2="312.249" y2="24.0204" gradientUnits="userSpaceOnUse">
<stop stop-color="#0082CA"/>
<stop offset="1" stop-color="#40BFEF"/>
</linearGradient>
</defs>
</svg>
