<svg width="1521" height="1521" viewBox="0 0 1521 1521" fill="none" xmlns="http://www.w3.org/2000/svg">
<path d="M0 456.3C0 296.58 0 216.72 31.0836 155.715C58.4255 102.054 102.054 58.4255 155.715 31.0836C216.72 0 296.58 0 456.3 0H1064.7C1224.42 0 1304.28 0 1365.28 31.0836C1418.95 58.4255 1462.57 102.054 1489.92 155.715C1521 216.72 1521 296.58 1521 456.3V1064.7C1521 1224.42 1521 1304.28 1489.92 1365.28C1462.57 1418.95 1418.95 1462.57 1365.28 1489.92C1304.28 1521 1224.42 1521 1064.7 1521H456.3C296.58 1521 216.72 1521 155.715 1489.92C102.054 1462.57 58.4255 1418.95 31.0836 1365.28C0 1304.28 0 1224.42 0 1064.7V456.3Z" fill="white"/>
<path opacity="0.1" d="M1041.97 479.027C1192.39 684.747 984.046 743.42 886.012 663.952C712.226 895.669 721.881 441.15 501.682 703.313C360.525 607.41 405.366 620.793 501.683 479.027C597.999 337.26 940.97 340.888 1041.97 479.027Z" fill="#40BFEF"/>
<path fill-rule="evenodd" clip-rule="evenodd" d="M760.5 1206.11C607.479 1206.11 522.814 1096.98 460.251 990.21C459.671 989.229 442.694 957.814 435.742 941.505C414.621 890.483 404.015 836.788 404.015 781.622V616.792C404.015 471.971 497.771 418.854 564.032 407.18C578.693 371.932 623.431 318.593 759.609 315.028C865.039 311.909 967.573 349.162 1033.97 413.864C1088.29 466.757 1116.98 536.672 1116.98 616.124V780.953C1116.98 835.896 1106.38 889.681 1085.44 940.837C1077.41 959.418 1060.12 990.21 1058.16 993.685C991.368 1104.37 909.466 1206.11 760.5 1206.11ZM761.391 381.825C764.377 381.78 767.451 381.735 770.437 381.735C853.854 381.735 936.247 411.992 987.358 461.766C1029.02 502.316 1050.14 554.274 1050.14 616.124V672.863C1050.14 672.863 997.652 672.315 985.888 672.85C980.808 673.117 975.906 673.34 964.009 673.34C931.346 673.34 881.126 608.95 857.464 565.414C850.602 552.848 836.298 545.897 822.351 548.481C808.225 550.932 797.218 562.161 795.08 576.331C794.634 579.094 787.638 627.71 804.705 682.742C701.725 650.748 657.61 539.792 655.516 534.4C649.768 519.338 634.127 510.382 618.219 513.412C602.4 516.353 590.859 530.167 590.859 546.298C590.859 630.383 492.959 675.88 492.068 676.281L470.856 686.231V616.792C470.856 479.457 578.915 471.881 591.036 471.48C608.014 471.124 622.184 456.33 623.699 439.397C625.392 420.726 656.317 384.632 761.391 381.825ZM497.414 915.615C479.768 873.06 470.856 827.965 470.856 781.577V759.013L519.294 737.195C523.483 735.368 596.785 701.814 634.929 633.101C675.746 689.872 748.38 758.049 862.099 758.049C874.62 758.049 886.117 751.053 891.82 739.913C896.098 731.669 896.588 722.133 893.647 713.622C914.992 729.352 938.832 740.136 964.009 740.136C977.38 740.136 983.067 739.875 988.826 739.612L989.052 739.601C999.122 739.067 1050.14 739.913 1050.14 739.913V780.909C1050.14 827.163 1041.23 872.392 1023.81 914.902C1017.12 930.454 1000.41 959.953 1000.41 959.953C933.662 1070.64 870.208 1139.26 760.5 1139.26C648.163 1139.26 582.258 1066.14 518.447 957.324C518.447 957.324 503.385 929.652 497.414 915.615Z" fill="#40BFEF"/>
<path d="M760.544 1047.14C716.676 1047.14 675.562 1029.57 644.613 997.658C632.936 985.572 633.256 966.35 645.347 954.622C657.478 942.899 676.7 943.264 688.384 955.311C726.995 995.297 794.001 995.338 832.787 955.317C844.561 943.262 863.79 942.988 875.832 954.624C887.918 966.304 888.244 985.569 876.564 997.657C845.479 1029.57 804.364 1047.14 760.544 1047.14Z" fill="#40BFEF" stroke="white" stroke-width="6"/>
<path fill-rule="evenodd" clip-rule="evenodd" d="M388.69 282.437H282.437V388.7C282.437 402.69 271.095 414.032 257.105 414.032C243.115 414.032 231.773 402.69 231.773 388.7V257.105C231.773 243.115 243.115 231.773 257.105 231.773H388.69C402.679 231.773 414.021 243.115 414.021 257.105C414.021 271.095 402.679 282.437 388.69 282.437ZM1132.31 1238.56H1238.56V1132.3C1238.56 1118.31 1249.91 1106.97 1263.89 1106.97C1277.88 1106.97 1289.23 1118.31 1289.23 1132.3V1263.89C1289.23 1277.88 1277.88 1289.23 1263.89 1289.23H1132.31C1118.32 1289.23 1106.98 1277.88 1106.98 1263.89C1106.98 1249.91 1118.32 1238.56 1132.31 1238.56ZM282.437 1132.3V1238.56H388.69C402.679 1238.56 414.021 1249.91 414.021 1263.89C414.021 1277.88 402.679 1289.23 388.69 1289.23H257.105C243.115 1289.23 231.773 1277.88 231.773 1263.89V1132.3C231.773 1118.31 243.115 1106.97 257.105 1106.97C271.095 1106.97 282.437 1118.31 282.437 1132.3ZM1238.56 388.7V282.437H1132.31C1118.32 282.437 1106.98 271.095 1106.98 257.105C1106.98 243.115 1118.32 231.773 1132.31 231.773H1263.89C1277.88 231.773 1289.23 243.115 1289.23 257.105V388.7C1289.23 402.69 1277.88 414.032 1263.89 414.032C1249.91 414.032 1238.56 402.69 1238.56 388.7Z" fill="#0082CA"/>
</svg>
