<svg width="32" height="32" viewBox="0 0 32 32" fill="none" xmlns="http://www.w3.org/2000/svg">
<rect width="32" height="32" fill="#E5E5E5"/>
<rect width="1440" height="720" transform="translate(-130 -16)" fill="white"/>
<rect width="1440" height="720" transform="translate(-130 -16)" fill="#225FB2" fill-opacity="0.05"/>
<rect x="-130" y="-16" width="1440" height="64" fill="white"/>
<path opacity="0.1" d="M24.4226 7.7935C28.9234 13.8947 22.6892 15.6348 19.7559 13.278C14.5559 20.1501 14.8448 6.67016 8.25603 14.4453C4.03237 11.6011 5.37409 11.9979 8.25606 7.7935C11.138 3.58904 21.4004 3.69666 24.4226 7.7935Z" fill="#40BFEF"/>
<path fill-rule="evenodd" clip-rule="evenodd" d="M15.9997 29.3569C11.421 29.3569 8.88768 26.1204 7.01567 22.9539C6.99834 22.9249 6.49034 21.9932 6.28234 21.5095C5.65034 19.9963 5.33301 18.4038 5.33301 16.7677V11.8793C5.33301 7.58423 8.13834 6.00893 10.121 5.66268C10.5597 4.61733 11.8983 3.03542 15.973 2.9297C19.1277 2.83719 22.1957 3.94201 24.1823 5.86091C25.8077 7.4296 26.6663 9.50313 26.6663 11.8595V16.7479C26.6663 18.3774 26.349 19.9725 25.7223 21.4897C25.4823 22.0407 24.965 22.9539 24.9063 23.057C22.9077 26.3398 20.457 29.3569 15.9997 29.3569ZM16.0263 4.91071C16.1157 4.90939 16.2077 4.90807 16.297 4.90807C18.793 4.90807 21.2583 5.80541 22.7877 7.28159C24.0343 8.48421 24.6663 10.0251 24.6663 11.8595V13.5422C24.6663 13.5422 23.0957 13.526 22.7437 13.5418C22.5917 13.5497 22.445 13.5563 22.089 13.5563C21.1117 13.5563 19.609 11.6467 18.901 10.3555C18.6957 9.98285 18.2677 9.77669 17.8504 9.85334C17.4277 9.92603 17.0984 10.2591 17.0344 10.6793C17.021 10.7613 16.8117 12.2031 17.3224 13.8352C14.241 12.8863 12.921 9.59564 12.8584 9.43573C12.6864 8.98904 12.2184 8.72341 11.7424 8.81328C11.269 8.9005 10.9237 9.31018 10.9237 9.78859C10.9237 12.2824 7.99436 13.6317 7.9677 13.6436L7.33301 13.9387V11.8793C7.33301 7.80625 10.5663 7.58158 10.929 7.56969C11.437 7.55912 11.861 7.12036 11.9063 6.61817C11.957 6.06443 12.8823 4.99397 16.0263 4.91071ZM8.12767 20.7417C7.59967 19.4796 7.33301 18.1421 7.33301 16.7664V16.0972L8.78236 15.4501C8.9077 15.396 11.101 14.4008 12.2424 12.363C13.4637 14.0466 15.637 16.0686 19.0397 16.0686C19.4144 16.0686 19.7584 15.8611 19.929 15.5308C20.057 15.2863 20.0717 15.0035 19.9837 14.751C20.6224 15.2175 21.3357 15.5374 22.089 15.5374C22.4891 15.5374 22.6593 15.5296 22.8316 15.5218L22.8384 15.5215C23.1397 15.5056 24.6663 15.5308 24.6663 15.5308V16.7466C24.6663 18.1184 24.3997 19.4597 23.8783 20.7205C23.6783 21.1817 23.1783 22.0566 23.1783 22.0566C21.181 25.3394 19.2823 27.3746 15.9997 27.3746C12.6383 27.3746 10.6663 25.2059 8.75701 21.9786C8.75701 21.9786 8.30634 21.1579 8.12767 20.7417Z" fill="#40BFEF"/>
<mask id="path-4-inside-1" fill="white">
<path d="M16.0015 24.7314C14.6642 24.7314 13.4108 24.2002 12.4682 23.2367C12.0842 22.8429 12.0948 22.2165 12.4922 21.8346C12.8908 21.4526 13.5228 21.4645 13.9068 21.857C15.0268 23.0068 16.9735 23.0081 18.0988 21.857C18.4855 21.4645 19.1175 21.4553 19.5135 21.8346C19.9108 22.2152 19.9215 22.8429 19.5375 23.2367C18.5908 24.2002 17.3375 24.7314 16.0015 24.7314Z"/>
</mask>
<path d="M16.0015 24.7314C14.6642 24.7314 13.4108 24.2002 12.4682 23.2367C12.0842 22.8429 12.0948 22.2165 12.4922 21.8346C12.8908 21.4526 13.5228 21.4645 13.9068 21.857C15.0268 23.0068 16.9735 23.0081 18.0988 21.857C18.4855 21.4645 19.1175 21.4553 19.5135 21.8346C19.9108 22.2152 19.9215 22.8429 19.5375 23.2367C18.5908 24.2002 17.3375 24.7314 16.0015 24.7314Z" fill="#40BFEF" stroke="white" stroke-width="0.374447" mask="url(#path-4-inside-1)"/>
<mask id="path-5-inside-2" fill="white">
<path fill-rule="evenodd" clip-rule="evenodd" d="M1.875 5.11462C1.875 5.62779 1.45525 6.04384 0.9375 6.04384C0.41975 6.04384 0 5.62779 0 5.11462V1.21183C0 0.698651 0.41975 0.282608 0.9375 0.282608H4.87475C5.3925 0.282608 5.81225 0.698651 5.81225 1.21183C5.81225 1.72501 5.3925 2.14105 4.87475 2.14105H1.875V5.11462ZM30.125 27.1681C30.125 26.6549 30.5448 26.2388 31.0625 26.2388C31.5802 26.2388 32 26.6549 32 27.1681V31.0708C32 31.584 31.5802 32 31.0625 32H27.1252C26.6075 32 26.1877 31.584 26.1877 31.0708C26.1877 30.5576 26.6075 30.1416 27.1252 30.1416H30.125V27.1681ZM0 27.1681C0 26.6549 0.41975 26.2388 0.9375 26.2388C1.45525 26.2388 1.875 26.6549 1.875 27.1681V30.1416H4.87475C5.3925 30.1416 5.81225 30.5576 5.81225 31.0708C5.81225 31.584 5.3925 32 4.87475 32H0.9375C0.41975 32 0 31.584 0 31.0708V27.1681ZM32 5.11462C32 5.62779 31.5802 6.04384 31.0625 6.04384C30.5448 6.04384 30.125 5.62779 30.125 5.11462V2.14105H27.1252C26.6075 2.14105 26.1877 1.72501 26.1877 1.21183C26.1877 0.698651 26.6075 0.282608 27.1252 0.282608H31.0625C31.5802 0.282608 32 0.698651 32 1.21183V5.11462Z"/>
</mask>
<path fill-rule="evenodd" clip-rule="evenodd" d="M1.875 5.11462C1.875 5.62779 1.45525 6.04384 0.9375 6.04384C0.41975 6.04384 0 5.62779 0 5.11462V1.21183C0 0.698651 0.41975 0.282608 0.9375 0.282608H4.87475C5.3925 0.282608 5.81225 0.698651 5.81225 1.21183C5.81225 1.72501 5.3925 2.14105 4.87475 2.14105H1.875V5.11462ZM30.125 27.1681C30.125 26.6549 30.5448 26.2388 31.0625 26.2388C31.5802 26.2388 32 26.6549 32 27.1681V31.0708C32 31.584 31.5802 32 31.0625 32H27.1252C26.6075 32 26.1877 31.584 26.1877 31.0708C26.1877 30.5576 26.6075 30.1416 27.1252 30.1416H30.125V27.1681ZM0 27.1681C0 26.6549 0.41975 26.2388 0.9375 26.2388C1.45525 26.2388 1.875 26.6549 1.875 27.1681V30.1416H4.87475C5.3925 30.1416 5.81225 30.5576 5.81225 31.0708C5.81225 31.584 5.3925 32 4.87475 32H0.9375C0.41975 32 0 31.584 0 31.0708V27.1681ZM32 5.11462C32 5.62779 31.5802 6.04384 31.0625 6.04384C30.5448 6.04384 30.125 5.62779 30.125 5.11462V2.14105H27.1252C26.6075 2.14105 26.1877 1.72501 26.1877 1.21183C26.1877 0.698651 26.6075 0.282608 27.1252 0.282608H31.0625C31.5802 0.282608 32 0.698651 32 1.21183V5.11462Z" fill="#0082CA" stroke="white" stroke-width="0.374447" mask="url(#path-5-inside-2)"/>
</svg>
