<?xml version="1.0" encoding="UTF-8" standalone="no"?>
<svg
   xmlns:dc="http://purl.org/dc/elements/1.1/"
   xmlns:cc="http://creativecommons.org/ns#"
   xmlns:rdf="http://www.w3.org/1999/02/22-rdf-syntax-ns#"
   xmlns:svg="http://www.w3.org/2000/svg"
   xmlns="http://www.w3.org/2000/svg"
   xmlns:sodipodi="http://sodipodi.sourceforge.net/DTD/sodipodi-0.dtd"
   xmlns:inkscape="http://www.inkscape.org/namespaces/inkscape"
   width="251.68285"
   height="40.001373"
   viewBox="0 0 12584.142 2000.0686"
   version="1.1"
   id="svg3791"
   sodipodi:docname="222.svg"
   style="fill:none"
   inkscape:version="0.92.5 (2060ec1f9f, 2020-04-08)">
  <metadata
     id="metadata3795">
    <rdf:RDF>
      <cc:Work
         rdf:about="">
        <dc:format>image/svg+xml</dc:format>
        <dc:type
           rdf:resource="http://purl.org/dc/dcmitype/StillImage" />
        <dc:title />
      </cc:Work>
    </rdf:RDF>
  </metadata>
  <sodipodi:namedview
     pagecolor="#ffffff"
     bordercolor="#666666"
     borderopacity="1"
     objecttolerance="10"
     gridtolerance="10"
     guidetolerance="10"
     inkscape:pageopacity="0"
     inkscape:pageshadow="2"
     inkscape:window-width="1920"
     inkscape:window-height="1027"
     id="namedview3793"
     showgrid="false"
     scale-x="50"
     showguides="true"
     inkscape:guide-bbox="true"
     inkscape:zoom="5.12"
     inkscape:cx="111.04909"
     inkscape:cy="19.759793"
     inkscape:window-x="0"
     inkscape:window-y="0"
     inkscape:window-maximized="1"
     inkscape:current-layer="svg3791" />
  <path
     d="M 1526.4406,473.62788 C 1807.7531,858.3596 1418.1003,968.09138 1234.7671,819.47149 909.75908,1252.8197 927.81156,402.7842 515.99479,893.08564 c -263.98121,-179.36099 -180.12003,-154.32533 0,-419.45776 180.13267,-265.13244 821.54621,-258.35168 1010.44581,0 z"
     id="path3774"
     inkscape:connector-curvature="0"
     style="opacity:0.1;fill:#40bfef;stroke-width:1.26506555" />
  <path
     d="m 1000.0342,1833.3962 c -286.17051,0 -444.51877,-204.0931 -561.52467,-403.771 -1.07531,-1.8343 -32.82845,-60.584 -45.83332,-91.0847 -39.49535,-95.4112 -59.33158,-195.8321 -59.33158,-299.0109 V 731.27112 c 0,-270.83788 175.33808,-370.17082 299.26389,-392.00586 27.41398,-65.92256 111.08542,-165.67297 365.75574,-172.33987 197.17304,-5.83195 388.93174,63.83521 513.09794,184.83872 101.5974,98.91547 155.2615,229.67264 155.2615,378.25459 v 308.2585 c 0,102.7613 -19.8362,203.3466 -59.0027,299.0109 -15.0036,34.7514 -47.3388,92.3371 -51.0074,98.8395 -124.9126,207.0153 -278.0867,397.2686 -556.6794,397.2686 z m 1.6698,-1541.55824 c 5.579,-0.0886 11.335,-0.16446 16.914,-0.16446 156.0079,0 310.0928,56.58638 405.6812,149.6699 77.9154,75.84068 117.4234,173.01036 117.4234,288.6753 v 106.11369 c 0,0 -98.1691,-1.0247 -120.1686,-0.0253 -9.5006,0.50603 -18.6724,0.92349 -40.9249,0.92349 -61.0773,0 -155.0085,-120.42158 -199.2478,-201.8412 -12.8405,-23.50491 -39.5966,-36.50979 -65.6696,-31.66459 -26.4272,4.57955 -47.0098,25.57962 -51.0074,52.08275 -0.8349,5.16146 -13.9157,96.08172 18.0019,199.00746 C 890.11261,794.7774 807.61769,587.26871 803.69598,577.18614 c -10.75305,-28.17301 -40.00137,-44.92248 -69.75571,-39.25499 -29.57722,5.50303 -51.1719,31.33567 -51.1719,61.50749 0,157.24764 -183.08028,242.33594 -184.75017,243.08234 l -39.67244,18.60911 V 731.27112 c 0,-256.8336 202.09421,-271.00234 224.76418,-271.76138 31.75315,-0.67048 58.24361,-28.33747 61.07736,-60.00206 3.17533,-34.9158 61.00146,-102.4197 257.5167,-107.66972 z M 508.01222,1290.1264 c -32.9929,-79.5852 -49.66646,-163.9271 -49.66646,-250.6727 v -42.20257 l 90.59134,-40.79835 c 7.83075,-3.42834 144.9259,-66.17558 216.26294,-194.68093 76.33405,106.17694 212.16414,233.6829 424.84696,233.6829 23.4163,0 44.9098,-13.09344 55.5743,-33.92907 8.0079,-15.40849 8.9188,-33.24591 3.4284,-49.16044 39.9128,29.41278 84.4936,49.57792 131.5794,49.57792 25.0103,0 35.6495,-0.48073 46.4152,-0.9741 l 0.4176,-0.0254 c 18.8367,-0.9994 114.2607,0.58193 114.2607,0.58193 v 76.67571 c 0,86.5051 -16.6736,171.0875 -49.249,250.5968 -12.5116,29.0839 -43.7587,84.2408 -43.7587,84.2408 -124.8366,207.0153 -243.5124,335.3561 -448.6807,335.3561 -210.08947,0 -333.3448,-136.7662 -452.67844,-340.2646 0,0 -28.17301,-51.7539 -39.34354,-78.004 z"
     id="path3776"
     inkscape:connector-curvature="0"
     style="clip-rule:evenodd;fill:#40bfef;fill-rule:evenodd;stroke-width:1.26506555" />
  <path
     d="m 1000.1101,1537.9149 c -82.53292,0 -159.89167,-33.0689 -218.10999,-93.0962 -22.54346,-23.3151 -21.91093,-60.4196 1.41688,-83.0516 23.40371,-22.6194 60.50809,-21.9109 83.05155,1.3284 71.48885,74.0442 195.62976,74.1328 267.46016,0.013 22.7079,-23.2645 59.8123,-23.7958 83.0516,-1.3409 23.3278,22.5435 23.9603,59.7238 1.4168,83.0516 -58.4713,60.0273 -135.8301,93.0962 -218.287,93.0962 z"
     id="path3778"
     inkscape:connector-curvature="0"
     style="fill:#40bfef;stroke:#ffffff;stroke-width:7.59039307" />
  <path
     d="m 117.19567,113.40047 h -3.7952 v 3.7952 187.50801 c 0,30.26036 -24.542269,54.80264 -54.802636,54.80264 -30.260367,0 -54.8026375,-24.54228 -54.8026375,-54.80264 V 58.597834 c 0,-30.260367 24.5422705,-54.8026375 54.8026375,-54.8026375 H 304.67825 c 30.27302,0 54.80264,24.5296195 54.80264,54.8026375 0,30.260367 -24.52962,54.802636 -54.80264,54.802636 z M 1882.8728,1886.668 h 3.7951 v -3.7951 -187.508 c 0,-30.2604 24.5423,-54.8027 54.8026,-54.8027 30.2605,0 54.8028,24.5423 54.8028,54.8027 v 246.1059 c 0,30.2603 -24.5423,54.8026 -54.8028,54.8026 h -246.0804 c -30.2731,0 -54.8027,-24.5423 -54.8027,-54.8026 0,-30.2605 24.5296,-54.8028 54.8027,-54.8028 z m -1769.47233,-3.7951 v 3.7951 h 3.7952 187.48258 c 30.27302,0 54.80264,24.5423 54.80264,54.8028 0,30.2603 -24.52962,54.8026 -54.80264,54.8026 H 58.597834 c -30.260367,0 -54.8026375,-24.5423 -54.8026375,-54.8026 v -246.1059 c 0,-30.2604 24.5422705,-54.8027 54.8026375,-54.8027 30.260367,0 54.802636,24.5423 54.802636,54.8027 z M 1886.6679,117.19567 v -3.7952 h -3.7951 -187.4827 c -30.2731,0 -54.8027,-24.542269 -54.8027,-54.802636 0,-30.260367 24.5296,-54.8026375 54.8027,-54.8026375 h 246.0804 c 30.2605,0 54.8028,24.5296195 54.8028,54.8026375 V 304.70368 c 0,30.26036 -24.5423,54.80264 -54.8028,54.80264 -30.2603,0 -54.8026,-24.54228 -54.8026,-54.80264 z"
     id="path3780"
     inkscape:connector-curvature="0"
     style="fill:#0082ca;stroke:#ffffff;stroke-width:7.59039307" />
  <path
     d="m 2589.086,759.18484 v 142.28341 h 229.4734 V 1033.7317 H 2589.086 v 154.3073 h 259.5332 v 137.2899 H 2417.7611 V 621.92783 h 430.8581 v 137.25701 z m 701.4298,566.14406 -107.2299,-155.3258 -90.1797,155.3258 h -185.3528 l 184.3673,-285.5852 -189.3936,-273.52846 h 192.3831 l 107.2299,154.30734 90.1797,-154.30734 h 185.3528 l -187.3568,281.54436 192.3832,277.5693 z M 3514.8643,1044.77 c 0,-57.45862 10.677,-107.88695 32.0638,-151.31772 22.044,-43.39792 51.7425,-76.80872 89.1612,-100.19959 37.4189,-23.35799 79.1741,-35.05342 125.266,-35.05342 39.3899,0 73.7863,8.01597 103.1891,24.0479 30.06,16.03193 53.1223,37.05742 69.1542,63.1093 v -79.14123 h 171.3249 v 559.11366 h -171.3249 v -79.1741 c -16.7218,26.0518 -40.0798,47.1102 -70.1397,63.1422 -29.403,16.0319 -63.7993,24.0479 -103.2221,24.0479 -45.4347,0 -86.8286,-11.6954 -124.2475,-35.0864 -37.4187,-24.0478 -67.1172,-57.7543 -89.1612,-101.1851 -21.3868,-44.0878 -32.0638,-94.8446 -32.0638,-152.3034 z m 418.8343,0.9856 c 0,-42.7408 -12.024,-76.48016 -36.0719,-101.18511 -23.3908,-24.70495 -52.1037,-37.09027 -86.1717,-37.09027 -34.0678,0 -63.1421,12.38532 -87.19,37.09027 -23.3909,24.0479 -35.0534,57.45871 -35.0534,100.19951 0,42.7409 11.6625,76.8089 35.0534,102.2037 24.0479,24.7049 53.1222,37.0574 87.19,37.0574 34.068,0 62.7809,-12.3525 86.1717,-37.0574 24.0479,-24.705 36.0719,-58.4443 36.0719,-101.2181 z m 261.2087,-0.9856 c 0,-57.45862 10.7098,-107.88695 32.0639,-151.31772 22.0439,-43.39792 51.7752,-76.80872 89.1941,-100.19959 37.3859,-23.35799 79.1412,-35.05342 125.233,-35.05342 36.7618,0 70.1397,7.68746 100.1996,23.02949 30.7497,15.37488 54.7976,36.07184 72.1436,62.12373 V 583.85202 h 171.3577 v 741.47688 h -171.3577 v -80.1598 c -16.0318,26.709 -39.0614,48.0959 -69.1212,64.1279 -29.4028,16.0319 -63.7991,24.0479 -103.222,24.0479 -46.0918,0 -87.8471,-11.6954 -125.233,-35.0864 -37.4189,-24.0478 -67.1502,-57.7543 -89.1941,-101.1851 -21.3541,-44.0878 -32.0639,-94.8446 -32.0639,-152.3034 z m 418.8342,0.9856 c 0,-42.7408 -12.0239,-76.48016 -36.0718,-101.18511 -23.358,-24.70495 -52.1037,-37.09027 -86.1716,-37.09027 -34.0679,0 -63.1093,12.38532 -87.1572,37.09027 -23.3908,24.0479 -35.0863,57.45871 -35.0863,100.19951 0,42.7409 11.6955,76.8089 35.0863,102.2037 24.0479,24.7049 53.0893,37.0574 87.1572,37.0574 34.0679,0 62.8136,-12.3525 86.1716,-37.0574 24.0479,-24.705 36.0718,-58.4443 36.0718,-101.2181 z m 822.3593,-9.0015 c 0,16.0319 -0.9854,32.7209 -2.9895,50.0998 h -387.7889 c 2.6612,34.725 13.6996,61.4667 33.0824,80.1596 20.0399,18.0359 44.4163,27.0375 73.1293,27.0375 42.7408,0 72.4722,-18.0359 89.194,-54.1077 h 182.3633 c -9.363,36.7616 -26.4133,69.8111 -51.1182,99.2139 -24.0479,29.403 -54.4364,52.4324 -91.1653,69.1213 -36.7617,16.7219 -77.8271,25.0664 -123.2619,25.0664 -54.7647,0 -103.5505,-11.6954 -146.2914,-35.0864 -42.7408,-23.3579 -76.1516,-56.7688 -100.1994,-100.1995 -24.0479,-43.3979 -36.0719,-94.1877 -36.0719,-152.3034 0,-58.11569 11.6954,-108.87255 35.0862,-152.30332 24.0479,-43.39792 57.4259,-76.80872 100.1997,-100.19959 42.7409,-23.35799 91.8221,-35.05342 147.2768,-35.05342 54.1077,0 102.2036,11.3669 144.2874,34.06786 42.0838,22.70095 74.8048,55.09334 98.1956,97.17716 24.0479,42.08382 36.0718,91.19805 36.0718,147.30981 z m -175.3327,-45.10621 c 0,-29.37 -10.02,-52.76086 -30.0599,-70.13973 -20.0399,-17.34602 -45.1063,-26.05188 -75.1661,-26.05188 -28.7129,0 -53.0894,8.37733 -73.1293,25.0663 -19.3828,16.68899 -31.4068,40.40836 -36.0718,71.12531 z M 5697.8353,583.85202 V 1325.3289 H 5526.4776 V 583.85202 Z m 307.432,388.77435 c 0,-69.48266 15.0464,-131.27787 45.1063,-185.38564 30.0599,-54.76482 71.8151,-97.17722 125.233,-127.23708 54.1077,-30.71694 115.246,-46.09178 183.3816,-46.09178 83.5106,0 154.9644,22.04389 214.4271,66.13168 59.4628,44.08786 99.1812,104.20761 119.2212,180.35929 h -188.3752 c -14.0279,-29.40284 -34.068,-51.77526 -60.1198,-67.15015 -25.3619,-15.34203 -54.4363,-23.02947 -87.1572,-23.02947 -52.7609,0 -95.5345,18.36444 -128.2554,55.09334 -32.7209,36.76175 -49.1143,85.84313 -49.1143,147.30981 0,61.46673 16.3934,110.54803 49.1143,147.27693 32.7209,36.7618 75.4945,55.1262 128.2554,55.1262 32.7209,0 61.7953,-7.6874 87.1572,-23.0623 26.0518,-15.342 46.0919,-37.7145 60.1198,-67.1172 h 188.3752 c -20.04,76.1515 -59.7584,136.2712 -119.2212,180.3592 -59.4627,43.4307 -130.9165,65.1133 -214.4271,65.1133 -68.1356,0 -129.2739,-15.0135 -183.3816,-45.0734 -53.4179,-30.7169 -95.1731,-73.1622 -125.233,-127.2699 -30.0599,-54.1079 -45.1063,-115.8701 -45.1063,-185.35283 z m 1046.8064,360.71853 c -54.7648,0 -104.2076,-11.6954 -148.2954,-35.0864 -43.3979,-23.3579 -77.7943,-56.7688 -103.189,-100.1995 -24.705,-43.3979 -37.0904,-94.1877 -37.0904,-152.3034 0,-57.42584 12.7139,-107.85413 38.0758,-151.2849 25.395,-44.08782 60.1198,-77.82714 104.2077,-101.21801 44.0877,-23.35799 93.5305,-35.05342 148.2954,-35.05342 54.7976,0 104.2074,11.69543 148.2952,35.05342 44.088,23.39087 78.8456,57.13019 104.2077,101.21801 25.3947,43.43077 38.0757,93.85906 38.0757,151.2849 0,57.4588 -13.0095,108.2156 -39.0614,152.3034 -25.3948,43.4307 -60.4482,76.8416 -105.226,100.1995 -44.0877,23.391 -93.4977,35.0864 -148.2953,35.0864 z m 0,-148.2955 c 32.7538,0 60.4812,-12.0239 83.1821,-36.0718 23.3909,-24.0478 35.0533,-58.4442 35.0533,-103.222 0,-44.7448 -11.3339,-79.1412 -34.0678,-103.18911 -22.0438,-24.0479 -49.4099,-36.07183 -82.1635,-36.07183 -33.3781,0 -61.1053,12.02393 -83.1493,36.07183 -22.044,23.39086 -33.0824,57.78721 -33.0824,103.18911 0,44.7778 10.7099,79.1742 32.0639,103.222 22.0439,24.0479 49.4429,36.0718 82.1637,36.0718 z M 8148.9798,760.20326 c 69.4827,0 124.5761,21.0255 165.3458,63.10931 41.3939,42.08382 62.1237,100.56096 62.1237,175.36567 V 1325.3289 H 8206.11 v -303.6212 c 0,-36.07178 -9.6914,-63.76631 -29.0743,-83.14919 -18.693,-20.03992 -44.7448,-30.05987 -78.1557,-30.05987 -33.378,0 -59.7911,10.01995 -79.1412,30.05987 -18.7258,19.38288 -28.0558,47.07741 -28.0558,83.14919 v 303.6212 h -170.3394 v -303.6212 c 0,-36.07178 -9.6914,-63.76631 -29.0742,-83.14919 -18.693,-20.03992 -44.7449,-30.05987 -78.1557,-30.05987 -33.3781,0 -59.7912,10.01995 -79.1413,30.05987 -18.7258,19.38288 -28.0559,47.07741 -28.0559,83.14919 v 303.6212 H 7435.5588 V 766.21524 h 171.3577 v 70.13971 c 17.3461,-23.39085 40.0798,-41.75531 68.1358,-55.12619 28.0558,-14.02795 59.7912,-21.0255 95.173,-21.0255 42.084,0 79.5027,9.00154 112.2236,27.03747 33.4108,18.03591 59.4629,43.75927 78.1556,77.17009 19.383,-30.71692 45.7634,-55.78324 79.1742,-75.16611 33.378,-19.35001 69.8113,-29.04145 109.2011,-29.04145 z m 518.6397,85.15321 c 16.689,-26.05188 39.7513,-47.07737 69.1213,-63.1093 29.4027,-16.03193 63.799,-24.0479 103.2219,-24.0479 46.0918,0 87.8471,11.69543 125.233,35.05342 37.4188,23.39087 66.8216,56.80167 88.1757,100.19959 22.0439,43.43077 33.0823,93.8591 33.0823,151.31772 0,57.4588 -11.0384,108.2156 -33.0823,152.3034 -21.3541,43.4308 -50.7569,77.1373 -88.1757,101.1851 -37.3859,23.391 -79.1412,35.0864 -125.233,35.0864 -38.7329,0 -73.1621,-8.016 -103.2219,-24.0479 -29.37,-16.032 -52.4323,-36.7289 -69.1213,-62.1238 v 344.6866 H 8496.2618 V 766.21524 h 171.3577 z M 8912.1064,1044.77 c 0,-42.7408 -12.0239,-76.15161 -36.0718,-100.19951 -23.3908,-24.70495 -52.4323,-37.09027 -87.1901,-37.09027 -34.0678,0 -63.1093,12.38532 -87.1572,37.09027 -23.3908,24.70495 -35.0864,58.44431 -35.0864,101.18511 0,42.7738 11.6956,76.5131 35.0864,101.2181 24.0479,24.7049 53.0894,37.0574 87.1572,37.0574 34.0678,0 63.1422,-12.3525 87.1901,-37.0574 24.0479,-25.3948 36.0718,-59.4628 36.0718,-102.2037 z m 435.5888,-185.38558 c 20.0401,-30.71693 45.0734,-54.76482 75.1334,-72.14369 30.0599,-18.03593 63.4706,-27.03747 100.1995,-27.03747 v 181.34482 h -47.0773 c -42.7738,0 -74.8377,9.36291 -96.1916,28.05587 -21.387,18.03596 -32.064,50.09985 -32.064,96.19155 v 259.5334 H 9176.3376 V 766.21524 h 171.3576 z m 784.2838,177.36968 c 0,16.0319 -1.019,32.7209 -3.023,50.0998 h -387.7556 c 2.661,34.725 13.6995,61.4667 33.0493,80.1596 20.0401,18.0359 44.4492,27.0375 73.1623,27.0375 42.7409,0 72.4721,-18.0359 89.1611,-54.1077 h 182.3629 c -9.33,36.7616 -26.38,69.8111 -51.085,99.2139 -24.048,29.403 -54.436,52.4324 -91.1979,69.1213 -36.7289,16.7219 -77.7944,25.0664 -123.2292,25.0664 -54.7648,0 -103.5505,-11.6954 -146.2914,-35.0864 -42.7409,-23.3579 -76.1516,-56.7688 -100.1995,-100.1995 -24.0479,-43.3979 -36.0718,-94.1877 -36.0718,-152.3034 0,-58.11569 11.6953,-108.87255 35.0535,-152.30332 24.0478,-43.39792 57.4586,-76.80872 100.1994,-100.19959 42.7738,-23.35799 91.8552,-35.05342 147.3098,-35.05342 54.1079,0 102.2037,11.3669 144.2875,34.06786 42.0836,22.70095 74.8046,55.09334 98.1956,97.17716 24.048,42.08382 36.072,91.19805 36.072,147.30981 z m -175.366,-45.10621 c 0,-29.37 -10.0199,-52.76086 -30.0598,-70.13973 -20.04,-17.34602 -45.0734,-26.05188 -75.1333,-26.05188 -28.7129,0 -53.1222,8.37733 -73.162,25.0663 -19.3501,16.68899 -31.374,40.40836 -36.0719,71.12531 z m 723.671,-369.72006 v 137.25701 h -286.571 v 148.29538 h 214.427 V 1040.762 h -214.427 v 284.5669 h -171.358 V 621.92783 Z m 55.98,422.84217 c 0,-57.45862 10.677,-107.88695 32.064,-151.31772 22.044,-43.39792 51.775,-76.80872 89.194,-100.19959 37.386,-23.35799 79.142,-35.05342 125.233,-35.05342 39.423,0 73.819,8.01597 103.222,24.0479 30.06,16.03193 53.09,37.05742 69.122,63.1093 v -79.14123 h 171.357 v 559.11366 h -171.357 v -79.1741 c -16.689,26.0518 -40.08,47.1102 -70.14,63.1422 -29.403,16.0319 -63.799,24.0479 -103.189,24.0479 -45.435,0 -86.862,-11.6954 -124.248,-35.0864 -37.419,-24.0478 -67.15,-57.7543 -89.194,-101.1851 -21.387,-44.0878 -32.064,-94.8446 -32.064,-152.3034 z m 418.835,0.9856 c 0,-42.7408 -12.024,-76.48016 -36.072,-101.18511 -23.391,-24.70495 -52.104,-37.09027 -86.172,-37.09027 -34.068,0 -63.109,12.38532 -87.157,37.09027 -23.391,24.0479 -35.086,57.45871 -35.086,100.19951 0,42.7409 11.695,76.8089 35.086,102.2037 24.048,24.7049 53.089,37.0574 87.157,37.0574 34.068,0 62.781,-12.3525 86.172,-37.0574 24.048,-24.705 36.072,-58.4443 36.072,-101.2181 z m 261.241,0 c 0,-58.11569 11.696,-108.87255 35.053,-152.30332 24.048,-43.39792 57.131,-76.80872 99.215,-100.19959 42.741,-23.35799 91.493,-35.05342 146.291,-35.05342 70.14,0 128.584,18.36446 175.333,55.09334 47.438,36.76175 78.484,88.53702 93.202,155.32578 h -182.363 c -15.375,-42.74087 -45.107,-64.12773 -89.194,-64.12773 -31.375,0 -56.441,12.35247 -75.134,37.05742 -18.725,24.0479 -28.056,58.80562 -28.056,104.20752 0,45.4349 9.331,80.5211 28.056,105.226 18.693,24.0479 43.759,36.0718 75.134,36.0718 44.087,0 73.819,-21.3867 89.194,-64.1276 h 182.363 c -14.718,65.4746 -45.764,116.8885 -93.202,154.3073 -47.406,37.4188 -105.883,56.1118 -175.333,56.1118 -54.798,0 -103.55,-11.6954 -146.291,-35.0864 -42.084,-23.3579 -75.167,-56.7688 -99.215,-100.1995 -23.357,-43.3979 -35.053,-94.1877 -35.053,-152.3034 z m 1167.802,-9.0015 c 0,16.0319 -1.018,32.7209 -3.022,50.0998 h -387.757 c 2.662,34.725 13.667,61.4667 33.05,80.1596 20.04,18.0359 44.416,27.0375 73.162,27.0375 42.741,0 72.472,-18.0359 89.162,-54.1077 h 182.363 c -9.364,36.7616 -26.381,69.8111 -51.086,99.2139 -24.048,29.403 -54.47,52.4324 -91.198,69.1213 -36.729,16.7219 -77.827,25.0664 -123.23,25.0664 -54.796,0 -103.55,-11.6954 -146.291,-35.0864 -42.774,-23.3579 -76.151,-56.7688 -100.199,-100.1995 -24.048,-43.3979 -36.072,-94.1877 -36.072,-152.3034 0,-58.11569 11.662,-108.87255 35.054,-152.30332 24.048,-43.39792 57.458,-76.80872 100.199,-100.19959 42.741,-23.35799 91.855,-35.05342 147.309,-35.05342 54.109,0 102.204,11.3669 144.288,34.06786 42.084,22.70095 74.805,55.09334 98.196,97.17716 24.048,42.08382 36.072,91.19805 36.072,147.30981 z m -175.366,-45.10621 c 0,-29.37 -10.02,-52.76086 -30.06,-70.13973 -20.04,-17.34602 -45.073,-26.05188 -75.133,-26.05188 -28.746,0 -53.122,8.37733 -73.163,25.0663 -19.382,16.68899 -31.406,40.40836 -36.071,71.12531 z"
     id="path3782"
     inkscape:connector-curvature="0"
     style="fill:url(#paint0_linear);stroke-width:3.28523207" />
  <defs
     id="defs3789">
    <linearGradient
       id="paint0_linear"
       x1="1691.21"
       y1="845.72498"
       x2="4914.21"
       y2="845.72498"
       gradientUnits="userSpaceOnUse"
       gradientTransform="matrix(3.285232,0,0,3.285232,-3366.1529,-1690.547)">
      <stop
         offset="0.2297"
         stop-color="#0082CA"
         id="stop3784" />
      <stop
         offset="1"
         stop-color="#40BFEF"
         id="stop3786" />
    </linearGradient>
  </defs>
</svg>
