<svg width="5398" height="3394" viewBox="0 0 5398 3394" fill="none" xmlns="http://www.w3.org/2000/svg">
<path opacity="0.1" d="M3116.61 962.479C3338.98 1266.6 3030.97 1353.34 2886.05 1235.86C2629.14 1578.41 2643.41 906.484 2317.88 1294.05C2109.21 1152.27 2175.5 1172.06 2317.88 962.479C2460.27 752.901 2967.29 758.265 3116.61 962.479Z" fill="#40BFEF"/>
<path fill-rule="evenodd" clip-rule="evenodd" d="M2700.5 2037.34C2474.29 2037.34 2349.12 1876.01 2256.63 1718.17C2255.78 1716.72 2230.68 1670.28 2220.4 1646.17C2189.18 1570.75 2173.5 1491.37 2173.5 1409.81V1166.14C2173.5 952.05 2312.1 873.527 2410.06 856.267C2431.73 804.16 2497.87 725.308 2699.18 720.038C2855.04 715.427 3006.62 770.498 3104.77 866.149C3185.08 944.342 3227.5 1047.7 3227.5 1165.15V1408.82C3227.5 1490.05 3211.82 1569.56 3180.86 1645.18C3169 1672.65 3143.44 1718.17 3140.54 1723.31C3041.8 1886.95 2920.72 2037.34 2700.5 2037.34ZM2701.82 818.785C2706.23 818.719 2710.78 818.653 2715.19 818.653C2838.51 818.653 2960.31 863.382 3035.87 936.964C3097.46 996.91 3128.69 1073.72 3128.69 1165.15V1249.03C3128.69 1249.03 3051.09 1248.22 3033.7 1249.01C3026.19 1249.41 3018.94 1249.74 3001.35 1249.74C2953.07 1249.74 2878.82 1154.55 2843.85 1090.19C2833.7 1071.61 2812.55 1061.33 2791.94 1065.16C2771.05 1068.78 2754.78 1085.38 2751.62 1106.33C2750.96 1110.41 2740.62 1182.28 2765.85 1263.64C2613.61 1216.34 2548.4 1052.31 2545.3 1044.34C2536.8 1022.07 2513.68 1008.83 2490.16 1013.31C2466.78 1017.66 2449.71 1038.08 2449.71 1061.93C2449.71 1186.23 2304.99 1253.49 2303.67 1254.08L2272.31 1268.79V1166.14C2272.31 963.117 2432.06 951.918 2449.98 951.325C2475.08 950.798 2496.02 928.928 2498.26 903.895C2500.77 876.293 2546.48 822.935 2701.82 818.785ZM2311.57 1607.9C2285.49 1544.99 2272.31 1478.32 2272.31 1409.75V1376.39L2343.92 1344.14C2350.11 1341.43 2458.48 1291.83 2514.87 1190.25C2575.21 1274.18 2682.58 1374.97 2850.7 1374.97C2869.21 1374.97 2886.2 1364.62 2894.63 1348.15C2900.96 1335.97 2901.68 1321.87 2897.34 1309.29C2928.89 1332.54 2964.13 1348.48 3001.35 1348.48C3021.12 1348.48 3029.53 1348.1 3038.04 1347.71L3038.37 1347.69C3053.26 1346.9 3128.69 1348.15 3128.69 1348.15V1408.76C3128.69 1477.14 3115.51 1544 3089.76 1606.85C3079.87 1629.84 3055.17 1673.44 3055.17 1673.44C2956.49 1837.08 2862.68 1938.53 2700.5 1938.53C2534.43 1938.53 2437 1830.42 2342.67 1669.56C2342.67 1669.56 2320.4 1628.65 2311.57 1607.9Z" fill="#40BFEF"/>
<path d="M2700.56 1803.77C2635.32 1803.77 2574.17 1777.63 2528.15 1730.18C2510.33 1711.75 2510.83 1682.42 2529.27 1664.53C2547.77 1646.65 2577.1 1647.21 2594.92 1665.58C2651.43 1724.11 2749.56 1724.18 2806.34 1665.59C2824.29 1647.2 2853.62 1646.78 2871.99 1664.53C2890.43 1682.35 2890.93 1711.74 2873.11 1730.18C2826.89 1777.63 2765.74 1803.77 2700.56 1803.77Z" fill="#40BFEF" stroke="white" stroke-width="6"/>
<path d="M2002.64 677.727H1999.64V680.727V828.948C1999.64 852.872 1980.24 872.267 1956.32 872.267C1932.4 872.267 1913 852.872 1913 828.948V634.408C1913 610.485 1932.4 591.09 1956.32 591.09H2150.84C2174.77 591.09 2194.16 610.485 2194.16 634.408C2194.16 658.331 2174.77 677.727 2150.84 677.727H2002.64ZM3398.36 2079.45H3401.36V2076.45V1928.23C3401.36 1904.31 3420.76 1884.91 3444.68 1884.91C3468.6 1884.91 3488 1904.31 3488 1928.23V2122.77C3488 2146.69 3468.6 2166.09 3444.68 2166.09H3250.16C3226.23 2166.09 3206.84 2146.69 3206.84 2122.77C3206.84 2098.85 3226.23 2079.45 3250.16 2079.45H3398.36ZM1999.64 2076.45V2079.45H2002.64H2150.84C2174.77 2079.45 2194.16 2098.85 2194.16 2122.77C2194.16 2146.69 2174.77 2166.09 2150.84 2166.09H1956.32C1932.4 2166.09 1913 2146.69 1913 2122.77V1928.23C1913 1904.31 1932.4 1884.91 1956.32 1884.91C1980.24 1884.91 1999.64 1904.31 1999.64 1928.23V2076.45ZM3401.36 680.727V677.727H3398.36H3250.16C3226.23 677.727 3206.84 658.331 3206.84 634.408C3206.84 610.485 3226.23 591.09 3250.16 591.09H3444.68C3468.6 591.09 3488 610.485 3488 634.408V828.948C3488 852.872 3468.6 872.267 3444.68 872.267C3420.76 872.267 3401.36 852.872 3401.36 828.948V680.727Z" fill="#0082CA" stroke="white" stroke-width="6"/>
<path d="M1210.52 2609.76V2653.07H1280.37V2693.33H1210.52V2740.3H1289.52V2782.09H1158.37V2567.98H1289.52V2609.76H1210.52ZM1424.03 2782.09L1391.39 2734.81L1363.94 2782.09H1307.52L1363.64 2695.16L1305.99 2611.9H1364.55L1397.19 2658.87L1424.64 2611.9H1481.06L1424.03 2697.6L1482.59 2782.09H1424.03ZM1492.32 2696.69C1492.32 2679.2 1495.57 2663.85 1502.08 2650.63C1508.79 2637.42 1517.83 2627.25 1529.22 2620.13C1540.61 2613.02 1553.32 2609.46 1567.35 2609.46C1579.34 2609.46 1589.81 2611.9 1598.76 2616.78C1607.91 2621.66 1614.93 2628.06 1619.81 2635.99V2611.9H1671.96V2782.09H1619.81V2757.99C1614.72 2765.92 1607.61 2772.33 1598.46 2777.21C1589.51 2782.09 1579.04 2784.53 1567.04 2784.53C1553.21 2784.53 1540.61 2780.97 1529.22 2773.85C1517.83 2766.53 1508.79 2756.27 1502.08 2743.05C1495.57 2729.63 1492.32 2714.18 1492.32 2696.69ZM1619.81 2696.99C1619.81 2683.98 1616.15 2673.71 1608.83 2666.19C1601.71 2658.67 1592.97 2654.9 1582.6 2654.9C1572.23 2654.9 1563.38 2658.67 1556.06 2666.19C1548.94 2673.51 1545.39 2683.68 1545.39 2696.69C1545.39 2709.7 1548.94 2720.07 1556.06 2727.8C1563.38 2735.32 1572.23 2739.08 1582.6 2739.08C1592.97 2739.08 1601.71 2735.32 1608.83 2727.8C1616.15 2720.28 1619.81 2710.01 1619.81 2696.99ZM1699.32 2696.69C1699.32 2679.2 1702.58 2663.85 1709.08 2650.63C1715.79 2637.42 1724.84 2627.25 1736.23 2620.13C1747.61 2613.02 1760.32 2609.46 1774.35 2609.46C1785.54 2609.46 1795.7 2611.8 1804.85 2616.47C1814.21 2621.15 1821.53 2627.45 1826.81 2635.38V2556.39H1878.97V2782.09H1826.81V2757.69C1821.93 2765.82 1814.92 2772.33 1805.77 2777.21C1796.82 2782.09 1786.35 2784.53 1774.35 2784.53C1760.32 2784.53 1747.61 2780.97 1736.23 2773.85C1724.84 2766.53 1715.79 2756.27 1709.08 2743.05C1702.58 2729.63 1699.32 2714.18 1699.32 2696.69ZM1826.81 2696.99C1826.81 2683.98 1823.15 2673.71 1815.83 2666.19C1808.72 2658.67 1799.97 2654.9 1789.6 2654.9C1779.23 2654.9 1770.39 2658.67 1763.07 2666.19C1755.95 2673.51 1752.39 2683.68 1752.39 2696.69C1752.39 2709.7 1755.95 2720.07 1763.07 2727.8C1770.39 2735.32 1779.23 2739.08 1789.6 2739.08C1799.97 2739.08 1808.72 2735.32 1815.83 2727.8C1823.15 2720.28 1826.81 2710.01 1826.81 2696.99ZM2077.13 2694.25C2077.13 2699.13 2076.83 2704.21 2076.22 2709.5H1958.18C1958.99 2720.07 1962.35 2728.21 1968.25 2733.9C1974.35 2739.39 1981.77 2742.13 1990.51 2742.13C2003.52 2742.13 2012.57 2736.64 2017.66 2725.66H2073.17C2070.32 2736.85 2065.13 2746.91 2057.61 2755.86C2050.29 2764.81 2041.04 2771.82 2029.86 2776.9C2018.67 2781.99 2006.17 2784.53 1992.34 2784.53C1975.67 2784.53 1960.82 2780.97 1947.81 2773.85C1934.8 2766.74 1924.63 2756.57 1917.31 2743.35C1909.99 2730.14 1906.33 2714.68 1906.33 2696.99C1906.33 2679.3 1909.89 2663.85 1917.01 2650.63C1924.33 2637.42 1934.49 2627.25 1947.51 2620.13C1960.52 2613.02 1975.46 2609.46 1992.34 2609.46C2008.81 2609.46 2023.45 2612.92 2036.26 2619.83C2049.07 2626.74 2059.03 2636.6 2066.15 2649.41C2073.47 2662.22 2077.13 2677.17 2077.13 2694.25ZM2023.76 2680.52C2023.76 2671.58 2020.71 2664.46 2014.61 2659.17C2008.51 2653.89 2000.88 2651.24 1991.73 2651.24C1982.99 2651.24 1975.57 2653.79 1969.47 2658.87C1963.57 2663.95 1959.91 2671.17 1958.49 2680.52H2023.76ZM2156.8 2556.39V2782.09H2104.64V2556.39H2156.8ZM2250.38 2674.73C2250.38 2653.58 2254.96 2634.77 2264.11 2618.3C2273.26 2601.63 2285.97 2588.72 2302.23 2579.57C2318.7 2570.22 2337.31 2565.54 2358.05 2565.54C2383.47 2565.54 2405.22 2572.25 2423.32 2585.67C2441.42 2599.09 2453.51 2617.39 2459.61 2640.57H2402.27C2398 2631.62 2391.9 2624.81 2383.97 2620.13C2376.25 2615.46 2367.4 2613.12 2357.44 2613.12C2341.38 2613.12 2328.36 2618.71 2318.4 2629.89C2308.44 2641.08 2303.45 2656.02 2303.45 2674.73C2303.45 2693.44 2308.44 2708.38 2318.4 2719.56C2328.36 2730.75 2341.38 2736.34 2357.44 2736.34C2367.4 2736.34 2376.25 2734 2383.97 2729.32C2391.9 2724.65 2398 2717.84 2402.27 2708.89H2459.61C2453.51 2732.07 2441.42 2750.37 2423.32 2763.79C2405.22 2777.01 2383.47 2783.61 2358.05 2783.61C2337.31 2783.61 2318.7 2779.04 2302.23 2769.89C2285.97 2760.54 2273.26 2747.62 2264.11 2731.15C2254.96 2714.68 2250.38 2695.88 2250.38 2674.73ZM2569.02 2784.53C2552.35 2784.53 2537.3 2780.97 2523.88 2773.85C2510.67 2766.74 2500.2 2756.57 2492.47 2743.35C2484.95 2730.14 2481.18 2714.68 2481.18 2696.99C2481.18 2679.51 2485.05 2664.16 2492.77 2650.94C2500.5 2637.52 2511.07 2627.25 2524.49 2620.13C2537.91 2613.02 2552.96 2609.46 2569.63 2609.46C2586.31 2609.46 2601.35 2613.02 2614.77 2620.13C2628.19 2627.25 2638.77 2637.52 2646.49 2650.94C2654.22 2664.16 2658.08 2679.51 2658.08 2696.99C2658.08 2714.48 2654.12 2729.93 2646.19 2743.35C2638.46 2756.57 2627.79 2766.74 2614.16 2773.85C2600.74 2780.97 2585.7 2784.53 2569.02 2784.53ZM2569.02 2739.39C2578.99 2739.39 2587.43 2735.73 2594.34 2728.41C2601.46 2721.09 2605.01 2710.62 2605.01 2696.99C2605.01 2683.37 2601.56 2672.9 2594.64 2665.58C2587.93 2658.26 2579.6 2654.6 2569.63 2654.6C2559.47 2654.6 2551.03 2658.26 2544.32 2665.58C2537.61 2672.7 2534.25 2683.17 2534.25 2696.99C2534.25 2710.62 2537.51 2721.09 2544.01 2728.41C2550.72 2735.73 2559.06 2739.39 2569.02 2739.39ZM2902.91 2610.07C2924.06 2610.07 2940.83 2616.47 2953.24 2629.28C2965.84 2642.09 2972.15 2659.89 2972.15 2682.66V2782.09H2920.3V2689.67C2920.3 2678.69 2917.35 2670.26 2911.45 2664.36C2905.76 2658.26 2897.83 2655.21 2887.66 2655.21C2877.5 2655.21 2869.46 2658.26 2863.57 2664.36C2857.87 2670.26 2855.03 2678.69 2855.03 2689.67V2782.09H2803.18V2689.67C2803.18 2678.69 2800.23 2670.26 2794.33 2664.36C2788.64 2658.26 2780.71 2655.21 2770.54 2655.21C2760.38 2655.21 2752.34 2658.26 2746.45 2664.36C2740.75 2670.26 2737.91 2678.69 2737.91 2689.67V2782.09H2685.75V2611.9H2737.91V2633.25C2743.19 2626.13 2750.11 2620.54 2758.65 2616.47C2767.19 2612.2 2776.85 2610.07 2787.62 2610.07C2800.43 2610.07 2811.82 2612.81 2821.78 2618.3C2831.95 2623.79 2839.88 2631.62 2845.57 2641.79C2851.47 2632.44 2859.5 2624.81 2869.67 2618.91C2879.83 2613.02 2890.92 2610.07 2902.91 2610.07ZM3060.78 2635.99C3065.86 2628.06 3072.88 2621.66 3081.82 2616.78C3090.77 2611.9 3101.24 2609.46 3113.24 2609.46C3127.27 2609.46 3139.98 2613.02 3151.36 2620.13C3162.75 2627.25 3171.7 2637.42 3178.2 2650.63C3184.91 2663.85 3188.27 2679.2 3188.27 2696.69C3188.27 2714.18 3184.91 2729.63 3178.2 2743.05C3171.7 2756.27 3162.75 2766.53 3151.36 2773.85C3139.98 2780.97 3127.27 2784.53 3113.24 2784.53C3101.45 2784.53 3090.97 2782.09 3081.82 2777.21C3072.88 2772.33 3065.86 2766.03 3060.78 2758.3V2863.22H3008.62V2611.9H3060.78V2635.99ZM3135.2 2696.69C3135.2 2683.68 3131.54 2673.51 3124.22 2666.19C3117.1 2658.67 3108.26 2654.9 3097.68 2654.9C3087.31 2654.9 3078.47 2658.67 3071.15 2666.19C3064.03 2673.71 3060.47 2683.98 3060.47 2696.99C3060.47 2710.01 3064.03 2720.28 3071.15 2727.8C3078.47 2735.32 3087.31 2739.08 3097.68 2739.08C3108.05 2739.08 3116.9 2735.32 3124.22 2727.8C3131.54 2720.07 3135.2 2709.7 3135.2 2696.69ZM3267.79 2640.26C3273.89 2630.91 3281.51 2623.59 3290.66 2618.3C3299.81 2612.81 3309.98 2610.07 3321.16 2610.07V2665.27H3306.83C3293.81 2665.27 3284.05 2668.12 3277.55 2673.81C3271.04 2679.3 3267.79 2689.06 3267.79 2703.09V2782.09H3215.63V2611.9H3267.79V2640.26ZM3506.52 2694.25C3506.52 2699.13 3506.21 2704.21 3505.6 2709.5H3387.57C3388.38 2720.07 3391.74 2728.21 3397.63 2733.9C3403.73 2739.39 3411.16 2742.13 3419.9 2742.13C3432.91 2742.13 3441.96 2736.64 3447.04 2725.66H3502.55C3499.71 2736.85 3494.52 2746.91 3487 2755.86C3479.68 2764.81 3470.43 2771.82 3459.24 2776.9C3448.06 2781.99 3435.56 2784.53 3421.73 2784.53C3405.06 2784.53 3390.21 2780.97 3377.2 2773.85C3364.19 2766.74 3354.02 2756.57 3346.7 2743.35C3339.38 2730.14 3335.72 2714.68 3335.72 2696.99C3335.72 2679.3 3339.28 2663.85 3346.39 2650.63C3353.71 2637.42 3363.88 2627.25 3376.89 2620.13C3389.91 2613.02 3404.85 2609.46 3421.73 2609.46C3438.2 2609.46 3452.84 2612.92 3465.65 2619.83C3478.46 2626.74 3488.42 2636.6 3495.54 2649.41C3502.86 2662.22 3506.52 2677.17 3506.52 2694.25ZM3453.14 2680.52C3453.14 2671.58 3450.09 2664.46 3443.99 2659.17C3437.89 2653.89 3430.27 2651.24 3421.12 2651.24C3412.38 2651.24 3404.95 2653.79 3398.85 2658.87C3392.96 2663.95 3389.3 2671.17 3387.87 2680.52H3453.14ZM3673.42 2567.98V2609.76H3586.19V2654.9H3651.46V2695.47H3586.19V2782.09H3534.03V2567.98H3673.42ZM3690.46 2696.69C3690.46 2679.2 3693.71 2663.85 3700.22 2650.63C3706.93 2637.42 3715.98 2627.25 3727.37 2620.13C3738.75 2613.02 3751.46 2609.46 3765.49 2609.46C3777.49 2609.46 3787.96 2611.9 3796.91 2616.78C3806.06 2621.66 3813.07 2628.06 3817.95 2635.99V2611.9H3870.11V2782.09H3817.95V2757.99C3812.87 2765.92 3805.75 2772.33 3796.6 2777.21C3787.65 2782.09 3777.18 2784.53 3765.19 2784.53C3751.36 2784.53 3738.75 2780.97 3727.37 2773.85C3715.98 2766.53 3706.93 2756.27 3700.22 2743.05C3693.71 2729.63 3690.46 2714.18 3690.46 2696.69ZM3817.95 2696.99C3817.95 2683.98 3814.29 2673.71 3806.97 2666.19C3799.85 2658.67 3791.11 2654.9 3780.74 2654.9C3770.37 2654.9 3761.53 2658.67 3754.21 2666.19C3747.09 2673.51 3743.53 2683.68 3743.53 2696.69C3743.53 2709.7 3747.09 2720.07 3754.21 2727.8C3761.53 2735.32 3770.37 2739.08 3780.74 2739.08C3791.11 2739.08 3799.85 2735.32 3806.97 2727.8C3814.29 2720.28 3817.95 2710.01 3817.95 2696.99ZM3897.47 2696.99C3897.47 2679.3 3901.03 2663.85 3908.14 2650.63C3915.46 2637.42 3925.53 2627.25 3938.34 2620.13C3951.35 2613.02 3966.19 2609.46 3982.87 2609.46C4004.22 2609.46 4022.01 2615.05 4036.24 2626.23C4050.68 2637.42 4060.13 2653.18 4064.61 2673.51H4009.1C4004.42 2660.5 3995.37 2653.99 3981.95 2653.99C3972.4 2653.99 3964.77 2657.75 3959.08 2665.27C3953.38 2672.59 3950.54 2683.17 3950.54 2696.99C3950.54 2710.82 3953.38 2721.5 3959.08 2729.02C3964.77 2736.34 3972.4 2740 3981.95 2740C3995.37 2740 4004.42 2733.49 4009.1 2720.48H4064.61C4060.13 2740.41 4050.68 2756.06 4036.24 2767.45C4021.81 2778.84 4004.01 2784.53 3982.87 2784.53C3966.19 2784.53 3951.35 2780.97 3938.34 2773.85C3925.53 2766.74 3915.46 2756.57 3908.14 2743.35C3901.03 2730.14 3897.47 2714.68 3897.47 2696.99ZM4252.94 2694.25C4252.94 2699.13 4252.63 2704.21 4252.02 2709.5H4133.99C4134.8 2720.07 4138.15 2728.21 4144.05 2733.9C4150.15 2739.39 4157.57 2742.13 4166.32 2742.13C4179.33 2742.13 4188.38 2736.64 4193.46 2725.66H4248.97C4246.12 2736.85 4240.94 2746.91 4233.42 2755.86C4226.1 2764.81 4216.84 2771.82 4205.66 2776.9C4194.48 2781.99 4181.97 2784.53 4168.15 2784.53C4151.47 2784.53 4136.63 2780.97 4123.62 2773.85C4110.6 2766.74 4100.44 2756.57 4093.12 2743.35C4085.8 2730.14 4082.14 2714.68 4082.14 2696.99C4082.14 2679.3 4085.69 2663.85 4092.81 2650.63C4100.13 2637.42 4110.3 2627.25 4123.31 2620.13C4136.32 2613.02 4151.27 2609.46 4168.15 2609.46C4184.62 2609.46 4199.26 2612.92 4212.07 2619.83C4224.88 2626.74 4234.84 2636.6 4241.96 2649.41C4249.28 2662.22 4252.94 2677.17 4252.94 2694.25ZM4199.56 2680.52C4199.56 2671.58 4196.51 2664.46 4190.41 2659.17C4184.31 2653.89 4176.69 2651.24 4167.54 2651.24C4158.79 2651.24 4151.37 2653.79 4145.27 2658.87C4139.37 2663.95 4135.71 2671.17 4134.29 2680.52H4199.56Z" fill="url(#paint0_linear)"/>
<defs>
<linearGradient id="paint0_linear" x1="1089" y1="2675.09" x2="4312" y2="2675.09" gradientUnits="userSpaceOnUse">
<stop offset="0.229657" stop-color="#0082CA"/>
<stop offset="1" stop-color="#40BFEF"/>
</linearGradient>
</defs>
</svg>
