<?xml version="1.0" encoding="UTF-8" standalone="no"?>
<svg
   xmlns:dc="http://purl.org/dc/elements/1.1/"
   xmlns:cc="http://creativecommons.org/ns#"
   xmlns:rdf="http://www.w3.org/1999/02/22-rdf-syntax-ns#"
   xmlns:svg="http://www.w3.org/2000/svg"
   xmlns="http://www.w3.org/2000/svg"
   xmlns:sodipodi="http://sodipodi.sourceforge.net/DTD/sodipodi-0.dtd"
   xmlns:inkscape="http://www.inkscape.org/namespaces/inkscape"
   width="198.94846"
   height="31.619999"
   viewBox="0 0 9947.4228 1580.9999"
   version="1.1"
   id="svg3791"
   sodipodi:docname="222.svg"
   style="fill:none"
   inkscape:version="0.92.5 (2060ec1f9f, 2020-04-08)">
  <metadata
     id="metadata3795">
    <rdf:RDF>
      <cc:Work
         rdf:about="">
        <dc:format>image/svg+xml</dc:format>
        <dc:type
           rdf:resource="http://purl.org/dc/dcmitype/StillImage" />
        <dc:title></dc:title>
      </cc:Work>
    </rdf:RDF>
  </metadata>
  <sodipodi:namedview
     pagecolor="#ffffff"
     bordercolor="#666666"
     borderopacity="1"
     objecttolerance="10"
     gridtolerance="10"
     guidetolerance="10"
     inkscape:pageopacity="0"
     inkscape:pageshadow="2"
     inkscape:window-width="1920"
     inkscape:window-height="1027"
     id="namedview3793"
     showgrid="false"
     scale-x="50"
     showguides="true"
     inkscape:guide-bbox="true"
     inkscape:zoom="5.12"
     inkscape:cx="111.04909"
     inkscape:cy="34.815919"
     inkscape:window-x="0"
     inkscape:window-y="0"
     inkscape:window-maximized="1"
     inkscape:current-layer="svg3791" />
  <path
     d="m 1206.6099,374.39 c 222.37,304.12 -85.64,390.86 -230.56,273.38 -256.91,342.54999 -242.64,-329.38 -568.17,58.19 -208.67,-141.78 -142.38,-121.99 0,-331.57 142.39,-209.58 649.41,-204.22 798.73,0 z"
     id="path3774"
     inkscape:connector-curvature="0"
     style="opacity:0.1;fill:#40bfef" />
  <path
     d="m 790.4999,1449.25 c -226.21,0 -351.38,-161.33 -443.87,-319.17 -0.85,-1.45 -25.95,-47.89 -36.23,-72 -31.22,-75.42001 -46.9,-154.8 -46.9,-236.36 V 578.05 c 0,-214.09 138.6,-292.61 236.56,-309.87 21.67,-52.11 87.81,-130.96 289.12,-136.23 155.86,-4.61 307.44,50.46 405.59,146.11 80.31,78.19 122.73,181.55 122.73,299 v 243.67 c 0,81.23 -15.68,160.74 -46.64,236.36 -11.86,27.47 -37.42,72.99 -40.32,78.13 -98.74,163.64 -219.82,314.03 -440.04,314.03 z m 1.32,-1218.56 c 4.41,-0.07 8.96,-0.13 13.37,-0.13 123.32,0 245.12,44.73 320.68,118.31 61.59,59.95 92.82,136.76 92.82,228.19 v 83.88 c 0,0 -77.6,-0.81 -94.99,-0.02 -7.51,0.4 -14.76,0.73 -32.35,0.73 -48.28,0 -122.53,-95.19 -157.5,-159.55 -10.15,-18.58 -31.3,-28.86 -51.91,-25.03 -20.89,3.62 -37.16,20.22 -40.32,41.17 -0.66,4.08 -11,75.95 14.23,157.31 -152.24,-47.3 -217.45,-211.33 -220.55,-219.3 -8.5,-22.27 -31.62,-35.51 -55.14,-31.03 -23.38,4.35 -40.45,24.77 -40.45,48.62 0,124.3 -144.72,191.56 -146.04,192.15 l -31.36,14.71 V 578.05 c 0,-203.02 159.75,-214.22 177.67,-214.82 25.1,-0.53 46.04,-22.4 48.28,-47.43 2.51,-27.6 48.22,-80.96 203.56,-85.11 z m -390.25,789.12 c -26.08,-62.91 -39.26,-129.58 -39.26,-198.15 V 788.3 l 71.61,-32.25 c 6.19,-2.71 114.56,-52.31 170.95,-153.89 60.34,83.93 167.71,184.72 335.83,184.72 18.51,0 35.5,-10.35 43.93,-26.82 6.33,-12.18 7.05,-26.28 2.71,-38.86 31.55,23.25 66.79,39.19 104.01,39.19 19.77,0 28.18,-0.38 36.69,-0.77 l 0.33,-0.02 c 14.89,-0.79 90.32,0.46 90.32,0.46 v 60.61 c 0,68.38 -13.18,135.24 -38.93,198.09 -9.89,22.99 -34.59,66.59 -34.59,66.59 -98.68,163.64 -192.49,265.09 -354.67,265.09 -166.07,0 -263.5,-108.11 -357.83,-268.97 0,0 -22.27,-40.91 -31.1,-61.66 z"
     id="path3776"
     inkscape:connector-curvature="0"
     style="clip-rule:evenodd;fill:#40bfef;fill-rule:evenodd" />
  <path
     d="m 790.5599,1215.68 c -65.24,0 -126.39,-26.14 -172.41,-73.59 -17.82,-18.43 -17.32,-47.76 1.12,-65.65 18.5,-17.88 47.83,-17.32 65.65,1.05 56.51,58.53 154.64,58.6 211.42,0.01 17.95,-18.39 47.28,-18.81 65.65,-1.06 18.44,17.82 18.94,47.21 1.12,65.65 -46.22,47.45 -107.37,73.59 -172.55,73.59 z"
     id="path3778"
     inkscape:connector-curvature="0"
     style="fill:#40bfef;stroke:#ffffff;stroke-width:6" />
  <path
     d="m 92.64,89.639999 h -3 v 3 V 240.86 c 0,23.92 -19.4,43.32 -43.32,43.32 C 22.4,284.18 3,264.78 3,240.86 V 46.32 C 3,22.4 22.4,3 46.32,3 h 194.5199 c 23.93,0 43.32,19.39 43.32,43.32 0,23.92 -19.39,43.319999 -43.32,43.319999 z M 1488.3599,1491.36 h 3 v -3 -148.22 c 0,-23.92 19.4,-43.32 43.32,-43.32 23.92,0 43.32,19.4 43.32,43.32 v 194.54 c 0,23.92 -19.4,43.32 -43.32,43.32 h -194.52 c -23.93,0 -43.32,-19.4 -43.32,-43.32 0,-23.92 19.39,-43.32 43.32,-43.32 z m -1398.7199,-3 v 3 h 3 148.1999 c 23.93,0 43.32,19.4 43.32,43.32 0,23.92 -19.39,43.32 -43.32,43.32 H 46.32 C 22.4,1578 3,1558.6 3,1534.68 v -194.54 c 0,-23.92 19.4,-43.32 43.32,-43.32 23.92,0 43.32,19.4 43.32,43.32 z M 1491.3599,92.639999 v -3 h -3 -148.2 c -23.93,0 -43.32,-19.399999 -43.32,-43.319999 0,-23.92 19.39,-43.32 43.32,-43.32 h 194.52 c 23.92,0 43.32,19.39 43.32,43.32 v 194.54 c 0,23.92 -19.4,43.32 -43.32,43.32 -23.92,0 -43.32,-19.4 -43.32,-43.32 z"
     id="path3780"
     inkscape:connector-curvature="0"
     style="fill:#0082ca;stroke:#ffffff;stroke-width:6" />
  <path
     d="m 2046.6023,600.11505 v 112.47117 h 181.3925 v 104.55067 h -181.3925 v 121.9758 h 205.154 V 1047.6366 H 1911.1746 V 491.6171 h 340.5817 v 108.49795 z m 554.4613,447.52155 -84.7624,-122.78081 -71.2846,122.78081 H 2298.5003 L 2444.2376,821.88919 2294.5271,605.67238 h 152.0736 l 84.7624,121.97578 71.2846,-121.97578 h 146.5163 l -148.1004,222.55321 152.0737,219.41101 z M 2778.405,825.86239 c 0,-45.4195 8.4399,-85.28173 25.3456,-119.61257 17.4251,-34.30488 40.901,-60.71522 70.4795,-79.20506 29.5786,-18.46386 62.585,-27.70878 99.0193,-27.70878 31.1367,0 58.3261,6.3364 81.5682,19.00921 23.7616,12.67281 41.9917,29.29289 54.6645,49.8862 v -62.55901 h 135.4277 v 441.96422 h -135.4277 v -62.58501 c -13.2181,20.59331 -31.682,37.23941 -55.4435,49.91221 -23.2422,12.6728 -50.4316,19.0092 -81.5942,19.0092 -35.915,0 -68.6357,-9.2449 -98.2143,-27.7348 -29.5785,-19.0092 -53.0544,-45.65321 -70.4795,-79.98411 -16.9057,-34.8502 -25.3456,-74.9721 -25.3456,-120.3917 z m 331.0771,0.7791 c 0,-33.7855 -9.5046,-60.45552 -28.5138,-79.98411 -18.4898,-19.52859 -41.1866,-29.31886 -68.1164,-29.31886 -26.9297,0 -49.9121,9.79027 -68.9213,29.31886 -18.4899,19.00921 -27.7088,45.41951 -27.7088,79.20501 0,33.7855 9.2189,60.7153 27.7088,80.7892 19.0092,19.5286 41.9916,29.2929 68.9213,29.2929 26.9298,0 49.6266,-9.7643 68.1164,-29.2929 19.0092,-19.5286 28.5138,-46.1986 28.5138,-80.0101 z m 206.4785,-0.7791 c 0,-45.4195 8.4658,-85.28173 25.3456,-119.61257 17.4251,-34.30488 40.9269,-60.71522 70.5055,-79.20506 29.5526,-18.46386 62.559,-27.70878 98.9933,-27.70878 29.0592,0 55.4436,6.07672 79.2051,18.20418 24.3068,12.15343 43.316,28.51382 57.0276,49.10713 V 461.5192 h 135.4536 v 586.1174 h -135.4536 v -63.36411 c -12.6728,21.11271 -30.877,38.01851 -54.6385,50.69131 -23.2421,12.6728 -50.4315,19.0092 -81.5942,19.0092 -36.4343,0 -69.4407,-9.2449 -98.9933,-27.7348 -29.5786,-19.0092 -53.0804,-45.65321 -70.5055,-79.98411 -16.8798,-34.8502 -25.3456,-74.9721 -25.3456,-120.3917 z m 331.0771,0.7791 c 0,-33.7855 -9.5046,-60.45552 -28.5138,-79.98411 -18.4639,-19.52859 -41.1866,-29.31886 -68.1164,-29.31886 -26.9297,0 -49.8862,9.79027 -68.8954,29.31886 -18.4898,19.00921 -27.7347,45.41951 -27.7347,79.20501 0,33.7855 9.2449,60.7153 27.7347,80.7892 19.0092,19.5286 41.9657,29.2929 68.8954,29.2929 26.9298,0 49.6525,-9.7643 68.1164,-29.2929 19.0092,-19.5286 28.5138,-46.1986 28.5138,-80.0101 z m 650.0527,-7.1155 c 0,12.6728 -0.779,25.865 -2.3631,39.6026 h -306.5366 c 2.1035,27.4491 10.8291,48.5877 26.1507,63.364 15.841,14.2569 35.1099,21.3724 57.8067,21.3724 33.7855,0 57.2873,-14.2569 70.5055,-42.7707 h 144.1532 c -7.4012,29.0591 -20.879,55.1838 -40.4076,78.4259 -19.0092,23.24221 -43.0304,41.44641 -72.0636,54.63851 -29.0592,13.2182 -61.5203,19.8143 -97.4352,19.8143 -43.2901,0 -81.8539,-9.2449 -115.6394,-27.7348 -33.7855,-18.4638 -60.1958,-44.87421 -79.205,-79.20501 -19.0092,-34.3049 -28.5138,-74.4528 -28.5138,-120.3917 0,-45.9389 9.2449,-86.06083 27.7347,-120.39167 19.0092,-34.30488 45.3936,-60.71522 79.2051,-79.20506 33.7855,-18.46386 72.5829,-27.70878 116.4184,-27.70878 42.7707,0 80.7892,8.98523 114.0553,26.92972 33.2661,17.94449 59.1311,43.54979 77.6209,76.81591 19.0092,33.26612 28.5138,72.08958 28.5138,116.44438 z m -138.5958,-35.6552 c 0,-23.21619 -7.9205,-41.70603 -23.7615,-55.44356 -15.841,-13.71156 -35.6553,-20.59331 -59.4168,-20.59331 -22.6968,0 -41.9657,6.62206 -57.8067,19.81424 -15.3216,13.19219 -24.8262,31.94171 -28.5138,56.22263 z M 4503.9844,461.5192 v 586.1174 H 4368.5308 V 461.5192 Z m 243.0167,307.31559 c 0,-54.92416 11.8937,-103.7716 35.6553,-146.54233 23.7615,-43.2901 56.7679,-76.81596 98.9933,-100.57746 42.7707,-24.2809 91.0988,-36.4343 144.9582,-36.4343 66.0129,0 122.4952,17.4251 169.4988,52.2753 47.0037,34.85026 78.4001,82.37329 94.2411,142.56913 h -148.9055 c -11.0887,-23.24214 -26.9298,-40.92694 -47.5231,-53.08037 -20.0479,-12.12746 -43.0304,-18.20417 -68.8954,-18.20417 -41.706,0 -75.5174,14.51659 -101.3824,43.54979 -25.865,29.05916 -38.8235,67.85666 -38.8235,116.44441 0,48.5878 12.9585,87.3852 38.8235,116.4184 25.865,29.0592 59.6764,43.5758 101.3824,43.5758 25.865,0 48.8475,-6.0767 68.8954,-18.2301 20.5933,-12.1275 36.4344,-29.8123 47.5231,-53.0544 h 148.9055 c -15.841,60.1958 -47.2374,107.7188 -94.2411,142.56911 -47.0036,34.3308 -103.4859,51.4703 -169.4988,51.4703 -53.8594,0 -102.1875,-11.8678 -144.9582,-35.6293 -42.2254,-24.28091 -75.2318,-57.83271 -98.9933,-100.60341 -23.7616,-42.7708 -35.6553,-91.5922 -35.6553,-146.5164 z m 827.4721,285.13821 c -43.2901,0 -82.3733,-9.2449 -117.2235,-27.7348 -34.3049,-18.4638 -61.4943,-44.87421 -81.5682,-79.20501 -19.5286,-34.3049 -29.3189,-74.4528 -29.3189,-120.3917 0,-45.3936 10.05,-85.25579 30.0979,-119.58664 20.074,-34.85022 47.5231,-61.52025 82.3733,-80.01009 34.8502,-18.46386 73.9334,-27.70878 117.2235,-27.70878 43.316,0 82.3732,9.24492 117.2234,27.70878 34.8503,18.48984 62.3253,45.15987 82.3733,80.01009 20.0739,34.33085 30.0979,74.19304 30.0979,119.58664 0,45.4196 -10.2837,85.5415 -30.877,120.3917 -20.0739,34.3308 -47.7827,60.74121 -83.1783,79.20501 -34.8502,18.4899 -73.9074,27.7348 -117.2234,27.7348 z m 0,-117.22351 c 25.8909,0 47.8087,-9.5046 65.7531,-28.5138 18.4899,-19.0092 27.7088,-46.1986 27.7088,-81.5942 0,-35.3696 -8.9592,-62.559 -26.9297,-81.56822 -17.4251,-19.00921 -39.0572,-28.51381 -64.9481,-28.51381 -26.3844,0 -48.3021,9.5046 -65.7272,28.51381 -17.4252,18.48984 -26.1507,45.67922 -26.1507,81.56822 0,35.3956 8.4659,62.585 25.3456,81.5942 17.4251,19.0092 39.0832,28.5138 64.9482,28.5138 z m 867.0745,-335.82941 c 54.9242,0 98.474,16.62008 130.7014,49.8862 32.7207,33.26612 49.1071,79.49071 49.1071,138.62181 V 1047.6366 H 6486.7076 V 807.63229 c 0,-28.5138 -7.6608,-50.40558 -22.9824,-65.72722 -14.7763,-15.84101 -35.3696,-23.76151 -61.78,-23.76151 -26.3844,0 -47.2633,7.9205 -62.559,23.76151 -14.8022,15.32164 -22.1774,37.21342 -22.1774,65.72722 V 1047.6366 H 6182.5602 V 807.63229 c 0,-28.5138 -7.6608,-50.40558 -22.9824,-65.72722 -14.7763,-15.84101 -35.3696,-23.76151 -61.78,-23.76151 -26.3844,0 -47.2633,7.9205 -62.559,23.76151 -14.8022,15.32164 -22.1774,37.21342 -22.1774,65.72722 V 1047.6366 H 5877.6078 V 605.67238 h 135.4536 v 55.44354 c 13.7116,-18.48983 31.682,-33.00643 53.8594,-43.57576 22.1774,-11.08871 47.2634,-16.62008 75.2318,-16.62008 33.2662,0 62.8447,7.11547 88.7097,21.37238 26.4103,14.25691 47.0037,34.59053 61.7799,61.00087 15.3217,-24.28089 36.1747,-44.09514 62.585,-59.41677 26.3844,-15.29566 55.1839,-22.95648 86.3205,-22.95648 z m 409.9706,67.31131 c 13.1922,-20.59331 31.4223,-37.21339 54.6385,-49.8862 23.2421,-12.67281 50.4315,-19.00921 81.5942,-19.00921 36.4343,0 69.4407,9.24492 98.9933,27.70878 29.5785,18.48984 52.8207,44.90018 69.7004,79.20506 17.4252,34.33084 26.1507,74.19307 26.1507,119.61257 0,45.4196 -8.7255,85.5415 -26.1507,120.3917 -16.8797,34.3309 -40.1219,60.97491 -69.7004,79.98411 -29.5526,18.4899 -62.559,27.7348 -98.9933,27.7348 -30.6173,0 -57.8327,-6.3364 -81.5942,-19.0092 -23.2162,-12.6728 -41.4463,-29.0332 -54.6385,-49.10721 V 1258.322 H 6716.0647 V 605.67238 h 135.4536 z m 193.2603,157.631 c 0,-33.7855 -9.5046,-60.1958 -28.5138,-79.20501 -18.4898,-19.52859 -41.4463,-29.31886 -68.9214,-29.31886 -26.9297,0 -49.8862,9.79027 -68.8954,29.31886 -18.4898,19.52859 -27.7348,46.19861 -27.7348,79.98411 0,33.8115 9.245,60.4815 27.7348,80.0101 19.0092,19.5286 41.9657,29.2929 68.8954,29.2929 26.9297,0 49.9122,-9.7643 68.9214,-29.2929 19.0092,-20.0739 28.5138,-47.0037 28.5138,-80.7892 z M 7389.0998,679.3201 c 15.8411,-24.2809 35.6293,-43.29011 59.3909,-57.02764 23.7615,-14.25691 50.1718,-21.37238 79.205,-21.37238 v 143.34816 h -37.2134 c -33.8115,0 -59.1571,7.40113 -76.0368,22.17741 -16.9058,14.25694 -25.3457,39.60254 -25.3457,76.03684 V 1047.6366 H 7253.6462 V 605.67238 h 135.4536 z m 619.9549,140.20589 c 0,12.6728 -0.8051,25.865 -2.3892,39.6026 H 7700.155 c 2.1034,27.4491 10.829,48.5877 26.1246,63.364 15.8411,14.2569 35.1359,21.3724 57.8327,21.3724 33.7855,0 57.2873,-14.2569 70.4795,-42.7707 h 144.1532 c -7.3751,29.0591 -20.853,55.1838 -40.3816,78.4259 -19.0092,23.24221 -43.0304,41.44641 -72.0895,54.63851 -29.0332,13.2182 -61.4943,19.8143 -97.4093,19.8143 -43.2901,0 -81.8539,-9.2449 -115.6394,-27.7348 -33.7855,-18.4638 -60.1958,-44.87421 -79.205,-79.20501 -19.0092,-34.3049 -28.5138,-74.4528 -28.5138,-120.3917 0,-45.9389 9.2449,-86.06083 27.7088,-120.39167 19.0092,-34.30488 45.4195,-60.71522 79.205,-79.20506 33.8115,-18.46386 72.609,-27.70878 116.4444,-27.70878 42.7708,0 80.7892,8.98523 114.0553,26.92972 33.2661,17.94449 59.1311,43.54979 77.6209,76.81591 19.0093,33.26612 28.5139,72.08958 28.5139,116.44438 z m -138.6219,-35.6552 c 0,-23.21619 -7.9205,-41.70603 -23.7615,-55.44356 -15.841,-13.71156 -35.6293,-20.59331 -59.3908,-20.59331 -22.6968,0 -41.9916,6.62206 -57.8326,19.81424 -15.2957,13.19219 -24.8003,31.94171 -28.5139,56.22263 z M 8442.4751,491.6171 v 108.49795 h -226.5264 v 117.22347 h 169.4988 V 822.69419 H 8215.9487 V 1047.6366 H 8080.495 V 491.6171 Z m 44.251,334.24529 c 0,-45.4195 8.4398,-85.28173 25.3456,-119.61257 17.4251,-34.30488 40.9269,-60.71522 70.5054,-79.20506 29.5526,-18.46386 62.5591,-27.70878 98.9934,-27.70878 31.1626,0 58.352,6.3364 81.5942,19.00921 23.7615,12.67281 41.9657,29.29289 54.6385,49.8862 v -62.55901 h 135.4536 v 441.96422 h -135.4536 v -62.58501 c -13.1922,20.59331 -31.6821,37.23941 -55.4436,49.91221 -23.2421,12.6728 -50.4315,19.0092 -81.5682,19.0092 -35.9149,0 -68.6617,-9.2449 -98.2143,-27.7348 -29.5785,-19.0092 -53.0803,-45.65321 -70.5054,-79.98411 -16.9058,-34.8502 -25.3456,-74.9721 -25.3456,-120.3917 z m 331.0771,0.7791 c 0,-33.7855 -9.5046,-60.45552 -28.5139,-79.98411 -18.4898,-19.52859 -41.1866,-29.31886 -68.1163,-29.31886 -26.9297,0 -49.8862,9.79027 -68.8954,29.31886 -18.4898,19.00921 -27.7348,45.41951 -27.7348,79.20501 0,33.7855 9.245,60.7153 27.7348,80.7892 19.0092,19.5286 41.9657,29.2929 68.8954,29.2929 26.9297,0 49.6265,-9.7643 68.1163,-29.2929 19.0093,-19.5286 28.5139,-46.1986 28.5139,-80.0101 z m 206.5044,0 c 0,-45.9389 9.2449,-86.06083 27.7088,-120.39167 19.0092,-34.30488 45.1599,-60.71522 78.426,-79.20506 33.7855,-18.46386 72.3233,-27.70878 115.6394,-27.70878 55.4435,0 101.6421,14.5166 138.5958,43.54979 37.4991,29.05917 62.0396,69.98611 73.6737,122.78082 h -144.1532 c -12.1534,-33.7855 -35.6553,-50.69123 -70.5055,-50.69123 -24.8002,0 -44.6145,9.76429 -59.3908,29.29288 -14.8022,19.00921 -22.1774,46.48425 -22.1774,82.37325 0,35.915 7.3752,63.6497 22.1774,83.1783 14.7763,19.0092 34.5906,28.5138 59.3908,28.5138 34.8502,0 58.3521,-16.9057 70.5055,-50.6912 h 144.1532 c -11.6341,51.7559 -36.1746,92.3972 -73.6737,121.97581 -37.4731,29.5785 -83.6976,44.3548 -138.5958,44.3548 -43.3161,0 -81.8539,-9.2449 -115.6394,-27.7348 -33.2661,-18.4638 -59.4168,-44.87421 -78.426,-79.20501 -18.4639,-34.3049 -27.7088,-74.4528 -27.7088,-120.3917 z m 923.1154,-7.1155 c 0,12.6728 -0.805,25.865 -2.3891,39.6026 h -306.5106 c 2.1035,27.4491 10.8031,48.5877 26.1247,63.364 15.841,14.2569 35.1099,21.3724 57.8327,21.3724 33.7855,0 57.2873,-14.2569 70.4795,-42.7707 h 144.1532 c -7.4012,29.0591 -20.853,55.1838 -40.3816,78.4259 -19.0092,23.24221 -43.0564,41.44641 -72.0896,54.63851 -29.0332,13.2182 -61.5202,19.8143 -97.4092,19.8143 -43.3161,0 -81.8539,-9.2449 -115.6394,-27.7348 -33.8115,-18.4638 -60.1958,-44.87421 -79.2051,-79.20501 -19.0092,-34.3049 -28.5138,-74.4528 -28.5138,-120.3917 0,-45.9389 9.219,-86.06083 27.7088,-120.39167 19.0092,-34.30488 45.4196,-60.71522 79.2051,-79.20506 33.7855,-18.46386 72.6089,-27.70878 116.4444,-27.70878 42.7707,0 80.7891,8.98523 114.0552,26.92972 33.2662,17.94449 59.1312,43.54979 77.621,76.81591 19.0092,33.26612 28.5138,72.08958 28.5138,116.44438 z m -138.6218,-35.6552 c 0,-23.21619 -7.9205,-41.70603 -23.7615,-55.44356 -15.841,-13.71156 -35.6293,-20.59331 -59.3908,-20.59331 -22.7228,0 -41.9917,6.62206 -57.8327,19.81424 -15.3216,13.19219 -24.8262,31.94171 -28.5138,56.22263 z"
     id="path3782"
     inkscape:connector-curvature="0"
     style="fill:url(#paint0_linear);stroke-width:2.59688687" />
  <defs
     id="defs3789">
    <linearGradient
       id="paint0_linear"
       x1="1691.21"
       y1="845.72498"
       x2="4914.21"
       y2="845.72498"
       gradientUnits="userSpaceOnUse"
       gradientTransform="matrix(2.5968869,0,0,2.5968869,-2660.8526,-1336.3316)">
      <stop
         offset="0.2297"
         stop-color="#0082CA"
         id="stop3784" />
      <stop
         offset="1"
         stop-color="#40BFEF"
         id="stop3786" />
    </linearGradient>
  </defs>
</svg>
