<?xml version="1.0" encoding="UTF-8"?>
<svg width="26px" height="27px" viewBox="0 0 26 27" version="1.1" xmlns="http://www.w3.org/2000/svg" xmlns:xlink="http://www.w3.org/1999/xlink">
    <defs>
        <polygon id="path-1" points="0.000483842514 0.974 25.0255162 0.974 25.0255162 25.9998162 0.000483842514 25.9998162"></polygon>
    </defs>
    <g id="Design" stroke="none" stroke-width="1" fill="none" fill-rule="evenodd">
        <g id="Edit-Service" transform="translate(-379.000000, -540.000000)">
            <g id="overlay" transform="translate(334.000000, 82.000000)">
                <g id="Group-8" transform="translate(45.000000, 458.000000)">
                    <g id="Group-3" transform="translate(0.000000, 0.026100)">
                        <mask id="mask-2" fill="white">
                            <use xlink:href="#path-1"></use>
                        </mask>
                        <g id="Clip-2"></g>
                        <path d="M12.4965,23.4968 C18.0055,23.4748 22.4985,19.0858 22.5165435,13.5098 C22.5325,8.0148 18.1315,3.5058 12.5425,3.48471816 C7.0375,3.4628 2.5375,7.8788 2.50634079,13.4768 C2.4755,18.9668 6.9755,23.4678 12.4965,23.4968 M12.5075,25.9998162 C5.5965,25.9898 -0.0105,20.3778 0.000483842514,13.4818 C0.0105,6.5708 5.6215,0.9638 12.5175,0.973786645 C19.4295,0.9838 25.0365,6.5958 25.0255162,13.4928 C25.0165,20.4028 19.4035,26.0108 12.5075,25.9998162" id="Fill-1" fill="#39404A" mask="url(#mask-2)"></path>
                    </g>
                    <path d="M13.769,11.6405 C13.769,13.0885 13.774,14.5375 13.767,15.9865 C13.764,16.5315 13.513,16.9445 13.004,17.1615 C12.518,17.3685 12.062,17.2855 11.665,16.9345 C11.385,16.6855 11.258,16.3605 11.258,15.9895 C11.256,13.0925 11.254,10.1955 11.258,7.2985 C11.259,6.5525 11.812,5.9975 12.524,6.00541461 C13.228,6.0125 13.765,6.5595 13.768,7.2945 C13.773,8.7435 13.769,10.1915 13.769,11.6405" id="Fill-4" fill="#39404A"></path>
                    <path d="M12.4828,21.0204 C11.7888,20.9994 11.2368,20.4234 11.2578,19.7404 C11.2798,19.0394 11.8658,18.4934 12.5678,18.5194 C13.2388,18.5434 13.7888,19.1304 13.7678,19.7994 C13.7478,20.4904 13.1688,21.0404 12.4828,21.0204" id="Fill-6" fill="#39404A"></path>
                </g>
            </g>
        </g>
    </g>
</svg>