<svg width="32" height="32" viewBox="0 0 32 32" fill="none" xmlns="http://www.w3.org/2000/svg">
<path d="M4.74976 21.3337V27.2504H10.6665V29.3337H2.6665V21.3337H4.74976ZM29.3332 21.3337V29.3337H21.3332V27.2504H27.4165V21.3337H29.3332ZM10.6665 2.66699V4.58499L4.74976 4.58366V10.667H2.6665V2.66699H10.6665ZM29.3332 2.66699V10.667H27.4165V4.58366H21.3332V2.66699H29.3332Z" fill="#353535"/>
<path fill-rule="evenodd" clip-rule="evenodd" d="M20.7635 21.051C21.062 20.7699 21.0804 20.2954 20.8047 19.9911C20.529 19.6868 20.0637 19.668 19.7652 19.9491C18.7033 20.9492 17.3217 21.5 15.875 21.5C14.4283 21.5 13.0467 20.9492 11.9848 19.9491C11.6863 19.668 11.221 19.6869 10.9453 19.9911C10.6696 20.2954 10.688 20.7699 10.9865 21.051C12.3211 22.3078 14.0571 23 15.875 23C17.6929 23 19.4289 22.3078 20.7635 21.051Z" fill="#353535"/>
<path fill-rule="evenodd" clip-rule="evenodd" d="M17.25 16.1432V10.9766C17.25 10.5753 16.9171 10.25 16.5064 10.25C16.0956 10.25 15.7627 10.5753 15.7627 10.9766V16.1432C15.7627 16.3658 15.5774 16.5469 15.3496 16.5469H14.7436C14.3329 16.5469 14 16.8722 14 17.2734C14 17.6747 14.3329 18 14.7436 18H15.3496C16.3975 18 17.25 17.1671 17.25 16.1432Z" fill="#353535"/>
<path fill-rule="evenodd" clip-rule="evenodd" d="M22.5 13.0527V10.9473C22.5 10.5622 22.1642 10.25 21.75 10.25C21.3358 10.25 21 10.5622 21 10.9473V13.0527C21 13.4378 21.3358 13.75 21.75 13.75C22.1642 13.75 22.5 13.4378 22.5 13.0527Z" fill="#353535"/>
<path fill-rule="evenodd" clip-rule="evenodd" d="M10.125 13.75C9.77983 13.75 9.5 13.4378 9.5 13.0527V10.9473C9.5 10.5622 9.77983 10.25 10.125 10.25C10.4702 10.25 10.75 10.5622 10.75 10.9473V13.0527C10.75 13.4378 10.4702 13.75 10.125 13.75Z" fill="#353535"/>
</svg>
