<?xml version="1.0" encoding="UTF-8"?>
<svg width="15px" height="18px" viewBox="0 0 15 18" version="1.1" xmlns="http://www.w3.org/2000/svg" xmlns:xlink="http://www.w3.org/1999/xlink">
    <defs>
        <polygon id="path-1" points="0 0.0003 14.9997654 0.0003 14.9997654 17.246325 0 17.246325"></polygon>
    </defs>
    <g id="Design" stroke="none" stroke-width="1" fill="none" fill-rule="evenodd">
        <g id="Single-Application" transform="translate(-1189.000000, -313.000000)">
            <g id="copy-icon" transform="translate(1189.000000, 313.000000)">
                <mask id="mask-2" fill="white">
                    <use xlink:href="#path-1"></use>
                </mask>
                <g id="Clip-2"></g>
                <path d="M8.6208,7.491075 C8.24655,7.115325 7.87305,6.739575 7.5123,6.376575 L7.5123,7.491075 L8.6208,7.491075 Z M11.25855,3.738825 L12.36105,3.738825 C11.9988,3.376575 11.62305,3.001575 11.25855,2.635575 L11.25855,3.738825 Z M13.49205,5.247825 L13.3083,5.247825 C12.4098,5.247825 11.5113,5.235825 10.6128,5.252325 C10.0728,5.262075 9.73605,4.908825 9.74355,4.378575 C9.7548,3.480075 9.74655,2.581575 9.74655,1.683075 L9.74655,1.515075 L5.2608,1.515075 L5.2608,3.752325 L5.4303,3.752325 C5.83905,3.752325 6.2478,3.751575 6.65655,3.752325 C6.9393,3.753075 7.18005,3.840825 7.38705,4.049325 C8.57505,5.246325 9.7683,6.437325 10.96305,7.626825 C11.11905,7.782075 11.2398,7.944825 11.2443,8.173575 C11.2458,8.233575 11.2518,8.294325 11.2518,8.354325 C11.25255,9.505575 11.2518,10.656075 11.2518,11.807325 L11.2518,11.991075 L13.49205,11.991075 L13.49205,5.247825 Z M1.50855,15.740325 L9.73755,15.740325 L9.73755,9.000075 L9.5643,9.000075 L6.8838,9.000075 C6.2928,9.000075 6.0003,8.708325 5.99955,8.117325 C5.9988,7.224075 5.99955,6.330075 5.9988,5.436825 C5.9988,5.378325 5.9943,5.319075 5.9913,5.256825 L1.50855,5.256825 L1.50855,15.740325 Z M3.7473,3.752325 L3.7473,3.550575 C3.7473,2.656575 3.74655,1.762575 3.7473,0.868575 C3.7473,0.300825 4.04805,0.000825 4.6173,0.000825 C6.5508,7.5e-05 8.48505,-0.001425 10.4193,0.002325 C10.6833,0.003075 10.91805,0.090825 11.11155,0.285825 C12.31605,1.494075 13.5213,2.703075 14.73405,3.903825 C14.91855,4.086825 14.99655,4.297575 14.99655,4.538325 C15.0003,7.255575 15.00105,9.972075 14.9973,12.688575 C14.99655,13.200075 14.68455,13.497075 14.1648,13.498575 C13.26105,13.501575 12.35655,13.499325 11.4528,13.499325 L11.2518,13.499325 L11.2518,13.688325 C11.2518,14.586825 11.25255,15.486075 11.2518,16.384575 C11.2518,16.946325 10.95255,17.246325 10.39305,17.246325 L0.8493,17.246325 C0.2988,17.245575 0.0003,16.947075 0.0003,16.392075 C-0.00045,12.463575 -0.00045,8.535075 0.0003,4.606575 C0.0003,4.051575 0.2988,3.753075 0.8493,3.752325 C1.75305,3.751575 2.6568,3.752325 3.56055,3.752325 L3.7473,3.752325 Z" id="Fill-1" fill="#11233C" mask="url(#mask-2)"></path>
            </g>
        </g>
    </g>
</svg>