<?xml version="1.0" encoding="UTF-8"?>
<svg width="29px" height="31px" viewBox="0 0 29 31" version="1.1" xmlns="http://www.w3.org/2000/svg" xmlns:xlink="http://www.w3.org/1999/xlink">
    <defs>
        <polygon id="path-1" points="0 0.854 28.148 0.854 28.148 29 0 29"></polygon>
    </defs>
    <g id="Wireframes" stroke="none" stroke-width="1" fill="none" fill-rule="evenodd">
        <g id="Service" transform="translate(-20.000000, -171.000000)">
            <g id="dashboard-icon" transform="translate(20.000000, 171.000000)">
                <g id="Group-3" transform="translate(0.000000, 0.146100)">
                    <mask id="mask-2" fill="white">
                        <use xlink:href="#path-1"></use>
                    </mask>
                    <g id="Clip-2"></g>
                    <path d="M3.3736,25.647 L25.6656,25.647 C25.4366,25.406 25.2496,25.221 25.0746,25.025 C24.7596,24.674 24.7436,24.272 25.0236,23.993 C25.3226,23.694 25.7366,23.697 26.0866,24.036 C26.6956,24.626 27.2966,25.225 27.8856,25.836 C28.2426,26.208 28.2346,26.58 27.8686,26.958 C27.2866,27.558 26.6956,28.148 26.0956,28.73 C25.7416,29.074 25.3376,29.084 25.0336,28.791 C24.7356,28.504 24.7496,28.094 25.0956,27.733 C25.2696,27.551 25.4776,27.403 25.6706,27.24 C25.6436,27.196 25.6156,27.152 25.5876,27.108 L25.1456,27.108 L3.0086,27.108 C2.1056,27.108 1.8936,26.896 1.8936,25.995 L1.8936,3.857 L1.8936,3.413 L1.7556,3.323 C1.5856,3.527 1.4336,3.749 1.2426,3.93 C0.9016,4.253 0.5086,4.255 0.2126,3.969 C-0.0734,3.692 -0.0784,3.272 0.2436,2.937 C0.8406,2.316 1.4496,1.707 2.0696,1.109 C2.4266,0.767 2.8056,0.769 3.1636,1.114 C3.7746,1.703 4.3736,2.304 4.9636,2.914 C5.3046,3.265 5.3086,3.674 5.0106,3.976 C4.7186,4.271 4.3186,4.252 3.9536,3.899 C3.7776,3.73 3.6396,3.523 3.4846,3.334 C3.4476,3.358 3.4106,3.382 3.3736,3.406 L3.3736,25.647 Z" id="Fill-1" fill="#04234d" mask="url(#mask-2)"></path>
                </g>
                <path d="M15.2642,15.5768 C15.2642,13.2768 15.2652,10.9778 15.2632,8.6788 C15.2632,8.1928 15.2142,8.1498 14.7352,8.1478 C14.3242,8.1468 13.9132,8.1478 13.5022,8.1478 C12.8922,8.1488 12.8762,8.1638 12.8762,8.7728 L12.8762,22.3378 C12.8762,22.4278 12.8782,22.5178 12.8782,22.6078 C12.8782,22.8448 12.9862,22.9568 13.2322,22.9529034 C13.7202,22.9448 14.2082,22.9508 14.6972,22.9508 C15.2582,22.9508 15.2642,22.9458 15.2642,22.3978 C15.2642,20.1238 15.2642,17.8498 15.2642,15.5768 M11.4472,15.5438 C11.4472,13.2178 11.4462,10.8918 11.4472,8.5658 C11.4482,7.4128 12.1062,6.7428 13.2522,6.7318 C13.7912,6.7268 14.3312,6.7278 14.8712,6.7318 C16.0362,6.7398 16.6922,7.4068 16.6942,8.5858 C16.6952,10.1278 16.6942,11.6698 16.6942,13.2128 C16.6942,16.2968 16.6942,19.3808 16.6942,22.4648 C16.6942,23.7278 16.0382,24.3848 14.7712,24.3898 C14.2702,24.3918 13.7692,24.3958 13.2682,24.3888 C12.1252,24.3728 11.4512,23.6988 11.4482,22.5598 C11.4432,20.2208 11.4472,17.8828 11.4472,15.5438" id="Fill-4" fill="#04234d"></path>
                <path d="M19.5542,18.881 C19.5542,20.087 19.5622,21.294 19.5492,22.5 C19.5462,22.829 19.6562,22.967 19.9952,22.956 C20.5082,22.938 21.0212,22.942 21.5342,22.954 C21.8292,22.962 21.9492,22.852 21.9482062,22.55 C21.9412,20.111 21.9412,17.673 21.9472,15.235 C21.9482062,14.928 21.8172,14.829 21.5272,14.838 C21.0402,14.851 20.5522,14.839 20.0642,14.841 C19.5842,14.844 19.5552,14.871 19.5542,15.339 C19.5532,16.519 19.5542,17.7 19.5542,18.881 M18.1352,18.856 C18.1352,17.661 18.1322,16.465 18.1362,15.27 C18.1382,14.076 18.8042,13.408 19.9912,13.402 C20.5182,13.4 21.0452,13.396 21.5722,13.403 C22.6822,13.42 23.3772,14.106 23.3812,15.217 C23.3892,17.673 23.3882,20.127 23.3812,22.582 C23.3772,23.693 22.6882,24.373 21.5712,24.389 C21.0322,24.396 20.4912,24.398 19.9522,24.388 C18.7932,24.368 18.1412,23.711 18.1362,22.558 C18.1312,21.324 18.1352,20.09 18.1352,18.856" id="Fill-6" fill="#04234d"></path>
                <path d="M8.5865,19.8453 C8.5865,18.9583 8.5855,18.0713 8.5865,17.1843 C8.5875,16.9473 8.5635,16.7463 8.2445,16.7513 C7.6795,16.7603 7.1135,16.7573 6.5485,16.7523 C6.2815,16.7493 6.19349395,16.8773 6.19349395,17.1333 C6.1995,18.9453 6.2005,20.7583 6.19349395,22.5703 C6.1925,22.8563 6.3155,22.9583 6.5885,22.9533 C7.0895,22.9443 7.5915,22.9333 8.0925,22.9563 C8.4605,22.9733 8.5985,22.8353 8.5915,22.4673 C8.5755,21.5933 8.5865,20.7193 8.5865,19.8453 L8.5865,19.8453 Z M10.0055,19.8993 C10.0055,20.7863 10.0095,21.6733 10.0045,22.5593 C9.9985,23.6923 9.3525,24.3593 8.2265,24.3873 C7.6615,24.4013 7.0955,24.4003 6.5295,24.3873 C5.4605,24.3633 4.7705,23.6843 4.7615,22.6143 C4.7475,20.7763 4.7465,18.9383 4.7615,17.1013 C4.7715,15.9883 5.4735,15.3203 6.5905,15.3133 C7.1565,15.3103 7.7215,15.3063 8.2875,15.3143 C9.2845,15.3293 9.9835,16.0093 10.0015,17.0083 C10.0185,17.9713 10.0045,18.9353 10.0045,19.8993 L10.0055,19.8993 Z" id="Fill-8" fill="#04234d"></path>
            </g>
        </g>
    </g>
</svg>