<?xml version="1.0" encoding="UTF-8"?>
<svg width="17px" height="17px" viewBox="0 0 17 17" version="1.1" xmlns="http://www.w3.org/2000/svg" xmlns:xlink="http://www.w3.org/1999/xlink">
    <defs>
        <polygon id="path-1" points="0 0.000453333333 17 0.000453333333 17 17.003736 0 17.003736"></polygon>
    </defs>
    <g id="Design" stroke="none" stroke-width="1" fill="none" fill-rule="evenodd">
        <g id="Single-Application" transform="translate(-1225.000000, -313.000000)">
            <g id="edit-icon" transform="translate(1225.000000, 313.000000)">
                <mask id="mask-2" fill="white">
                    <use xlink:href="#path-1"></use>
                </mask>
                <g id="Clip-2"></g>
                <path d="M12.6739533,2.46953333 C13.29502,3.10533333 13.89342,3.71846667 14.4521533,4.2908 C14.7388867,4.02786667 15.04262,3.791 15.2953533,3.50766667 C15.6908867,3.06113333 15.6670867,2.32673333 15.2783533,1.87453333 C14.87262,1.40306667 14.1461533,1.25346667 13.6474867,1.59913333 C13.2961533,1.84393333 13.00262,2.17146667 12.6739533,2.46953333 M11.68002,3.49406667 C11.6652867,3.50766667 11.6448867,3.52693333 11.6233533,3.54733333 C8.24942,6.92126667 4.87435333,10.2952 1.50155333,13.6736667 C1.45508667,13.7201333 1.42335333,13.804 1.42222,13.8708667 C1.41542,14.3910667 1.41768667,14.9101333 1.41882,15.4303333 C1.41882,15.4768 1.42448667,15.5221333 1.42788667,15.5833333 L1.60695333,15.5833333 C2.10222,15.5833333 2.59862,15.5799333 3.09388667,15.5856314 C3.20268667,15.5867333 3.27862,15.5572667 3.35682,15.4790667 C6.70695333,12.1266667 10.0593533,8.77653333 13.4128867,5.42753333 C13.4502867,5.3924 13.5046867,5.37653333 13.5545533,5.35046667 C12.9028867,4.7056 12.2965533,4.10493333 11.68002,3.49406667 M2.12375333,17 C1.67495333,17 1.22728667,17.0011333 0.778486667,17 C0.297953333,16.9988667 0.00215333333,16.7064667 0.00102,16.2259333 C-0.000124974257,15.3249333 0.00215333333,14.4228 -0.000124974257,13.5218 C-0.00124666667,13.2792667 0.0803533333,13.0820667 0.253753333,12.9086667 C4.27595333,8.891 8.29588667,4.87106667 12.31582,0.851133333 C13.0649533,0.102 13.96142,-0.1598 14.98822,0.0940666667 C16.1997533,0.3944 17.07242,1.6014 16.9953533,2.84126667 C16.9522867,3.52353333 16.70182,4.1174 16.21902,4.607 C15.78722,5.0456 15.3542867,5.48306667 14.9179533,5.91713333 C11.3252867,9.5132 7.72808667,13.107 4.13655333,16.7064667 C3.92915333,16.9138667 3.70248667,17.0102 3.41235333,17.0034 C2.98282,16.9932 2.55328667,17 2.12375333,17" id="Fill-1" fill="#11233C" mask="url(#mask-2)"></path>
            </g>
        </g>
    </g>
</svg>