<?xml version="1.0" encoding="UTF-8"?>
<svg width="21px" height="21px" viewBox="0 0 21 21" version="1.1" xmlns="http://www.w3.org/2000/svg" xmlns:xlink="http://www.w3.org/1999/xlink">
    <g id="Design" stroke="none" stroke-width="1" fill="none" fill-rule="evenodd">
        <g id="Single-Application" transform="translate(-1261.000000, -311.000000)">
            <g id="face-icon" transform="translate(1262.000000, 312.000000)">
                <path d="M9.65614403,13.9836156 C9.84928899,13.9612854 10.1911697,13.9310316 10.5295258,13.8777272 C10.7177364,13.8481937 10.9045372,13.7927284 11.0842889,13.7271784 C12.009834,13.3886238 12.7760696,12.8123605 13.4111923,12.0545742 C13.7551877,11.6439866 14.0286923,11.1908996 14.0512494,10.6225599 C14.0611181,10.3740464 13.9878076,10.1781169 13.7629417,10.0621439 C13.5317317,9.9418489 13.3012266,9.97066207 13.1080816,10.1298548 C12.9565263,10.2551921 12.8211838,10.4107832 12.7091033,10.5742979 C12.2191918,11.285983 11.5798397,11.7974167 10.7889322,12.1122005 C9.92118967,12.4586789 9.05133242,12.4514756 8.18640952,12.1035566 C7.39620694,11.7858915 6.76531371,11.2614919 6.27610712,10.5512473 C6.16755119,10.3934953 6.03291364,10.2465481 5.88629265,10.1240922 C5.69667222,9.96561976 5.46969164,9.94617088 5.24623561,10.0571016 C5.02912375,10.1651509 4.94664944,10.3531568 4.95087889,10.5973484 C4.95722307,10.9935294 5.08763116,11.3500923 5.30897248,11.6598339 C6.34518817,13.113458 7.70354711,13.969209 9.65614403,13.9836156 M9.62230841,15 C7.38633822,14.8991539 5.71006549,14.0095475 4.5194748,12.2195296 C4.19733156,11.7347481 4.04436638,11.1836963 4.00348168,10.5930264 C3.931581,9.54134591 4.98541941,8.72953499 6.04207746,9.08465725 C6.33109,9.18190168 6.56723439,9.36702626 6.76249408,9.6004129 C7.1558331,10.0715081 7.55058193,10.5346798 8.06798487,10.8775564 C8.98930046,11.4876752 10.0170572,11.4905565 10.9355532,10.8746751 C11.3747113,10.5807808 11.7412638,10.213413 12.0690463,9.79922374 C12.3601735,9.43329654 12.6879561,9.11779239 13.166589,9.03063256 C14.2817545,8.82749975 15.1502019,9.71350457 14.9782042,10.8631499 C14.8513207,11.7080959 14.4565718,12.4096965 13.89194,13.0133323 C13.0749509,13.8878118 12.0930132,14.5008119 10.9426023,14.7947062 C10.4724282,14.9150012 9.980402,14.9459753 9.62230841,15" id="Fill-1" fill="#fff"></path>
                <path d="M9.65614403,13.9836156 C9.84928899,13.9612854 10.1911697,13.9310316 10.5295258,13.8777272 C10.7177364,13.8481937 10.9045372,13.7927284 11.0842889,13.7271784 C12.009834,13.3886238 12.7760696,12.8123605 13.4111923,12.0545742 C13.7551877,11.6439866 14.0286923,11.1908996 14.0512494,10.6225599 C14.0611181,10.3740464 13.9878076,10.1781169 13.7629417,10.0621439 C13.5317317,9.9418489 13.3012266,9.97066207 13.1080816,10.1298548 C12.9565263,10.2551921 12.8211838,10.4107832 12.7091033,10.5742979 C12.2191918,11.285983 11.5798397,11.7974167 10.7889322,12.1122005 C9.92118967,12.4586789 9.05133242,12.4514756 8.18640952,12.1035566 C7.39620694,11.7858915 6.76531371,11.2614919 6.27610712,10.5512473 C6.16755119,10.3934953 6.03291364,10.2465481 5.88629265,10.1240922 C5.69667222,9.96561976 5.46969164,9.94617088 5.24623561,10.0571016 C5.02912375,10.1651509 4.94664944,10.3531568 4.95087889,10.5973484 C4.95722307,10.9935294 5.08763116,11.3500923 5.30897248,11.6598339 C6.34518817,13.113458 7.70354711,13.969209 9.65614403,13.9836156 Z M9.62230841,15 C7.38633822,14.8991539 5.71006549,14.0095475 4.5194748,12.2195296 C4.19733156,11.7347481 4.04436638,11.1836963 4.00348168,10.5930264 C3.931581,9.54134591 4.98541941,8.72953499 6.04207746,9.08465725 C6.33109,9.18190168 6.56723439,9.36702626 6.76249408,9.6004129 C7.1558331,10.0715081 7.55058193,10.5346798 8.06798487,10.8775564 C8.98930046,11.4876752 10.0170572,11.4905565 10.9355532,10.8746751 C11.3747113,10.5807808 11.7412638,10.213413 12.0690463,9.79922374 C12.3601735,9.43329654 12.6879561,9.11779239 13.166589,9.03063256 C14.2817545,8.82749975 15.1502019,9.71350457 14.9782042,10.8631499 C14.8513207,11.7080959 14.4565718,12.4096965 13.89194,13.0133323 C13.0749509,13.8878118 12.0930132,14.5008119 10.9426023,14.7947062 C10.4724282,14.9150012 9.980402,14.9459753 9.62230841,15 Z" id="Stroke-3" stroke="#fff" stroke-width="0.5"></path>
                <polygon id="Fill-5" fill="#fff" points="0 0 3 0 3 0.905631268 0.914888146 0.905631268 0.914888146 3 0 3"></polygon>
                <polygon id="Stroke-7" stroke="#fff" stroke-width="0.5" points="0 0 3 0 3 0.905631268 0.914888146 0.905631268 0.914888146 3 0 3"></polygon>
                <polygon id="Fill-9" fill="#fff" points="18.0851776 3 18.0851776 0.919267475 16 0.919267475 16 0 19 0 19 3"></polygon>
                <polygon id="Stroke-11" stroke="#fff" stroke-width="0.5" points="18.0851776 3 18.0851776 0.919267475 16 0.919267475 16 0 19 0 19 3"></polygon>
                <polygon id="Fill-13" fill="#fff" points="0.916902495 16 0.916902495 18.0827533 3 18.0827533 3 19 0 19 0 16"></polygon>
                <polygon id="Stroke-15" stroke="#fff" stroke-width="0.5" points="0.916902495 16 0.916902495 18.0827533 3 18.0827533 3 19 0 19 0 16"></polygon>
                <polygon id="Fill-17" fill="#fff" points="18.0822622 16 19 16 19 19 16 19 16 18.0923591 18.0822622 18.0923591"></polygon>
                <polygon id="Stroke-19" stroke="#fff" stroke-width="0.5" points="18.0822622 16 19 16 19 19 16 19 16 18.0923591 18.0822622 18.0923591"></polygon>
                <path d="M13.015298,5.00013997 C13.5529275,5.00946052 14.0084489,5.47405417 13.9998811,6.00604257 C13.9913133,6.56455869 13.5265101,7.01194516 12.9681751,6.99975674 C12.4433973,6.98685137 11.9971577,6.52369165 12,5.99313719 C12.0035836,5.44824341 12.4705287,4.99081942 13.015298,5.00013997" id="Fill-21" fill="#fff"></path>
                <path d="M13.015298,5.00013997 C13.5529275,5.00946052 14.0084489,5.47405417 13.9998811,6.00604257 C13.9913133,6.56455869 13.5265101,7.01194516 12.9681751,6.99975674 C12.4433973,6.98685137 11.9971577,6.52369165 12,5.99313719 C12.0035836,5.44824341 12.4705287,4.99081942 13.015298,5.00013997 Z" id="Stroke-23" stroke="#fff" stroke-width="0.5"></path>
                <path d="M6.00363466,5.00004189 C6.55534617,5.00577847 7.00915032,5.46613917 6.99985984,6.01183153 C6.99056936,6.56182633 6.5324773,7.00497729 5.97862183,6.99995778 C5.44834989,6.99422119 4.98739921,6.51665075 5.00026295,5.98601691 C5.01384134,5.4417587 5.4690748,4.99502238 6.00363466,5.00004189" id="Fill-25" fill="#fff"></path>
                <path d="M6.00363466,5.00004189 C6.55534617,5.00577847 7.00915032,5.46613917 6.99985984,6.01183153 C6.99056936,6.56182633 6.5324773,7.00497729 5.97862183,6.99995778 C5.44834989,6.99422119 4.98739921,6.51665075 5.00026295,5.98601691 C5.01384134,5.4417587 5.4690748,4.99502238 6.00363466,5.00004189 Z" id="Stroke-27" stroke="#fff" stroke-width="0.5"></path>
            </g>
        </g>
    </g>
</svg>