<?xml version="1.0" encoding="UTF-8"?>
<svg width="74px" height="60px" viewBox="0 0 74 60" version="1.1" xmlns="http://www.w3.org/2000/svg" xmlns:xlink="http://www.w3.org/1999/xlink">
    <defs>
        <polygon id="path-1" points="0 0.288072085 73.862678 0.288072085 73.862678 59.2770422 0 59.2770422"></polygon>
    </defs>
    <g id="Design" stroke="none" stroke-width="1" fill="none" fill-rule="evenodd">
        <g id="Service" transform="translate(-875.000000, -455.000000)">
            <g id="image-icon" transform="translate(875.000000, 455.000000)">
                <g id="Group-3">
                    <mask id="mask-2" fill="white">
                        <use xlink:href="#path-1"></use>
                    </mask>
                    <g id="Clip-2"></g>
                    <path d="M30.577725,39.0314738 C30.498354,38.9245367 30.4506121,38.8396423 30.3843702,38.7732162 C27.6845637,36.0646396 24.9975879,33.3429565 22.2748056,30.6573162 C21.022475,29.4217311 19.5382976,29.4664123 18.2531444,30.7448914 C13.516846,35.4560811 8.79099113,40.1779943 4.07826532,44.9124182 C3.86402339,45.1277818 3.71095081,45.5048914 3.70557984,45.8099154 C3.67245887,47.7446129 3.67335403,49.680502 3.69274919,51.6157954 C3.71721694,54.0431781 5.24137823,55.5516166 7.67412823,55.5679998 C9.56321694,55.5808084 11.452604,55.5519145 13.3407976,55.5828935 C13.8593944,55.5915319 14.2114911,55.424424 14.5707492,55.0642933 C19.727475,49.8958656 24.8976282,44.7405444 30.063604,39.5813509 C30.235475,39.4097749 30.3957089,39.2265818 30.577725,39.0314738 M19.3037653,55.5391059 C19.6096121,55.5551911 19.7564185,55.569787 19.903225,55.569787 C35.3420718,55.5703828 50.7812169,55.5742551 66.2203621,55.5665104 C68.6340153,55.565021 70.1548944,54.0196459 70.1710073,51.583327 C70.1877169,49.0767096 70.1898056,46.5697943 70.1557895,44.0634747 C70.1516121,43.7432592 69.9737734,43.3384472 69.7386444,43.1218921 C63.9800718,37.8238888 58.2032976,32.5461411 52.4289105,27.2654145 C50.6788702,25.6652305 49.1854427,25.7015712 47.5004508,27.3818836 C38.3011766,36.5552396 29.1022008,45.7288934 19.9038218,54.9031429 C19.732846,55.0735274 19.5720153,55.2543375 19.3037653,55.5391059 M70.1217734,38.4407878 C70.1560879,38.2173816 70.1701121,38.168828 70.1701121,38.1196786 C70.1722008,28.0428681 70.1841363,17.9663554 70.1662331,7.88954483 C70.162354,5.49075813 68.5814992,3.99572392 66.129354,3.99512817 C46.6619831,3.99066005 27.1946121,3.99066005 7.72724113,3.99542605 C5.21392661,3.9960218 3.69334597,5.52203499 3.69185403,8.04503554 C3.68469274,18.4941897 3.68764855,28.9433439 3.69095887,39.3924982 C3.69125726,39.5685422 3.72616855,39.7445863 3.76525726,40.1118661 C4.06245081,39.7749695 4.2313379,39.5607975 4.42290242,39.3695618 C8.11335403,35.6827639 11.7835153,31.974817 15.518725,28.3332961 C16.2819992,27.5892046 17.2186363,26.9043901 18.2039105,26.5278762 C20.7957008,25.5374422 23.0744831,26.2857039 25.0023621,28.19538 C27.5613298,30.7302956 30.1101524,33.2756367 32.6515153,35.8281269 C32.8394992,36.0169796 32.931104,36.3008544 33.1477331,36.6815385 C33.5368298,36.2001727 33.6904992,35.9693196 33.8832573,35.7771903 C37.565354,32.1172012 41.246854,28.4566163 44.9438702,24.8112231 C45.4350153,24.3268785 45.9586847,23.8386615 46.5521766,23.4999777 C49.4128137,21.8676232 52.2737492,22.2417541 54.7673702,24.5088801 C58.7923137,28.1685713 62.8184508,31.8273689 66.8457815,35.4852729 C67.9044589,36.4468131 68.9697008,37.4015022 70.1217734,38.4407878 M37.0106524,0.290755706 C46.6816766,0.290755706 56.3527008,0.289862081 66.023725,0.291649331 C68.5755315,0.291947206 70.7292895,1.14059284 72.3316282,3.20933414 C73.4320798,4.62960174 73.8548944,6.25540304 73.8557895,8.00809905 C73.862678,22.5268204 73.8686202,37.0458396 73.853104,51.5645609 C73.8495234,54.7095242 72.5282653,57.1616306 69.6154105,58.5032592 C68.5895556,58.9759867 67.3700476,59.2390102 66.2382653,59.2416911 C46.6974911,59.284883 27.1564185,59.2830957 7.61534597,59.2649253 C3.09000726,59.2607551 0.012741129,56.0538337 0.0067733871,51.4063893 C-0.00575887097,42.0498403 0.00289435484,32.6932913 0.00289435484,23.3367423 C0.00289435484,18.2984859 0.00468467742,13.2602296 0.00199919355,8.22197324 C0.00110403226,6.39063825 0.374983065,4.67100636 1.53242661,3.19831277 C3.13715242,1.15638021 5.28613629,0.286287582 7.84868468,0.288072085 C17.5692411,0.294925955 27.290096,0.290755706 37.0106524,0.290755706" id="Fill-1" fill="#5B5B5B" mask="url(#mask-2)"></path>
                </g>
                <path d="M29.7641574,14.4510892 C29.7205187,16.4941134 31.4093978,18.2276528 33.4634481,18.2479617 C35.4599196,18.2676645 37.1909221,16.5832305 37.2315304,14.5805212 C37.2730478,12.5341627 35.5738651,10.7621271 33.5546652,10.7463649 C31.4790985,10.7299965 29.8087053,12.3625971 29.7641574,14.4510892 M26.0000074,14.4944353 C26.0054696,10.3641315 29.326558,7.01617865 33.4343556,7.00005646 C37.5782158,6.98404801 41.0138559,10.3741344 40.999958,14.4653358 C40.9856725,18.616858 37.6127631,22.0078537 33.5055716,21.9999863 C29.3517109,21.9920915 25.9942569,18.634742 26.0000074,14.4944353" id="Fill-4" fill="#5B5B5B"></path>
            </g>
        </g>
    </g>
</svg>