<svg width="14" height="14" viewBox="0 0 14 14" fill="none" xmlns="http://www.w3.org/2000/svg">
<path d="M6.99967 13.6667C3.31767 13.6667 0.333008 10.682 0.333008 7C0.333008 3.318 3.31767 0.333328 6.99967 0.333328C10.6817 0.333328 13.6663 3.318 13.6663 7C13.6663 10.682 10.6817 13.6667 6.99967 13.6667ZM6.99967 12.3333C8.41416 12.3333 9.77072 11.7714 10.7709 10.7712C11.7711 9.77104 12.333 8.41448 12.333 7C12.333 5.58551 11.7711 4.22895 10.7709 3.22876C9.77072 2.22856 8.41416 1.66666 6.99967 1.66666C5.58519 1.66666 4.22863 2.22856 3.22844 3.22876C2.22824 4.22895 1.66634 5.58551 1.66634 7C1.66634 8.41448 2.22824 9.77104 3.22844 10.7712C4.22863 11.7714 5.58519 12.3333 6.99967 12.3333ZM6.33301 3.66666H7.66634V5H6.33301V3.66666ZM6.33301 6.33333H7.66634V10.3333H6.33301V6.33333Z" fill="#222222" fill-opacity="0.45"/>
</svg>
