<?xml version="1.0" encoding="UTF-8"?>
<svg width="18px" height="19px" viewBox="0 0 18 19" version="1.1" xmlns="http://www.w3.org/2000/svg" xmlns:xlink="http://www.w3.org/1999/xlink">
    <defs>
        <polygon id="path-1" points="0.000353767327 0.22903161 17.77104 0.22903161 17.77104 18 0.000353767327 18"></polygon>
    </defs>
    <g id="Design" stroke="none" stroke-width="1" fill="none" fill-rule="evenodd">
        <g id="Single-Application" transform="translate(-1299.000000, -312.000000)">
            <g id="play-icon" transform="translate(1299.000000, 312.000000)">
                <g id="Group-3" transform="translate(0.000000, 0.491184)">
                    <mask id="mask-2" fill="white">
                        <use xlink:href="#path-1"></use>
                    </mask>
                    <g id="Clip-2"></g>
                    <path d="M1.61170287,9.107352 C1.60308,13.106232 4.86324,16.374312 8.87436,16.3887549 C12.87036,16.402392 16.14132,13.143672 16.160108,9.129672 C16.17732,5.130072 12.89988,1.843992 8.88876,1.84038902 C4.88772,1.836792 1.62036,5.099832 1.61170287,9.107352 M8.89236,18.0000799 C3.98916,18.006552 0.0054,14.027112 0.000353767327,9.117432 C-0.0054,4.214952 3.98196,0.227592 8.8866,0.22903161 C13.78764,0.229752 17.76348,4.201272 17.7714118,9.103752 C17.77932,14.007672 13.80204,17.993592 8.89236,18.0000799" id="Fill-1" fill="#11233C" mask="url(#mask-2)"></path>
                </g>
                <path d="M11.396736,9.6066 C10.008576,8.73828 8.660736,7.89588 7.284816,7.03548 L7.284816,12.17844 M5.650416,9.62388 C5.650416,8.30196 5.649696,6.98076 5.651136,5.65884 C5.651856,5.19444 5.830416,4.92804 6.228576,4.79772 C6.483456,4.7142 6.721776,4.7682 6.944256,4.90716 C8.096256,5.62644 9.248256,6.34716 10.399536,7.06716 C11.362176,7.6698 12.319776,8.28036 13.288896,8.87148 C13.756176,9.1566 13.816656,9.65772 13.645296,9.945 C13.551696,10.10196 13.414176,10.2546 13.259376,10.35108 C11.166336,11.6658 9.065376,12.96756 6.969456,14.27868 C6.466896,14.5926 6.018336,14.44644 5.796576,14.09436 C5.701536,13.94388 5.658336,13.73796 5.656896,13.5558 C5.645376,12.2454 5.650416,10.93428 5.650416,9.62388" id="Fill-4" fill="#11233C"></path>
            </g>
        </g>
    </g>
</svg>