<svg width="12" height="15" viewBox="0 0 12 15" fill="none" xmlns="http://www.w3.org/2000/svg">
<path d="M11.5554 14.75H0.444336V13.3611C0.444336 12.4402 0.810158 11.5571 1.46133 10.9059C2.11249 10.2547 2.99567 9.88891 3.91656 9.88891H8.08322C9.00411 9.88891 9.88729 10.2547 10.5385 10.9059C11.1896 11.5571 11.5554 12.4402 11.5554 13.3611V14.75ZM5.99989 8.50002C5.45272 8.50002 4.9109 8.39225 4.40538 8.18285C3.89985 7.97346 3.44052 7.66654 3.05361 7.27963C2.6667 6.89272 2.35979 6.43339 2.15039 5.92787C1.941 5.42234 1.83322 4.88053 1.83322 4.33335C1.83322 3.78618 1.941 3.24436 2.15039 2.73884C2.35979 2.23332 2.6667 1.77399 3.05361 1.38708C3.44052 1.00016 3.89985 0.69325 4.40538 0.483856C4.9109 0.274461 5.45272 0.166687 5.99989 0.166687C7.10496 0.166687 8.16477 0.605674 8.94617 1.38708C9.72757 2.16848 10.1666 3.22828 10.1666 4.33335C10.1666 5.43842 9.72757 6.49823 8.94617 7.27963C8.16477 8.06103 7.10496 8.50002 5.99989 8.50002Z" fill="#222222"/>
</svg>
