<svg width="14" height="14" viewBox="0 0 14 14" fill="none" xmlns="http://www.w3.org/2000/svg">
<path d="M11.0203 10.078L13.8757 12.9327L12.9323 13.876L10.0777 11.0207C9.0155 11.8721 7.69434 12.3353 6.33301 12.3333C3.02101 12.3333 0.333008 9.64533 0.333008 6.33333C0.333008 3.02133 3.02101 0.333332 6.33301 0.333332C9.64501 0.333332 12.333 3.02133 12.333 6.33333C12.3349 7.69467 11.8718 9.01583 11.0203 10.078ZM9.68301 9.58333C10.5291 8.71326 11.0016 7.54695 10.9997 6.33333C10.9997 3.75467 8.91101 1.66667 6.33301 1.66667C3.75434 1.66667 1.66634 3.75467 1.66634 6.33333C1.66634 8.91133 3.75434 11 6.33301 11C7.54663 11.0019 8.71293 10.5294 9.58301 9.68333L9.68301 9.58333Z" fill="#222222" fill-opacity="0.45"/>
</svg>
