<?xml version="1.0" encoding="UTF-8"?>
<svg width="22px" height="22px" viewBox="0 0 22 22" version="1.1" xmlns="http://www.w3.org/2000/svg" xmlns:xlink="http://www.w3.org/1999/xlink">
    <title>search-iconSVG</title>
    <defs>
        <polygon id="path-1" points="0 0.0002 21.0544338 0.0002 21.0544338 21.0260845 0 21.0260845"></polygon>
    </defs>
    <g id="Wireframes" stroke="none" stroke-width="1" fill="none" fill-rule="evenodd">
        <g id="Welcome" transform="translate(-838.000000, -170.000000)">
            <g id="search-icon" transform="translate(838.000000, 170.000000)">
                <mask id="mask-2" fill="white">
                    <use xlink:href="#path-1"></use>
                </mask>
                <g id="Clip-2"></g>
                <path d="M8.831,2.6356 C5.379,2.6666 2.64,5.4536 2.64299754,8.8426 C2.645,12.2846 5.426,15.0446 8.851,15.0386098 C12.272,15.0326 15.071,12.2136 15.044,8.8206 C15.018,5.3856 12.236,2.6476 8.831,2.6356 M14.128,15.9436 C9.65,19.1486 4.279,17.5376 1.768,14.1456 C-0.847,10.6136 -0.556,5.7326 2.606,2.5756 C5.735,-0.5474 10.654,-0.8504 14.166,1.7766 C17.596,4.3416 19.113,9.7116 15.943,14.1316 C15.998,14.1696 16.066,14.2056 16.118,14.2576 C17.609,15.7386 19.098,17.2206 20.59,18.7006 C20.954,19.0626 21.139,19.4816 21.017,19.9976 C20.896,20.5076 20.572,20.8386 20.069,20.9736 C19.551,21.1146 19.102,20.9666 18.726,20.5886 C17.698,19.5596 16.669,18.5316 15.641,17.5016 C15.176,17.0356 14.71,16.5686 14.247,16.1006 C14.199,16.0526 14.164,15.9916 14.128,15.9436" id="Fill-1" fill="#6E6E6E" mask="url(#mask-2)"></path>
            </g>
        </g>
    </g>
</svg>