<?xml version="1.0" encoding="UTF-8"?>
<svg width="26px" height="26px" viewBox="0 0 26 26" version="1.1" xmlns="http://www.w3.org/2000/svg" xmlns:xlink="http://www.w3.org/1999/xlink">
    <defs>
        <polygon id="path-1" points="0.000246335872 0.00340212766 25.9950213 0.00340212766 25.9950213 26 0.000246335872 26"></polygon>
    </defs>
    <g id="Design" stroke="none" stroke-width="1" fill="none" fill-rule="evenodd">
        <g id="Single-Application" transform="translate(-1361.000000, -143.000000)">
            <g id="Group-6" transform="translate(1361.000000, 143.000000)">
                <g id="Group-3">
                    <mask id="mask-2" fill="white">
                        <use xlink:href="#path-1"></use>
                    </mask>
                    <g id="Clip-2"></g>
                    <path d="M20.2499064,21.7669234 C20.3190553,21.7010936 20.3810128,21.6441149 20.4407574,21.5843702 C20.8307574,21.1954766 21.2096936,20.794966 21.615183,20.4221149 C21.7590128,20.2904553 21.754034,20.2041574 21.6682894,20.0547957 C21.3103745,19.4307957 20.9602043,18.801817 20.6122468,18.1717319 C20.4623319,17.8995617 20.4269277,17.6124553 20.5773957,17.3281149 C20.9142894,16.6902851 21.2113532,16.036966 21.4093957,15.3404979 C21.5045447,15.0047106 21.7418638,14.8144128 22.0671404,14.7203702 C22.7575234,14.5212213 23.4462468,14.3165404 24.1399489,14.1284553 C24.2915234,14.0875191 24.3368851,14.0244553 24.3352255,13.8756468 C24.3285872,13.2936894 24.3263745,12.7117319 24.3364275,12.1297745 C24.3390979,11.9660298 24.2821191,11.9002 24.1277787,11.8587106 C23.4550979,11.6767106 22.7873957,11.4742426 22.1141617,11.2955617 C21.7324596,11.1943277 21.5178213,10.9581149 21.3795234,10.5952213 C21.1377787,9.96126383 20.8728,9.33505106 20.5950979,8.71602979 C20.4529277,8.39794468 20.4551404,8.10530638 20.6194383,7.80768936 C20.9712681,7.17373191 21.3197787,6.53700851 21.6821191,5.90913617 C21.7579064,5.7774766 21.7551404,5.70334894 21.6461617,5.59768936 C21.2290553,5.19275319 20.8158213,4.78228511 20.4130979,4.36296596 C20.298034,4.2434766 20.211183,4.23794468 20.0750979,4.31539149 C19.4499915,4.67275319 18.8182468,5.0168383 18.1931404,5.3742 C17.8899915,5.54790213 17.5918213,5.53573191 17.2814809,5.40296596 C16.6508426,5.13411489 16.0229702,4.85530638 15.3834809,4.60802979 C15.0277787,4.47028511 14.8076085,4.25177447 14.7074809,3.88224255 C14.5249277,3.20402979 14.318034,2.53190213 14.1332681,1.85424255 C14.0923319,1.70432766 14.0242894,1.66117872 13.8765872,1.6628383 C13.2946298,1.67002979 12.7126723,1.67168936 12.1307149,1.6621769 C11.9702894,1.65951915 11.8989277,1.70930638 11.8563319,1.86641277 C11.6710128,2.54628511 11.4663319,3.22173191 11.2810128,3.90160426 C11.1825447,4.26117872 10.9629277,4.47471064 10.6160766,4.60802979 C9.96884255,4.85696596 9.32990638,5.12913617 8.69262979,5.40517872 C8.41105532,5.52743404 8.14331064,5.55066809 7.87003404,5.4002 C7.20786383,5.03509362 6.54458723,4.67330638 5.88573617,4.30211489 C5.77177872,4.23794468 5.70428936,4.24126383 5.6108,4.33696596 C5.20475745,4.75351915 4.79594894,5.16785957 4.3755234,5.57002979 C4.24275745,5.69671064 4.23556596,5.79185957 4.32462979,5.94454043 C4.67037447,6.54032766 5.0000766,7.14496596 5.34305532,7.74241277 C5.54054468,8.08649787 5.5394383,8.4162 5.37292766,8.7802 C5.09467234,9.38981702 4.84075745,10.0121574 4.5968,10.6372638 C4.46237447,10.9824553 4.24441702,11.1948809 3.88262979,11.290583 C3.20386383,11.4709234 2.53228936,11.6789234 1.85462979,11.8642426 C1.70748085,11.9040723 1.65769362,11.9676894 1.65924501,12.1187106 C1.66765106,12.7006681 1.66820426,13.2826255 1.65924501,13.8640298 C1.65658723,14.0250085 1.70637447,14.0924979 1.86458723,14.1356468 C2.54501277,14.3204128 3.21935319,14.5273064 3.90033191,14.7115191 C4.27373617,14.8127532 4.4795234,15.0495191 4.61394894,15.4030085 C4.8440766,16.0076468 5.09245957,16.6067532 5.36131064,17.1953489 C5.51786383,17.5372213 5.56045957,17.8486681 5.36794894,18.1877745 C5.0061617,18.8244979 4.66097021,19.4711787 4.30084255,20.1090085 C4.24386383,20.2107957 4.21841702,20.2738596 4.31411915,20.3667957 C4.75445957,20.7927532 5.19148085,21.222583 5.62297021,21.6573915 C5.71756596,21.7530936 5.78173617,21.7542 5.89845957,21.6872638 C6.55067234,21.3160723 7.20841702,20.9542851 7.86671489,20.5936043 C8.13777872,20.4453489 8.40994894,20.4636043 8.6920766,20.5864128 C9.33599149,20.8663277 9.98101277,21.1440298 10.6337787,21.4012638 C10.978417,21.5367957 11.1919489,21.7530936 11.2876511,22.1148809 C11.4679915,22.7930936 11.6754383,23.4652213 11.8602043,24.1423277 C11.900034,24.287817 11.9614383,24.3409234 12.113566,24.3387767 C12.7032681,24.330966 13.2929702,24.330966 13.8826723,24.3387767 C14.0370128,24.3409234 14.0978638,24.2828383 14.1365872,24.1401149 C14.3257787,23.4447532 14.5243745,22.7527106 14.7196511,22.0590085 C14.8103745,21.7370511 15.0150553,21.5379021 15.3303745,21.4150936 C15.9698638,21.1656043 16.6065872,20.9067106 17.2294809,20.6196043 C17.5951404,20.4508809 17.9198638,20.4608383 18.2633957,20.6577745 C18.9189277,21.0328383 19.5822043,21.3951787 20.2499064,21.7669234 M2.35360851,20.3762 C2.39731064,20.2456468 2.42386383,20.1062426 2.48803404,19.9873064 C2.86475745,19.286966 3.2448,18.5888383 3.63701277,17.8973489 C3.72331064,17.7457745 3.72828936,17.6290511 3.65637447,17.4736043 C3.50369362,17.1450085 3.35709787,16.811434 3.2381617,16.4695617 C3.17122553,16.2770511 3.06445957,16.1857745 2.8741617,16.1348809 C2.17105532,15.9451362 1.47126809,15.7437745 0.771480851,15.5435191 C0.181225532,15.3742426 0.000885106383,15.1347106 0.000885106383,14.5256468 C0.000246335872,13.5016894 -0.000221276596,12.4777319 0.000885106383,11.4532213 C0.00143829787,10.8602 0.211097872,10.6002 0.783097872,10.4425404 C1.51220426,10.2411787 2.23965106,10.0337319 2.96377872,9.81577447 C3.05671489,9.78811489 3.15905532,9.6968383 3.1994383,9.60888085 C3.37424681,9.22994468 3.53467234,8.84381702 3.68182128,8.45381702 C3.71335319,8.36917872 3.70062979,8.24028511 3.65692766,8.15896596 C3.2774383,7.44977447 2.88633191,6.74611489 2.49799149,6.04134894 C2.30160851,5.68454043 2.33701277,5.27960426 2.62190638,4.99028511 C3.41794894,4.18428511 4.21897021,3.38326383 5.02497021,2.58777447 C5.29437447,2.32113617 5.70373617,2.30232766 6.07935319,2.50977447 C6.77526809,2.89368936 7.47062979,3.27981702 8.17097021,3.65654043 C8.24565106,3.69637021 8.36403404,3.70964681 8.44092766,3.68032766 C8.82982128,3.53096596 9.20820426,3.35339149 9.59875745,3.20734894 C9.73373617,3.15700851 9.79182128,3.08564681 9.82833191,2.95564681 C10.0291404,2.23096596 10.2376936,1.50905106 10.4434809,0.786029787 C10.6050128,0.219008511 10.891566,0.00381702128 11.4884596,0.00381702128 C12.4963745,0.00340212766 13.5053957,0.00340212766 14.5138638,0.00381702128 C15.1251404,0.00437021277 15.3696511,0.182497872 15.5383745,0.764455319 C15.7519064,1.49854043 15.9554809,2.2348383 16.1745447,2.96726383 C16.2005447,3.0535617 16.2846298,3.1509234 16.3665021,3.18798723 C16.7260766,3.34896596 17.1016936,3.47509362 17.4568426,3.64381702 C17.6432681,3.73288085 17.7771404,3.70632766 17.9453106,3.60951915 C18.6102468,3.22837021 19.2801617,2.85662553 19.9550553,2.49373191 C20.3638638,2.2735617 20.7256511,2.33939149 21.0514809,2.66522128 C21.7866723,3.39985957 22.522417,4.13449787 23.2565021,4.87024255 C23.6774809,5.29232766 23.730034,5.61373191 23.444034,6.13926383 C23.0839064,6.8042 22.716034,7.46471064 22.3420766,8.12134894 C22.2690553,8.24968936 22.2635234,8.34760426 22.3254809,8.48424255 C22.4892255,8.84215745 22.6402468,9.20671064 22.773566,9.57679574 C22.825566,9.72117872 22.9030128,9.78590213 23.0418638,9.82462553 C23.7665447,10.025434 24.4890128,10.2328809 25.2114809,10.4397745 C25.8045021,10.6101574 25.9942468,10.8613064 25.9942468,11.4759021 C25.9953532,12.5004128 25.9953532,13.5243702 25.9942468,14.5483277 C25.9936936,15.1247532 25.8033957,15.3770085 25.2485447,15.5363277 C24.5210979,15.745434 23.7947574,15.9578596 23.0645447,16.1542426 C22.9107574,16.1957319 22.8327574,16.2753915 22.7774383,16.412583 C22.6214383,16.7992638 22.4516085,17.1804128 22.3016936,17.5698596 C22.274034,17.6412213 22.2889702,17.752966 22.3271404,17.8232213 C22.6939064,18.5042 23.0634383,19.1840723 23.4462468,19.8567532 C23.7101191,20.3197745 23.6752681,20.6964979 23.3007574,21.0737745 C22.6065021,21.7730085 21.9128,22.4722426 21.2179915,23.1703702 C20.6708851,23.7191362 20.3633106,23.7545404 19.7005872,23.3733915 C19.0793532,23.0154766 18.4531404,22.6658596 17.8241617,22.3217745 C17.7566723,22.2852638 17.6443745,22.2847106 17.5708,22.3134766 C17.1680766,22.4711362 16.7686723,22.6376468 16.3753532,22.8163277 C16.2929277,22.8539447 16.2049702,22.9457745 16.1795234,23.030966 C15.9510553,23.7866255 15.7369702,24.5461574 15.5179064,25.304583 C15.3834809,25.7703702 15.1063319,25.9938596 14.6289277,25.9960723 C13.5347149,26.0010511 12.4410553,26.0016043 11.3473957,25.9960723 C10.8849277,25.9933064 10.5994809,25.7537745 10.475566,25.3095617 C10.2592681,24.5367532 10.0402043,23.7639447 9.81228936,22.9944553 C9.79126809,22.9219872 9.70718298,22.8478596 9.6341617,22.8146681 C9.25411915,22.6437319 8.87131064,22.4766681 8.48186383,22.3300723 C8.38394894,22.2930085 8.2368,22.2996468 8.1455234,22.3483277 C7.4501617,22.7211787 6.76199149,23.1078596 6.07271489,23.4923277 C5.68990638,23.7064128 5.27445957,23.663817 4.96301277,23.3540298 C4.18854468,22.5823277 3.41241702,21.8111787 2.65509787,21.0223277 C2.50020426,20.8607957 2.42718298,20.6207106 2.31599149,20.4171362 C2.32871489,20.4033064 2.34088511,20.3900298 2.35360851,20.3762" id="Fill-1" fill="#11233C" mask="url(#mask-2)"></path>
                </g>
                <path d="M17.3659651,12.9934322 C17.3599508,10.5807079 15.4201875,8.640264 13.0102115,8.63588687 C10.5964172,8.63098219 8.63810721,10.5916277 8.64463673,13.0070819 C8.65119898,15.4274499 10.6133274,17.3804516 13.0238488,17.3646179 C15.4360067,17.3493302 17.3719516,15.4001505 17.3659651,12.9934322 M7,13.0032599 C7.0670953,9.50784009 9.81472968,6.98045826 13.0080296,7 C16.5182593,7.0219534 19.0318784,9.84471514 18.9996945,13.0305594 C18.9647831,16.4648285 16.2160577,19.0222397 12.9911194,18.9998542 C9.55725828,18.9763767 7.03654785,16.2344213 7,13.0032599" id="Fill-4" fill="#11233C"></path>
            </g>
        </g>
    </g>
</svg>