<?xml version="1.0" encoding="UTF-8"?>
<svg width="20px" height="20px" viewBox="0 0 20 20" version="1.1" xmlns="http://www.w3.org/2000/svg" xmlns:xlink="http://www.w3.org/1999/xlink">
    <defs>
        <polygon id="path-1" points="0 0.000181818182 19.1403944 0.000181818182 19.1403944 19.1146222 0 19.1146222"></polygon>
    </defs>
    <g id="Design" stroke="none" stroke-width="1" fill="none" fill-rule="evenodd">
        <g id="Single-Application" transform="translate(-942.000000, -211.000000)">
            <g id="search-icon" transform="translate(942.000000, 211.000000)">
                <mask id="mask-2" fill="white">
                    <use xlink:href="#path-1"></use>
                </mask>
                <g id="Clip-2"></g>
                <path d="M8.02818182,2.396 C4.89,2.42418182 2.4,4.95781818 2.40272503,8.03872727 C2.40454545,11.1678182 4.93272727,13.6769091 8.04636364,13.6714634 C11.1563636,13.666 13.7009091,11.1032727 13.6763636,8.01872727 C13.6527273,4.896 11.1236364,2.40690909 8.02818182,2.396 M12.8436364,14.4941818 C8.77272727,17.4078182 3.89,15.9432727 1.60727273,12.8596364 C-0.77,9.64872727 -0.505454545,5.21145455 2.36909091,2.34145455 C5.21363636,-0.497636364 9.68545455,-0.773090909 12.8781818,1.61509091 C15.9963636,3.94690909 17.3754545,8.82872727 14.4936364,12.8469091 C14.5436364,12.8814545 14.6054545,12.9141818 14.6527273,12.9614545 C16.0081818,14.3078182 17.3618182,15.6550909 18.7181818,17.0005455 C19.0490909,17.3296364 19.2172727,17.7105455 19.1063636,18.1796364 C18.9963636,18.6432727 18.7018182,18.9441818 18.2445455,19.0669091 C17.7736364,19.1950909 17.3654545,19.0605455 17.0236364,18.7169091 C16.0890909,17.7814545 15.1536364,16.8469091 14.2190909,15.9105455 C13.7963636,15.4869091 13.3727273,15.0623636 12.9518182,14.6369091 C12.9081818,14.5932727 12.8763636,14.5378182 12.8436364,14.4941818" id="Fill-1" fill="#6E6E6E" mask="url(#mask-2)"></path>
            </g>
        </g>
    </g>
</svg>