<svg width="28" height="28" viewBox="0 0 28 28" fill="none" xmlns="http://www.w3.org/2000/svg">
<path d="M3.33317 8.6665H24.6665V25.9998C24.6665 26.3535 24.526 26.6926 24.276 26.9426C24.0259 27.1927 23.6868 27.3332 23.3332 27.3332H4.6665C4.31288 27.3332 3.97374 27.1927 3.7237 26.9426C3.47365 26.6926 3.33317 26.3535 3.33317 25.9998V8.6665ZM5.99984 11.3332V24.6665H21.9998V11.3332H5.99984ZM9.99984 13.9998H12.6665V21.9998H9.99984V13.9998ZM15.3332 13.9998H17.9998V21.9998H15.3332V13.9998ZM7.33317 4.6665V1.99984C7.33317 1.64622 7.47365 1.30708 7.7237 1.05703C7.97374 0.80698 8.31288 0.666504 8.6665 0.666504H19.3332C19.6868 0.666504 20.0259 0.80698 20.276 1.05703C20.526 1.30708 20.6665 1.64622 20.6665 1.99984V4.6665H27.3332V7.33317H0.666504V4.6665H7.33317ZM9.99984 3.33317V4.6665H17.9998V3.33317H9.99984Z" fill="#FF6B6B"/>
</svg>
