<?xml version="1.0" encoding="UTF-8"?>
<svg width="15px" height="20px" viewBox="0 0 15 20" version="1.1" xmlns="http://www.w3.org/2000/svg" xmlns:xlink="http://www.w3.org/1999/xlink">
    <defs>
        <polygon id="path-1" points="0 0.984 14.9998661 0.984 14.9998661 5.4905 0 5.4905"></polygon>
    </defs>
    <g id="Wireframes" stroke="none" stroke-width="1" fill="none" fill-rule="evenodd">
        <g id="System-Users" transform="translate(-1001.000000, -370.000000)">
            <g id="overlay" transform="translate(0.000000, -20.000000)">
                <g id="trash-icon" transform="translate(1001.000000, 390.000000)">
                    <path d="M2.9507,17.5008 L12.0497,17.5008 C12.2667,14.2508 12.4827,11.0128 12.6997,7.7708 L2.3007,7.7708 C2.5177,11.0188 2.7337,14.2538 2.9507,17.5008 M7.4997,6.2518 C9.4717,6.2518 11.4427,6.2528 13.4137,6.2518 C13.7597,6.2518 14.0437,6.3668 14.1847,6.7018 C14.2367,6.8218 14.2597,6.9678 14.2517,7.0988 C14.1407,8.8178 14.0217,10.5368 13.9077,12.2558 C13.8107,13.6978 13.7187,15.1398 13.6227,16.5818 C13.5847,17.1568 13.5467,17.7318 13.5047,18.3058 C13.4757,18.6978 13.1947,18.9768 12.7997,19.0118 C12.7497,19.0158 12.6997,19.0158 12.6487,19.0158 C9.2167,19.0158 5.7847,19.0148 2.3527,19.0158 C2.1467,19.0158 1.9527,18.9848 1.7837,18.8528 C1.6097,18.7158 1.5137,18.5378 1.4977,18.3218 C1.4337,17.4198 1.3747,16.5168 1.3147,15.6148 C1.2367,14.4558 1.1587,13.2958 1.0817,12.1358 C1.0067,11.0118 0.9327,9.8878 0.8587,8.7638 C0.8237,8.2338 0.7947,7.7038 0.7507,7.1758 C0.7037,6.6078 1.0157,6.2528 1.5867,6.2528 C3.5577,6.2518 5.5287,6.2518 7.4997,6.2518" id="Fill-1" fill="#ff8a00"></path>
                    <g id="Group-5" transform="translate(0.000000, 0.015900)">
                        <mask id="mask-2" fill="white">
                            <use xlink:href="#path-1"></use>
                        </mask>
                        <g id="Clip-4"></g>
                        <path d="M8.9888,3.9795 C8.9888,3.6885 9.0048,3.4105 8.9848,3.1345 C8.9598,2.8055 8.6778,2.5155 8.3508,2.5045 C7.7858,2.4855 7.2198,2.4865 6.6558,2.5035 C6.3438,2.5135 6.0568,2.7755 6.0238,3.0835 C5.9928,3.3765 6.0178,3.6755 6.0178,3.9795 L8.9888,3.9795 Z M4.4978,3.9875 C4.4978,3.7335 4.4968,3.5025 4.4978,3.2705 C4.5038,1.9755 5.4908,0.9905 6.7868,0.9855 C7.2618,0.9835 7.7368,0.9835 8.2118,0.9855 C9.5158,0.9895 10.4988,1.9765 10.5028,3.2835 C10.5038,3.5105 10.5028,3.7375 10.5028,3.9875 L10.6838,3.9875 C11.8568,3.9875 13.0288,3.9855 14.2008,3.9885 C14.7068,3.9885 15.0458,4.3525 14.9948,4.8285 C14.9598,5.1565 14.6958,5.4315 14.3678,5.4755 C14.2878,5.4855 14.2068,5.4885 14.1258,5.4885 C9.7098,5.4895 5.2928,5.4885 0.8768,5.4905 C0.5468,5.4905 0.2638,5.4095 0.0958,5.1015 C-0.1722,4.6105 0.1488,4.0285 0.7068,3.9905 C0.8228,3.9825 0.9388,3.9875 1.0548,3.9875 L4.3148,3.9875 L4.4978,3.9875 Z" id="Fill-3" fill="#ff8a00" mask="url(#mask-2)"></path>
                    </g>
                    <path d="M3.7446,12.2601 C3.7446,11.7601 3.7406,11.2601 3.7456,10.7601 C3.7506,10.3771 4.0216,10.0711 4.3916,10.0131 C4.7416,9.9591 5.0966,10.1761 5.2076,10.5221 C5.2366,10.6121 5.2496,10.7101 5.2496,10.8041 C5.2526,11.7741 5.2526,12.7441 5.2506,13.7141 C5.2506,14.1761 4.9316,14.5111 4.4986,14.5111 C4.0656,14.5111 3.7466,14.1761 3.7446,13.7151 C3.7436,13.2301 3.7446,12.7451 3.7446,12.2601" id="Fill-6" fill="#ff8a00"></path>
                    <path d="M8.2539,12.2523 C8.2539,12.7373 8.2549,13.2223 8.2539,13.7073 C8.2529,14.1773 7.9299,14.5163 7.4929,14.5113 C7.0589,14.5053 6.7479,14.1713 6.7469,13.7063 C6.7459,12.7413 6.7459,11.7773 6.7469,10.8123 C6.7479,10.3443 7.0699,10.0043 7.5079,10.0082651 C7.9359,10.0113 8.2529,10.3523 8.2539,10.8133 C8.2549,11.2933 8.2539,11.7723 8.2539,12.2523" id="Fill-8" fill="#ff8a00"></path>
                    <path d="M9.749,12.2508 C9.749,11.7718 9.749,11.2918 9.749,10.8118 C9.75,10.3508 10.068,10.0098 10.496,10.0077912 C10.934,10.0058 11.255,10.3458 11.256,10.8138 C11.257,11.7788 11.257,12.7428 11.256,13.7078 C11.255,14.1718 10.942,14.5068 10.509,14.5108 C10.071,14.5158 9.75,14.1768 9.749,13.7058 C9.749,13.2208 9.749,12.7358 9.749,12.2508" id="Fill-10" fill="#ff8a00"></path>
                </g>
            </g>
        </g>
    </g>
</svg>