<?xml version="1.0" encoding="UTF-8"?>
<svg width="23px" height="23px" viewBox="0 0 23 23" version="1.1" xmlns="http://www.w3.org/2000/svg" xmlns:xlink="http://www.w3.org/1999/xlink">
    <defs>
        <polygon id="path-1" points="0 0 23 0 23 23 0 23"></polygon>
    </defs>
    <g id="Wireframes" stroke="none" stroke-width="1" fill="none" fill-rule="evenodd">
        <g id="Demo-Application" transform="translate(-1042.000000, -175.000000)">
            <g id="user-icon" transform="translate(1042.000000, 175.000000)">
                <mask id="mask-2" fill="white">
                    <use xlink:href="#path-1"></use>
                </mask>
                <g id="Clip-2"></g>
                <path d="M21.0698873,21.0691776 L21.0698873,13.3584403 C20.4291743,13.5515183 19.803097,13.7401852 19.1797299,13.928001 C19.1751611,13.9464188 19.1695083,13.9588006 19.1694308,13.9711823 C19.1681918,14.4096512 19.1716765,14.8481975 19.166101,15.2865889 C19.1377591,17.5132926 18.3281563,19.4015875 16.709183,20.9382405 C16.674259,20.9712844 16.6431293,21.008507 16.5866004,21.0691776 L21.0698873,21.0691776 Z M2.51406959,8.19865386 C2.50113763,8.2303821 2.4882831,8.25893752 2.47790656,8.28834419 C2.0983883,9.36191965 1.91974137,10.4700092 1.918967,11.6066543 C1.91695364,14.6941994 1.91819263,17.7818219 1.91873469,20.869367 C1.91873469,20.9370024 1.92616863,21.0045603 1.92949842,21.0618259 L6.42223261,21.0618259 C6.32969551,20.975618 6.26364183,20.923692 6.20920369,20.8616284 C5.89086058,20.4989204 5.54301402,20.1567197 5.26447348,19.7654563 C4.2725842,18.3723542 3.81524186,16.8106281 3.83010974,15.0996244 C3.84544225,13.3207533 3.83429134,11.5415727 3.83096155,9.76246939 C3.83080668,9.68531558 3.81717778,9.58633894 3.76955409,9.53441296 C3.36030006,9.08851504 2.9417536,8.65112958 2.51406959,8.19865386 L2.51406959,8.19865386 Z M5.76208302,11.2909969 C5.75689474,11.3525188 5.75178391,11.3840148 5.75193878,11.4153562 C5.75689474,12.8205305 5.73304418,14.2266334 5.77586678,15.6306469 C5.82147712,17.1265176 6.41177862,18.4181667 7.49504345,19.443995 C9.07343983,20.9386275 10.9477226,21.414319 13.0521479,20.8569853 C14.4849629,20.4775619 15.5798432,19.6147858 16.3786049,18.3691814 C17.1757403,17.1264402 17.3112549,15.7453329 17.2414068,14.3194966 C17.2406325,14.3031681 17.2237512,14.2876135 17.2158527,14.274071 C13.0420036,14.6745434 9.23466346,13.6802885 5.76208302,11.2909969 L5.76208302,11.2909969 Z M15.3785847,12.4661801 C15.7073818,12.4661801 16.0380374,12.4884673 16.3647437,12.4623882 C17.9586274,12.3352431 19.4897098,11.9507122 20.9562873,11.3115042 C21.0465788,11.2721147 21.0859941,11.2292429 21.0753079,11.1275578 C21.0419325,10.8074894 21.0344986,10.4837839 20.9850939,10.1664241 C20.5391347,7.30136362 19.1171609,5.04084227 16.6857971,3.4645676 C14.4031121,1.98479323 11.896557,1.58045158 9.25224163,2.20836127 C6.86230652,2.77590992 4.98167392,4.11646695 3.57549721,6.12734119 C3.50348089,6.2303419 3.52245293,6.2948818 3.59113946,6.37946465 C3.9932693,6.87434788 4.37317474,7.38873238 4.79636741,7.86473343 C6.10543824,9.3373883 7.68313768,10.4512045 9.48207436,11.2436367 C11.3574413,12.0697319 13.3224026,12.5031706 15.3785847,12.4661801 L15.3785847,12.4661801 Z M11.4935753,22.9999574 C8.03539815,22.9999574 4.57714354,22.9999574 1.11896636,22.9999574 C0.377275713,22.9999574 0.000467747486,22.6232425 0.000467747486,21.8821945 C0.000312873681,18.4521391 0.00162930102,15.0219289 1.56106259e-06,11.5917962 C-0.00123586436,9.04053574 0.733175716,6.7193438 2.25395904,4.67449713 C3.94882051,2.39532576 6.19418093,0.911682088 8.97695345,0.295070739 C12.0275028,-0.380895644 14.9086976,0.106094218 17.5638541,1.74009882 C19.7326294,3.07477451 21.2879496,4.95231273 22.2177345,7.33440743 C22.746706,8.68951302 22.9996149,10.0945326 22.9997697,11.5468349 C23.0000989,15.0092376 23.0000989,18.4717178 22.9996149,21.9341205 C22.99946,22.6077653 22.6044544,22.999493 21.926262,22.9995704 C18.4486481,23.0001895 14.9711117,22.9999574 11.4935753,22.9999574 L11.4935753,22.9999574 Z" id="Fill-1" fill="#04234d" mask="url(#mask-2)"></path>
            </g>
        </g>
    </g>
</svg>