<svg width="24" height="24" viewBox="0 0 24 24" fill="none" xmlns="http://www.w3.org/2000/svg">
<circle cx="12" cy="12" r="11" fill="white" stroke="#BABABA" stroke-width="2"/>
<g clip-path="url(#clip0)">
<path d="M18.6673 22.5H5.33398V20.8333C5.33398 19.7282 5.77297 18.6684 6.55437 17.887C7.33577 17.1056 8.39558 16.6666 9.50065 16.6666H14.5006C15.6057 16.6666 16.6655 17.1056 17.4469 17.887C18.2283 18.6684 18.6673 19.7282 18.6673 20.8333V22.5ZM12.0006 15C11.344 15 10.6939 14.8706 10.0872 14.6194C9.48061 14.3681 8.92941 13.9998 8.46512 13.5355C8.00082 13.0712 7.63253 12.52 7.38125 11.9134C7.12998 11.3067 7.00065 10.6566 7.00065 9.99995C7.00065 9.34334 7.12998 8.69316 7.38125 8.08654C7.63253 7.47991 8.00082 6.92871 8.46512 6.46442C8.92941 6.00013 9.48061 5.63183 10.0872 5.38056C10.6939 5.12928 11.344 4.99995 12.0006 4.99995C13.3267 4.99995 14.5985 5.52674 15.5362 6.46442C16.4739 7.4021 17.0006 8.67387 17.0006 9.99995C17.0006 11.326 16.4739 12.5978 15.5362 13.5355C14.5985 14.4732 13.3267 15 12.0006 15Z" fill="#BABABA"/>
</g>
<defs>
<clipPath id="clip0">
<rect width="20" height="20" fill="white" transform="translate(2 1.99995)"/>
</clipPath>
</defs>
</svg>
